<?xml version="1.0" encoding="UTF-8"?>
<svg xmlns="http://www.w3.org/2000/svg" width="182" height="182" viewBox="0 0 182 182" version="1.1">
  <title>SRLDF Shield</title>
  <g transform="translate(1.5495,0)">
    <path d="M130.656958,70.3997361 L156.195718,114.499889 C155.389245,115.862622 154.266048,117.538029 153.602414,118.913647 C146.192975,131.269789 137.246917,142.603974 127.050532,152.634205 C116.853288,162.672166 105.392586,171.425441 92.9380283,178.630685 L88.8452886,181.000037 L84.7520581,178.630685 C71.8560995,171.171056 60.0513091,162.088296 49.6450842,151.682071 C41.6003572,143.639553 34.3465186,134.759147 28.0275111,125.182956 L53.7277613,132.07614 C56.1328226,134.839033 58.6270966,137.5202 61.214142,140.11154 C69.5546084,148.449553 78.8296606,155.819846 88.8432025,162.04191 C98.5428433,156.023796 107.520806,148.953169 115.604556,140.993973 C123.769174,132.960536 131.03602,124.017669 137.233664,114.348461 L116.520244,78.5774844 C107.92392,78.4261787 101.003003,71.4110178 101.003003,62.7775116 C101.003003,54.0460801 108.075594,46.9698078 116.80273,46.9698078 C125.537843,46.9698078 132.614238,54.0460801 132.614238,62.7775116 C132.614238,65.5404054 131.904341,68.1391085 130.656958,70.3997361 L130.656958,70.3997361 Z M88.8432025,100.169656 C97.5745113,100.169656 104.652624,107.245928 104.652624,115.976746 C104.652624,124.704251 97.5745113,131.782241 88.8432025,131.782241 C81.6579607,131.782241 75.5984922,126.99028 73.6753267,120.430509 C54.6706916,115.451164 35.6435999,110.510106 16.6989717,105.361049 L15.0571882,101.692775 C14.3431185,100.145359 13.6533461,98.5573235 12.9789129,96.9446231 C12.2605482,95.2090865 11.6207202,93.6178609 11.0693686,92.1707009 C7.48220841,82.7519513 4.69563093,72.8467654 2.81161103,62.5580999 C0.97176797,52.4930184 0,42.2153971 0,31.8351874 L0.0373048949,31.8020548 L0.0857767156,25.0171043 L4.10881512,22.6892298 C14.9136134,16.4426233 26.4934701,11.3430196 38.6704504,7.57338452 C46.9488238,5.00670958 55.49324,3.06071937 64.2423423,1.783763 L53.4163145,20.4608759 C50.0467254,21.257409 46.7326027,22.163648 43.4641294,23.175666 C34.0297951,26.0998052 24.9720684,29.9154579 16.3958695,34.5310796 C16.5385852,43.1709669 17.3855536,51.5519288 18.8602014,59.6155536 C20.5396579,68.7730463 23.0666964,77.7191037 26.3533313,86.3527326 L28.4532042,91.5921069 L77.8424308,104.626486 C80.6861927,101.866783 84.5659018,100.169656 88.8432025,100.169656 L88.8432025,100.169656 Z M71.0634932,55.1625272 C72.3063353,57.4209459 73.0145147,60.0157222 73.0145147,62.7775116 C73.0145147,71.5026847 65.9381197,78.5792024 57.2130693,78.5792024 C48.4838466,78.5792024 41.4091696,71.5026847 41.4091696,62.7775116 C41.4091696,54.1416739 48.3342589,47.1251631 56.9330372,46.9737346 L84.1506394,0 L88.8432025,0 C103.991076,0 118.719515,1.99973871 132.748487,5.75489361 C147.193089,9.61742279 160.901288,15.3567318 173.575504,22.6892298 L177.608237,25.0171043 L177.652904,31.8020548 L177.684932,31.8351874 C177.684932,45.2352529 176.11825,58.2979791 173.160119,70.8483765 C171.06859,79.74044 168.246426,88.3966482 164.779279,96.7371146 L154.13904,78.3590545 C155.30899,74.6850132 156.341501,70.944093 157.238782,67.1407117 C159.704464,56.6711666 161.101066,45.7639025 161.292131,34.5351292 C151.029603,29.0124095 140.049079,24.6242985 128.532911,21.5448039 C117.341443,18.5520678 105.608071,16.7966516 93.5022648,16.4368558 L71.0634932,55.1625272 Z" fill="#F25300"/>
  </g>
</svg>
