<?xml version="1.0" encoding="UTF-8"?>
<svg width="263px" height="401px" viewBox="0 0 263 401" version="1.1" xmlns="http://www.w3.org/2000/svg" xmlns:xlink="http://www.w3.org/1999/xlink">
    <title>Group 16</title>
    <defs>
        <path d="M206.150009,162.398 C206.193009,162.398 206.235009,162.405 206.276009,162.42 L206.328009,162.443 C206.333009,162.446 206.337009,162.449 206.342009,162.452 L225.038009,173.245 L225.047009,173.25 C225.074009,173.266 225.098009,173.285 225.121009,173.307 C225.145009,173.331 225.166009,173.357 225.181009,173.385 C225.199009,173.415 225.212009,173.448 225.221009,173.482 C225.228009,173.513 225.232009,173.543 225.232009,173.573 L225.232009,216.767 C225.232009,216.78 225.232009,216.793 225.232009,216.806 C225.226009,216.863 225.208009,216.917 225.179009,216.965 C225.155009,217.008 225.121009,217.046 225.078009,217.076 C225.065009,217.086 225.052009,217.095 225.038009,217.102 L206.900009,227.573 L225.038009,238.046 C225.043009,238.049 225.048009,238.052 225.054009,238.055 C225.074009,238.067 225.092009,238.081 225.110009,238.097 C225.138009,238.123 225.162009,238.151 225.179009,238.183 C225.200009,238.216 225.214009,238.253 225.223009,238.292 C225.229009,238.319 225.232009,238.347 225.232009,238.374 L225.232009,303.167 C225.232009,303.18 225.232009,303.192 225.232009,303.205 C225.226009,303.263 225.208009,303.317 225.179009,303.365 C225.154009,303.408 225.120009,303.446 225.078009,303.477 C225.065009,303.486 225.052009,303.495 225.038009,303.502 L206.525009,314.191 L206.525009,400.375 C206.525009,400.582 206.357009,400.75 206.150009,400.75 C205.943009,400.75 205.775009,400.582 205.775009,400.375 L205.775009,357.392 L168.552009,335.901 C168.543009,335.897 168.543009,335.896 168.543009,335.896 L131.135009,314.302 C131.127009,314.297 131.126009,314.297 131.125009,314.296 L112.431009,303.502 C112.426009,303.5 112.421009,303.497 112.417009,303.494 L93.9040089,292.807 L56.6830089,314.295 C56.6800089,314.297 56.6770089,314.299 56.6740089,314.301 C56.6440089,314.317 56.6110089,314.331 56.5760089,314.34 C56.5450089,314.347 56.5150089,314.348 56.4890089,314.35 C56.4540089,314.35 56.4180089,314.345 56.3840089,314.335 C56.3540089,314.326 56.3260089,314.313 56.2990089,314.298 L38.1660089,303.823 L38.1660089,346.375 C38.1660089,346.582 37.9980089,346.75 37.7910089,346.75 C37.5840089,346.75 37.4160089,346.582 37.4160089,346.375 L37.4160089,303.391 L18.9010089,292.701 C18.8920089,292.696 18.8830089,292.691 18.8750089,292.686 C18.8250089,292.652 18.7860089,292.608 18.7570089,292.559 C18.7310089,292.513 18.7140089,292.462 18.7090089,292.407 L18.7090089,292.38775 L18.7090089,270.774 C18.7090089,270.745 18.7090089,270.717 18.7180089,270.688 C18.7270089,270.65 18.7420089,270.615 18.7610089,270.583 C18.7770089,270.557 18.7950089,270.531 18.8180089,270.509 C18.8410089,270.486 18.8660089,270.468 18.8910089,270.452 C18.8950089,270.45 18.8990089,270.448 18.9030089,270.446 L37.4160089,259.757 L37.4160089,216.773 C37.4160089,216.566 37.5840089,216.398 37.7910089,216.398 C37.9980089,216.398 38.1660089,216.566 38.1660089,216.773 L38.1660089,259.324 L75.0000089,238.054 C75.0180089,238.043 75.0360089,238.034 75.0530089,238.027 C75.1010089,238.008 75.1440089,237.99 75.1960089,237.999 C75.2480089,237.999 75.2990089,238.01 75.3480089,238.031 C75.3640089,238.038 75.3760089,238.045 75.3890089,238.053 L94.0860089,248.846 C94.1170089,248.863 94.1450089,248.884 94.1690089,248.909 C94.2010089,248.94 94.2240089,248.975 94.2420089,249.012 C94.2670089,249.064 94.2790089,249.119 94.2790089,249.174 C94.2790089,249.228 94.2670089,249.284 94.2420089,249.336 C94.2250089,249.371 94.2040089,249.403 94.1760089,249.432 C94.1490089,249.46 94.1190089,249.483 94.0850089,249.502 L75.9460089,259.974 L94.0840089,270.446 C94.1210089,270.467 94.1500089,270.489 94.1760089,270.517 C94.1970089,270.538 94.2120089,270.56 94.2260089,270.583 C94.2430089,270.61 94.2550089,270.641 94.2640089,270.672 C94.2750089,270.708 94.2800089,270.744 94.2790089,270.781 L94.2790089,292.157 L112.237009,302.524 L112.237009,259.979 C112.236009,259.947 112.240009,259.915 112.248009,259.883 C112.259009,259.836 112.280009,259.792 112.308009,259.754 C112.341009,259.707 112.384009,259.67 112.433009,259.644 C112.472009,259.622 112.516009,259.608 112.563009,259.602 C112.611009,259.596 112.664009,259.6 112.712009,259.612 C112.747009,259.622 112.777009,259.636 112.805009,259.652 L131.319009,270.342 L149.835009,259.651 C149.859009,259.638 149.878009,259.629 149.899009,259.621 C149.942009,259.605 149.985009,259.599 150.027009,259.599 C150.070009,259.599 150.112009,259.605 150.153009,259.62 C150.175009,259.628 150.194009,259.637 150.212009,259.647 L168.735009,270.342 L224.107009,238.374 L206.150009,228.006 L187.635009,238.695 C187.629009,238.699 187.624009,238.702 187.618009,238.705 C187.601009,238.715 187.583009,238.723 187.564009,238.728 C187.524009,238.742 187.483009,238.749 187.442009,238.749 C187.400009,238.749 187.359009,238.742 187.318009,238.728 C187.298009,238.721 187.280009,238.713 187.262009,238.703 C187.257009,238.7 187.252009,238.698 187.249009,238.695 L168.554009,227.901 C168.551009,227.9 168.548009,227.898 168.545009,227.896 C168.518009,227.881 168.493009,227.862 168.470009,227.839 C168.447009,227.815 168.428009,227.791 168.413009,227.765 C168.393009,227.732 168.378009,227.697 168.370009,227.66 C168.363009,227.632 168.360009,227.602 168.360009,227.573 L168.360009,184.374 C168.360009,184.344 168.364009,184.313 168.371009,184.282 C168.380009,184.245 168.395009,184.21 168.415009,184.178 C168.427009,184.156 168.443009,184.136 168.460009,184.117 C168.485009,184.091 168.513009,184.068 168.542009,184.051 C168.546009,184.049 168.550009,184.046 168.555009,184.044 L205.959009,162.451 C205.983009,162.436 206.005009,162.427 206.028009,162.419 C206.069009,162.405 206.110009,162.398 206.150009,162.398 Z M93.9040089,313.6 C93.9550089,313.6 94.0050089,313.609 94.0530089,313.631 C94.0700089,313.638 94.0840089,313.645 94.0980089,313.653 L131.500009,335.246 C131.502009,335.247 131.505009,335.249 131.508009,335.251 C131.537009,335.268 131.562009,335.286 131.584009,335.31 C131.607009,335.332 131.625009,335.356 131.641009,335.383 C131.660009,335.414 131.674009,335.448 131.683009,335.483 C131.690009,335.514 131.694009,335.544 131.694009,335.574 L131.694009,357.168 C131.694009,357.182 131.694009,357.194 131.693009,357.208 C131.687009,357.264 131.670009,357.316 131.643009,357.363 C131.618009,357.407 131.583009,357.446 131.540009,357.477 C131.527009,357.487 131.514009,357.495 131.500009,357.503 L112.987009,368.191 L112.987009,389.567 C112.988009,389.609 112.982009,389.652 112.967009,389.694 C112.957009,389.727 112.942009,389.757 112.923009,389.784 C112.890009,389.833 112.847009,389.873 112.798009,389.9 C112.752009,389.927 112.701009,389.943 112.645009,389.948 C112.634009,389.95 112.623009,389.95 112.612009,389.95 C112.584009,389.95 112.557009,389.947 112.530009,389.941 C112.490009,389.933 112.452009,389.917 112.417009,389.895 L75.0150089,368.303 C75.0020089,368.296 74.9900089,368.288 74.9780089,368.28 C74.9320089,368.247 74.8950089,368.205 74.8690089,368.158 C74.8430089,368.113 74.8270089,368.062 74.8220089,368.008 L74.8210089,367.988 L74.8210089,324.774 C74.8210089,324.745 74.8240089,324.717 74.8310089,324.687 C74.8390089,324.65 74.8540089,324.615 74.8740089,324.583 C74.8890089,324.557 74.9080089,324.531 74.9300089,324.509 C74.9540089,324.486 74.9780089,324.468 75.0030089,324.452 L75.0150089,324.446 L93.7090089,313.654 L93.7550089,313.63 C93.8050089,313.609 93.8540089,313.6 93.9040089,313.6 Z M150.027009,346 C150.234009,346 150.402009,346.168 150.402009,346.375 L150.402009,389.575 C150.402009,389.782 150.234009,389.95 150.027009,389.95 C149.820009,389.95 149.652009,389.782 149.652009,389.575 L149.652009,346.375 C149.652009,346.168 149.820009,346 150.027009,346 Z M75.5710089,325.424 L75.5710089,367.758 L112.237009,388.926 L112.237009,346.592 L75.5710089,325.424 Z M130.944009,336.224 L112.987009,346.592 L112.987009,367.325 L130.944009,356.958 L130.944009,336.224 Z M205.775009,314.624 L169.485009,335.574 L205.775009,356.525 L205.775009,314.624 Z M93.9040089,314.407 L75.9460089,324.774 L112.612009,345.942 L130.569009,335.574 L93.9040089,314.407 Z M150.402009,260.623 L150.402009,303.167 C150.402009,303.181 150.402009,303.193 150.401009,303.206 C150.396009,303.264 150.377009,303.317 150.349009,303.365 C150.325009,303.408 150.291009,303.446 150.248009,303.477 C150.235009,303.486 150.222009,303.495 150.208009,303.502 L132.069009,313.975 L168.360009,334.925 L168.360009,270.991 L150.402009,260.623 Z M224.482009,239.023 L169.110009,270.991 L169.110009,334.925 L205.775009,313.758 L205.775009,270.774 C205.775009,270.567 205.943009,270.399 206.150009,270.399 C206.357009,270.399 206.525009,270.567 206.525009,270.774 L206.525009,313.325 L224.482009,302.957 L224.482009,239.023 Z M75.1960089,282.007 L56.8640089,292.591 L56.8640089,313.325 L93.1540089,292.374 L75.1960089,282.007 Z M38.1660089,282.224 L38.1660089,302.957 L56.1140089,313.325 L56.1140089,292.591 L38.1660089,282.224 Z M112.987009,260.623 L112.987009,302.957 L130.944009,313.325 L130.944009,270.991 L112.987009,260.623 Z M149.652009,260.623 L131.694009,270.991 L131.694009,313.325 L149.652009,302.957 L149.652009,260.623 Z M19.4590089,271.424 L19.4590089,292.157 L37.4160089,302.524 L37.4160089,281.791 L19.4590089,271.424 Z M75.1960089,238.807 L38.1660089,260.19 L38.1660089,281.357 L56.4890089,291.941 L74.4460089,281.574 L56.3010089,271.1 C56.1220089,270.996 56.0600089,270.767 56.1640089,270.587 C56.2690089,270.408 56.5000089,270.349 56.6760089,270.449 L75.1960089,281.142 L93.1540089,270.774 L75.0130089,260.302 C74.9880089,260.287 74.9630089,260.27 74.9410089,260.249 C74.9020089,260.213 74.8710089,260.168 74.8510089,260.12 C74.8310089,260.072 74.8210089,260.022 74.8210089,259.974 L74.8283839,259.90025 L74.8500089,259.828 C74.8740089,259.774 74.9080089,259.727 74.9530089,259.688 C74.9710089,259.672 74.9910089,259.658 75.0110089,259.646 L93.1540089,249.174 L75.1960089,238.807 Z M93.5290089,271.424 L75.9460089,281.574 L93.5290089,291.725 L93.5290089,271.424 Z M37.4160089,260.623 L19.8340089,270.774 L37.4160089,280.925 L37.4160089,260.623 Z M56.4890089,0 C56.6960089,0 56.8640089,0.168 56.8640089,0.375 L56.8640089,140.523 L75.0020089,130.052 L75.0216339,130.04075 L75.0420089,130.031 C75.0920089,130.009 75.1440089,129.998 75.1960089,129.998 C75.2480089,129.998 75.2980089,130.009 75.3480089,130.03 C75.3640089,130.037 75.3760089,130.044 75.3890089,130.052 L93.5290089,140.523 L93.5290089,119.573 C93.5290089,119.543 93.5330089,119.513 93.5400089,119.482 C93.5480089,119.448 93.5620089,119.415 93.5800089,119.385 C93.5960089,119.356 93.6170089,119.33 93.6400089,119.306 C93.6630089,119.285 93.6860089,119.267 93.7110089,119.251 L93.7230089,119.245 L131.125009,97.651 C131.137009,97.645 131.150009,97.638 131.162009,97.632 C131.213009,97.608 131.266009,97.598 131.319009,97.598 C131.372009,97.598 131.423009,97.608 131.473009,97.631 C131.487009,97.637 131.5,97.644 131.512009,97.651 L168.916009,119.245 C168.951009,119.264 168.982009,119.288 169.009009,119.317 C169.032009,119.343 169.050009,119.368 169.065009,119.396 C169.074009,119.411 169.082009,119.429 169.087009,119.445 C169.103009,119.488 169.110009,119.531 169.110009,119.573 L169.110009,162.765 C169.110009,162.783 169.110009,162.803 169.107009,162.82 C169.101009,162.87 169.084009,162.917 169.061009,162.959 C169.035009,163.004 169,163.045 168.956009,163.076 C168.943009,163.086 168.930009,163.095 168.916009,163.102 L150.402009,173.79 L150.402009,216.773 C150.402009,216.98 150.234009,217.148 150.027009,217.148 C149.820009,217.148 149.652009,216.98 149.652009,216.773 L149.652009,174.223 L131.512009,184.694 C131.478009,184.715 131.442009,184.729 131.404009,184.738 C131.375009,184.745 131.347009,184.748 131.319009,184.748 C131.289009,184.748 131.258009,184.744 131.228009,184.737 C131.193009,184.727 131.161009,184.715 131.131009,184.698 L112.612009,174.006 L94.6540089,184.373 L131.502009,205.646 L131.522009,205.658 C131.577009,205.693 131.619009,205.74 131.648009,205.793 C131.672009,205.838 131.688009,205.888 131.692009,205.94 L131.694009,205.98 L131.694009,249.168 C131.694009,249.197 131.691009,249.227 131.685009,249.256 C131.672009,249.311 131.648009,249.362 131.614009,249.405 C131.586009,249.44 131.554009,249.469 131.518009,249.491 C131.468009,249.522 131.411009,249.543 131.349009,249.549 C131.339009,249.549 131.329009,249.549 131.319009,249.549 C131.289009,249.549 131.258009,249.545 131.228009,249.538 C131.190009,249.528 131.157009,249.514 131.125009,249.495 L93.7230089,227.901 C93.7090089,227.894 93.6960089,227.886 93.6830089,227.876 C93.6400089,227.846 93.6060089,227.808 93.5820089,227.765 C93.5530089,227.717 93.5350089,227.663 93.5300089,227.605 L93.5291339,227.58625 L93.5290089,206.623 L75.3890089,217.095 C75.3550089,217.115 75.3190089,217.13 75.2810089,217.139 C75.2520089,217.145 75.2240089,217.148 75.1960089,217.148 C75.1660089,217.148 75.1350089,217.145 75.1050089,217.138 C75.0690089,217.128 75.0340089,217.114 75.0020089,217.095 L56.8640089,206.623 L56.8640089,227.573 C56.8640089,227.78 56.6960089,227.948 56.4890089,227.948 C56.2820089,227.948 56.1140089,227.78 56.1140089,227.573 L56.1140089,206.19 L37.7910089,195.606 L0.563008945,217.099 C0.385008945,217.199 0.156008945,217.141 0.0500089445,216.961 C-0.0529910555,216.781 0.00800894452,216.552 0.188008945,216.448 L37.4160089,194.957 L37.4160089,151.978 C37.4150089,151.938 37.4210089,151.895 37.4340089,151.855 C37.4420089,151.833 37.4510089,151.811 37.4620089,151.791 C37.4800089,151.76 37.5020089,151.729 37.5300089,151.703 C37.5500089,151.683 37.5740089,151.665 37.5980089,151.65 C37.6020089,151.648 37.6060089,151.646 37.6100089,151.645 L56.1140089,140.956 L56.1140089,0.375 C56.1140089,0.168 56.2820089,0 56.4890089,0 Z M94.2790089,185.022 L94.2790089,227.356 L130.944009,248.524 L130.944009,206.19 L94.2790089,185.022 Z M187.067009,217.423 L169.485009,227.573 L187.067009,237.725 L187.067009,217.423 Z M224.482009,174.223 L206.525009,184.59 L206.525009,205.967 C206.525009,205.98 206.525009,205.993 206.524009,206.006 C206.519009,206.064 206.500009,206.117 206.472009,206.165 C206.448009,206.208 206.414009,206.246 206.371009,206.276 C206.358009,206.286 206.345009,206.295 206.331009,206.302 L187.817009,216.99 L187.817009,237.725 L205.957009,227.252 C205.960009,227.25 205.964009,227.247 205.968009,227.245 L224.482009,216.557 L224.482009,174.223 Z M169.110009,185.022 L169.110009,226.924 L187.067009,216.557 L187.067009,195.391 L169.110009,185.022 Z M93.9040089,163.206 L75.5710089,173.79 L75.5710089,216.124 L93.5290089,205.757 L93.5290089,184.374 C93.5290089,184.344 93.5330089,184.313 93.5400089,184.282 C93.5480089,184.247 93.5620089,184.214 93.5810089,184.184 C93.5950089,184.157 93.6150089,184.133 93.6360089,184.11 C93.6590089,184.087 93.6840089,184.067 93.7110089,184.051 C93.7150089,184.049 93.7190089,184.046 93.7240089,184.044 L111.862009,173.573 L93.9040089,163.206 Z M74.8210089,174.223 L56.8640089,184.59 L56.8640089,205.757 L74.8210089,216.124 L74.8210089,174.223 Z M205.775009,185.022 L187.817009,195.391 L187.817009,216.124 L205.775009,205.757 L205.775009,185.022 Z M56.1140089,185.022 L38.5410089,195.174 L56.1140089,205.324 L56.1140089,185.022 Z M205.775009,163.423 L169.485009,184.373 L187.442009,194.741 L205.775009,184.156 L205.775009,163.423 Z M38.1660089,152.622 L38.1660089,194.524 L56.1140089,184.156 L56.1140089,162.99 L38.1660089,152.622 Z M206.525009,163.423 L206.525009,183.724 L224.107009,173.573 L206.525009,163.423 Z M56.8640089,163.423 L56.8640089,183.724 L74.4460089,173.573 L56.8640089,163.423 Z M168.360009,120.223 L131.694009,141.39 L131.694009,183.724 L149.652009,173.356 L149.652009,151.973 C149.652009,151.766 149.820009,151.598 150.027009,151.598 C150.234009,151.598 150.402009,151.766 150.402009,151.973 L150.402009,172.924 L168.360009,162.557 L168.360009,120.223 Z M94.2790089,120.223 L94.2790089,162.124 L112.424009,151.647 C112.602009,151.548 112.833009,151.606 112.937009,151.785 C113.041009,151.965 112.979009,152.194 112.799009,152.298 L94.6540089,162.773 L112.794009,173.246 L112.804009,173.252 L130.944009,183.724 L130.944009,141.39 L94.2790089,120.223 Z M75.1960089,130.806 L56.8640089,141.39 L56.8640089,162.557 L75.1960089,173.141 L93.5290089,162.557 L93.5290089,141.39 L75.1960089,130.806 Z M56.1140089,141.822 L38.5410089,151.973 L56.1140089,162.124 L56.1140089,141.822 Z M262.588009,108.585 C262.692009,108.765 262.630009,108.993 262.451009,109.098 L187.629009,152.298 C187.571009,152.331 187.506009,152.348 187.442009,152.348 C187.313009,152.348 187.187009,152.28 187.117009,152.16 C187.013009,151.98 187.075009,151.751 187.254009,151.647 L262.076009,108.447 C262.254009,108.348 262.484009,108.406 262.588009,108.585 Z M131.319009,98.405 L94.6540089,119.573 L131.319009,140.74 L167.985009,119.573 L131.319009,98.405 Z" id="path-1"></path>
    </defs>
    <g id="Page-1" stroke="none" stroke-width="1" fill="none" fill-rule="evenodd">
        <g id="assets" transform="translate(0.000000, -679.000000)">
            <g id="Group-16" transform="translate(-0.000000, 679.250000)">
                <polygon id="Fill-1" fill="#F25300" points="187.442009 216.7735 187.442009 238.3735 168.734009 227.5735"></polygon>
                <polygon id="Fill-2" fill="#F25300" points="187.442009 195.1734 187.442009 216.7734 168.734009 227.5734 168.734009 184.3734"></polygon>
                <polygon id="Fill-3" fill="#F25300" points="131.319109 270.774 131.319109 313.974 112.611109 303.174 112.611109 259.974"></polygon>
                <polygon id="Fill-4" fill="#F25300" points="131.319109 205.9735 131.319109 249.1735 93.9041089 227.5735 93.9041089 205.9735 93.9041089 184.3735"></polygon>
                <polygon id="Fill-5" fill="#F25300" points="93.9038089 162.7731 93.9038089 141.1731 93.9038089 119.5731 131.318809 141.1731 131.318809 184.3731 112.611809 173.5731"></polygon>
                <polygon id="Fill-6" fill="#F25300" points="112.611409 367.9747 112.611409 389.5747 75.1964089 367.9747 75.1964089 324.7747 112.611409 346.3747"></polygon>
                <polygon id="Fill-7" fill="#F25300" points="75.1961089 173.5732 75.1961089 216.7732 56.4881089 205.9732 56.4881089 184.3732"></polygon>
                <polygon id="Fill-8" fill="#F25300" points="75.1961089 173.5732 56.4881089 184.3732 56.4881089 162.7732"></polygon>
                <polygon id="Fill-9" fill="#F25300" points="56.4885089 292.3741 56.4885089 313.9741 37.7905089 303.1741 37.7905089 281.5741"></polygon>
                <polygon id="Fill-10" fill="#F25300" points="56.4885089 184.3733 56.4885089 205.9733 37.7905089 195.1733"></polygon>
                <polygon id="Fill-11" fill="#F25300" points="56.4885089 162.7731 56.4885089 184.3731 37.7905089 195.1731 37.7905089 151.9731"></polygon>
                <polygon id="Fill-12" fill="#F25300" points="37.7907089 281.5741 37.7907089 303.1741 19.0827089 292.3741 19.0827089 270.7741"></polygon>
                <g id="Group-15">
                    <mask id="mask-2" fill="white">
                        <use xlink:href="#path-1"></use>
                    </mask>
                    <g id="Clip-14"></g>
                    <path d="M187.442009,152.348 C187.313009,152.348 187.187009,152.28 187.117009,152.16 C187.013009,151.98 187.075009,151.751 187.254009,151.647 L262.076009,108.447 C262.254009,108.348 262.484009,108.406 262.588009,108.585 C262.692009,108.765 262.630009,108.993 262.451009,109.098 L187.629009,152.298 C187.571009,152.331 187.506009,152.348 187.442009,152.348 L187.442009,152.348 Z M94.6540089,119.573 L131.319009,140.74 L167.985009,119.573 L131.319009,98.405 L94.6540089,119.573 Z M38.5410089,151.973 L56.1140089,162.124 L56.1140089,141.822 L38.5410089,151.973 Z M56.8640089,162.557 L75.1960089,173.141 L93.5290089,162.557 L93.5290089,141.39 L75.1960089,130.806 L56.8640089,141.39 L56.8640089,162.557 Z M112.804009,173.252 L130.944009,183.724 L130.944009,141.39 L94.2790089,120.223 L94.2790089,141.166 L94.2790089,141.181 L94.2790089,162.124 L112.424009,151.647 C112.602009,151.548 112.833009,151.606 112.937009,151.785 C113.041009,151.965 112.979009,152.194 112.799009,152.298 L94.6540089,162.773 L112.794009,173.246 C112.798009,173.248 112.801009,173.25 112.804009,173.252 L112.804009,173.252 Z M131.694009,141.39 L131.694009,183.724 L149.652009,173.356 L149.652009,151.973 C149.652009,151.766 149.820009,151.598 150.027009,151.598 C150.234009,151.598 150.402009,151.766 150.402009,151.973 L150.402009,172.924 L168.360009,162.557 L168.360009,120.223 L131.694009,141.39 Z M56.8640089,163.423 L56.8640089,183.724 L74.4460089,173.573 L56.8640089,163.423 Z M38.1660089,152.622 L38.1660089,194.524 L56.1140089,184.156 L56.1140089,162.99 L38.1660089,152.622 Z M38.5410089,195.174 L56.1140089,205.324 L56.1140089,185.022 L38.5410089,195.174 Z M56.8640089,205.757 L74.8210089,216.124 L74.8210089,174.223 L56.8640089,184.59 L56.8640089,205.757 Z M75.5710089,173.79 L75.5710089,216.124 L93.5290089,205.757 L93.5290089,184.379 L93.5290089,184.374 C93.5290089,184.344 93.5330089,184.313 93.5400089,184.282 C93.5480089,184.247 93.5620089,184.214 93.5810089,184.184 C93.5950089,184.157 93.6150089,184.133 93.6360089,184.11 C93.6590089,184.087 93.6840089,184.067 93.7110089,184.051 C93.7150089,184.049 93.7190089,184.046 93.7240089,184.044 L111.862009,173.573 L93.9040089,163.206 L75.5710089,173.79 Z M94.2790089,227.356 L130.944009,248.524 L130.944009,206.19 L94.2790089,185.022 L94.2790089,205.966 L94.2790089,205.98 L94.2790089,227.356 Z M131.319009,249.549 C131.289009,249.549 131.258009,249.545 131.228009,249.538 C131.227009,249.538 131.227009,249.537 131.226009,249.537 C131.190009,249.528 131.157009,249.514 131.125009,249.495 L93.7230089,227.901 C93.7090089,227.894 93.6960089,227.886 93.6830089,227.876 C93.6400089,227.846 93.6060089,227.808 93.5820089,227.765 C93.5530089,227.717 93.5350089,227.663 93.5300089,227.605 C93.5290089,227.593 93.5290089,227.58 93.5290089,227.566 L93.5290089,206.623 L75.3890089,217.095 L75.3880089,217.096 C75.3550089,217.115 75.3190089,217.13 75.2810089,217.139 C75.2520089,217.145 75.2240089,217.148 75.1960089,217.148 C75.1660089,217.148 75.1350089,217.145 75.1050089,217.138 C75.0690089,217.128 75.0340089,217.114 75.0020089,217.095 L56.8640089,206.623 L56.8640089,227.573 C56.8640089,227.78 56.6960089,227.948 56.4890089,227.948 C56.2820089,227.948 56.1140089,227.78 56.1140089,227.573 L56.1140089,206.19 L37.7910089,195.606 L0.563008945,217.099 C0.385008945,217.199 0.156008945,217.141 0.0500089445,216.961 C-0.0529910555,216.781 0.00800894452,216.552 0.188008945,216.448 L37.4160089,194.957 L37.4160089,151.981 L37.4160089,151.978 C37.4150089,151.938 37.4210089,151.895 37.4340089,151.855 C37.4420089,151.833 37.4510089,151.811 37.4620089,151.791 C37.4800089,151.76 37.5020089,151.729 37.5300089,151.703 C37.5500089,151.683 37.5740089,151.665 37.5980089,151.65 C37.6020089,151.648 37.6060089,151.646 37.6100089,151.645 L56.1140089,140.956 L56.1140089,0.375 C56.1140089,0.168 56.2820089,0 56.4890089,0 C56.6960089,0 56.8640089,0.168 56.8640089,0.375 L56.8640089,140.523 L75.0020089,130.052 C75.0150089,130.044 75.0280089,130.037 75.0420089,130.031 C75.0420089,130.031 75.0430089,130.03 75.0430089,130.03 C75.0920089,130.009 75.1440089,129.998 75.1960089,129.998 C75.2480089,129.998 75.2980089,130.009 75.3480089,130.03 C75.3480089,130.03 75.3490089,130.03 75.3490089,130.031 L75.3500089,130.031 C75.3640089,130.037 75.3760089,130.044 75.3890089,130.052 L93.5290089,140.523 L93.5290089,119.58 L93.5290089,119.573 C93.5290089,119.543 93.5330089,119.513 93.5400089,119.482 C93.5480089,119.448 93.5620089,119.415 93.5800089,119.385 C93.5960089,119.356 93.6170089,119.33 93.6400089,119.306 C93.6630089,119.285 93.6860089,119.267 93.7110089,119.251 C93.7150089,119.249 93.7190089,119.247 93.7230089,119.245 L131.125009,97.651 C131.137009,97.645 131.150009,97.638 131.162009,97.632 L131.163009,97.632 C131.164009,97.632 131.164009,97.631 131.164009,97.631 C131.213009,97.608 131.266009,97.598 131.319009,97.598 C131.372009,97.598 131.423009,97.608 131.473009,97.631 C131.487009,97.637 131.5,97.644 131.512009,97.651 L168.916009,119.245 C168.951009,119.264 168.982009,119.288 169.009009,119.317 C169.010009,119.318 169.010009,119.318 169.011009,119.319 C169.032009,119.343 169.050009,119.368 169.065009,119.396 C169.074009,119.411 169.082009,119.429 169.087009,119.445 L169.087009,119.446 L169.088009,119.446 C169.103009,119.488 169.110009,119.531 169.110009,119.573 L169.110009,119.582 L169.110009,162.765 C169.110009,162.783 169.110009,162.803 169.107009,162.82 C169.101009,162.87 169.084009,162.917 169.061009,162.959 C169.035009,163.004 169,163.045 168.956009,163.076 C168.943009,163.086 168.930009,163.095 168.916009,163.102 L150.402009,173.79 L150.402009,216.773 C150.402009,216.98 150.234009,217.148 150.027009,217.148 C149.820009,217.148 149.652009,216.98 149.652009,216.773 L149.652009,174.223 L131.512009,184.694 L131.511009,184.695 C131.478009,184.715 131.442009,184.729 131.404009,184.738 C131.375009,184.745 131.347009,184.748 131.319009,184.748 C131.289009,184.748 131.258009,184.744 131.228009,184.737 C131.228009,184.737 131.227009,184.736 131.226009,184.736 C131.193009,184.727 131.161009,184.715 131.131009,184.698 L131.130009,184.697 C131.128009,184.696 131.126009,184.695 131.125009,184.694 L112.612009,174.006 L94.6540089,184.373 L131.502009,205.646 C131.509009,205.65 131.516009,205.654 131.522009,205.658 C131.577009,205.693 131.619009,205.74 131.648009,205.793 C131.672009,205.838 131.688009,205.888 131.692009,205.94 C131.694009,205.953 131.694009,205.967 131.694009,205.98 L131.694009,249.168 C131.694009,249.197 131.691009,249.227 131.685009,249.256 C131.672009,249.311 131.648009,249.362 131.614009,249.405 C131.586009,249.44 131.554009,249.469 131.518009,249.491 C131.468009,249.522 131.411009,249.543 131.349009,249.549 C131.339009,249.549 131.329009,249.549 131.319009,249.549 L131.319009,249.549 Z M150.027009,389.95 C149.820009,389.95 149.652009,389.782 149.652009,389.575 L149.652009,346.375 C149.652009,346.168 149.820009,346 150.027009,346 C150.234009,346 150.402009,346.168 150.402009,346.375 L150.402009,389.575 C150.402009,389.782 150.234009,389.95 150.027009,389.95 L150.027009,389.95 Z M75.9460089,324.774 L112.612009,345.942 L130.569009,335.574 L93.9040089,314.407 L75.9460089,324.774 Z M112.987009,346.592 L112.987009,367.325 L130.944009,356.958 L130.944009,336.224 L112.987009,346.592 Z M75.5710089,367.758 L112.237009,388.926 L112.237009,367.981 L112.237009,367.969 L112.237009,346.592 L75.5710089,325.424 L75.5710089,367.758 Z M112.612009,389.95 C112.584009,389.95 112.557009,389.947 112.530009,389.941 C112.490009,389.933 112.452009,389.917 112.417009,389.895 L75.0150089,368.303 C75.0020089,368.296 74.9900089,368.288 74.9780089,368.28 C74.9320089,368.247 74.8950089,368.205 74.8690089,368.158 C74.8430089,368.113 74.8270089,368.062 74.8220089,368.008 C74.8210089,367.995 74.8210089,367.981 74.8210089,367.968 L74.8210089,324.781 L74.8210089,324.774 C74.8210089,324.745 74.8240089,324.717 74.8310089,324.687 C74.8390089,324.65 74.8540089,324.615 74.8740089,324.583 C74.8890089,324.557 74.9080089,324.531 74.9300089,324.509 L74.9310089,324.509 L74.9320089,324.508 C74.9540089,324.486 74.9780089,324.468 75.0030089,324.452 C75.0070089,324.45 75.0110089,324.448 75.0150089,324.446 L93.7090089,313.654 C93.7240089,313.645 93.7400089,313.637 93.7550089,313.63 L93.7560089,313.63 C93.7560089,313.63 93.7570089,313.63 93.7570089,313.629 C93.8050089,313.609 93.8540089,313.6 93.9040089,313.6 C93.9550089,313.6 94.0050089,313.609 94.0530089,313.631 L94.0540089,313.631 L94.0550089,313.632 C94.0700089,313.638 94.0840089,313.645 94.0980089,313.653 L131.500009,335.246 C131.502009,335.247 131.505009,335.249 131.508009,335.251 L131.509009,335.251 C131.537009,335.268 131.562009,335.286 131.584009,335.31 C131.607009,335.332 131.625009,335.356 131.641009,335.383 C131.660009,335.414 131.674009,335.448 131.683009,335.483 C131.690009,335.514 131.694009,335.544 131.694009,335.574 L131.694009,335.581 L131.694009,357.168 C131.694009,357.182 131.694009,357.194 131.693009,357.208 C131.687009,357.264 131.670009,357.316 131.643009,357.363 C131.618009,357.407 131.583009,357.446 131.540009,357.477 C131.527009,357.487 131.514009,357.495 131.500009,357.503 L112.987009,368.191 L112.987009,389.567 C112.988009,389.609 112.982009,389.652 112.967009,389.694 C112.957009,389.727 112.942009,389.757 112.923009,389.784 C112.890009,389.833 112.847009,389.873 112.798009,389.9 C112.752009,389.927 112.701009,389.943 112.645009,389.948 C112.634009,389.95 112.623009,389.95 112.612009,389.95 L112.612009,389.95 Z M206.525009,163.423 L206.525009,183.724 L224.107009,173.573 L206.525009,163.423 Z M169.485009,184.373 L187.442009,194.741 L205.775009,184.156 L205.775009,163.423 L169.485009,184.373 Z M187.817009,195.391 L187.817009,216.124 L205.775009,205.757 L205.775009,185.022 L187.817009,195.391 Z M169.110009,185.022 L169.110009,226.924 L187.067009,216.557 L187.067009,195.391 L169.110009,185.022 Z M169.485009,227.573 L187.067009,237.725 L187.067009,217.423 L169.485009,227.573 Z M187.817009,216.99 L187.817009,237.725 L205.957009,227.252 C205.960009,227.25 205.964009,227.247 205.968009,227.245 L224.482009,216.557 L224.482009,174.223 L206.525009,184.59 L206.525009,205.967 C206.525009,205.98 206.525009,205.993 206.524009,206.006 C206.519009,206.064 206.500009,206.117 206.472009,206.165 C206.448009,206.208 206.414009,206.246 206.371009,206.276 C206.358009,206.286 206.345009,206.295 206.331009,206.302 L187.817009,216.99 Z M19.8340089,270.774 L37.4160089,280.925 L37.4160089,260.623 L19.8340089,270.774 Z M75.9460089,281.574 L93.5290089,291.725 L93.5290089,271.424 L75.9460089,281.574 Z M38.1660089,281.357 L56.4890089,291.941 L74.4460089,281.574 L56.3010089,271.1 C56.1220089,270.996 56.0600089,270.767 56.1640089,270.587 C56.2690089,270.408 56.5000089,270.349 56.6760089,270.449 L75.1960089,281.142 L93.1540089,270.774 L75.0130089,260.302 C74.9880089,260.287 74.9630089,260.27 74.9410089,260.249 C74.9020089,260.213 74.8710089,260.168 74.8510089,260.12 C74.8500089,260.12 74.8500089,260.12 74.8500089,260.119 C74.8310089,260.072 74.8210089,260.022 74.8210089,259.974 C74.8210089,259.925 74.8310089,259.875 74.8500089,259.828 C74.8500089,259.827 74.8500089,259.827 74.8510089,259.827 C74.8740089,259.774 74.9080089,259.727 74.9530089,259.688 C74.9710089,259.672 74.9910089,259.658 75.0110089,259.646 L93.1540089,249.174 L75.1960089,238.807 L38.1660089,260.19 L38.1660089,281.357 Z M19.4590089,292.157 L37.4160089,302.524 L37.4160089,281.791 L19.4590089,271.424 L19.4590089,292.157 Z M38.1660089,302.957 L56.1140089,313.325 L56.1140089,292.591 L38.1660089,282.224 L38.1660089,302.957 Z M112.987009,302.957 L130.944009,313.325 L130.944009,270.991 L112.987009,260.623 L112.987009,302.957 Z M131.694009,270.991 L131.694009,313.325 L149.652009,302.957 L149.652009,260.623 L131.694009,270.991 Z M56.8640089,292.591 L56.8640089,313.325 L93.1540089,292.374 L75.1960089,282.007 L56.8640089,292.591 Z M132.069009,313.975 L168.360009,334.925 L168.360009,270.991 L150.402009,260.623 L150.402009,303.167 C150.402009,303.181 150.402009,303.193 150.401009,303.206 C150.396009,303.264 150.377009,303.317 150.349009,303.365 C150.325009,303.408 150.291009,303.446 150.248009,303.477 C150.235009,303.486 150.222009,303.495 150.208009,303.502 L132.069009,313.975 Z M169.110009,270.991 L169.110009,334.925 L205.775009,313.758 L205.775009,270.774 C205.775009,270.567 205.943009,270.399 206.150009,270.399 C206.357009,270.399 206.525009,270.567 206.525009,270.774 L206.525009,313.325 L224.482009,302.957 L224.482009,239.023 L169.110009,270.991 Z M169.485009,335.574 L205.775009,356.525 L205.775009,314.624 L169.485009,335.574 Z M206.150009,400.75 C205.943009,400.75 205.775009,400.582 205.775009,400.375 L205.775009,357.392 L168.552009,335.901 C168.549009,335.9 168.547009,335.899 168.545009,335.897 L168.544009,335.897 C168.543009,335.897 168.543009,335.896 168.543009,335.896 L131.135009,314.302 C131.133009,314.301 131.131009,314.3 131.129009,314.298 L131.128009,314.298 C131.127009,314.297 131.126009,314.297 131.125009,314.296 L112.431009,303.502 C112.426009,303.5 112.421009,303.497 112.417009,303.494 L93.9040089,292.807 L56.6830089,314.295 C56.6800089,314.297 56.6770089,314.299 56.6740089,314.301 C56.6440089,314.317 56.6110089,314.331 56.5760089,314.34 L56.5740089,314.34 C56.5450089,314.347 56.5150089,314.348 56.4890089,314.35 C56.4540089,314.35 56.4180089,314.345 56.3840089,314.335 C56.3540089,314.326 56.3260089,314.313 56.2990089,314.298 L56.2980089,314.298 C56.2970089,314.297 56.2970089,314.297 56.2960089,314.297 L38.1660089,303.823 L38.1660089,346.375 C38.1660089,346.582 37.9980089,346.75 37.7910089,346.75 C37.5840089,346.75 37.4160089,346.582 37.4160089,346.375 L37.4160089,303.391 L18.9010089,292.701 C18.8920089,292.696 18.8830089,292.691 18.8750089,292.686 C18.8250089,292.652 18.7860089,292.608 18.7570089,292.559 C18.7310089,292.513 18.7140089,292.462 18.7090089,292.407 C18.7090089,292.395 18.7090089,292.381 18.7090089,292.367 L18.7090089,270.781 L18.7090089,270.774 C18.7090089,270.745 18.7090089,270.717 18.7180089,270.688 C18.7270089,270.65 18.7420089,270.615 18.7610089,270.583 C18.7770089,270.557 18.7950089,270.531 18.8180089,270.509 L18.8190089,270.509 L18.8200089,270.508 C18.8410089,270.486 18.8660089,270.468 18.8910089,270.452 C18.8950089,270.45 18.8990089,270.448 18.9030089,270.446 L37.4160089,259.757 L37.4160089,216.773 C37.4160089,216.566 37.5840089,216.398 37.7910089,216.398 C37.9980089,216.398 38.1660089,216.566 38.1660089,216.773 L38.1660089,259.324 L75.0000089,238.054 C75.0180089,238.043 75.0360089,238.034 75.0530089,238.027 C75.0540089,238.026 75.0540089,238.026 75.0550089,238.026 C75.1010089,238.008 75.1440089,237.99 75.1960089,237.999 C75.2480089,237.999 75.2990089,238.01 75.3480089,238.031 C75.3490089,238.031 75.3490089,238.032 75.3500089,238.032 C75.3640089,238.038 75.3760089,238.045 75.3890089,238.053 L94.0860089,248.846 C94.1170089,248.863 94.1450089,248.884 94.1690089,248.909 C94.1700089,248.909 94.1700089,248.91 94.1700089,248.91 C94.1700089,248.91 94.1710089,248.91 94.1710089,248.911 C94.2010089,248.94 94.2240089,248.975 94.2420089,249.012 C94.2670089,249.064 94.2790089,249.119 94.2790089,249.174 C94.2790089,249.228 94.2670089,249.284 94.2420089,249.336 C94.2250089,249.371 94.2040089,249.403 94.1760089,249.432 C94.1490089,249.46 94.1190089,249.483 94.0850089,249.502 L75.9460089,259.974 L94.0840089,270.446 C94.0860089,270.446 94.0870089,270.447 94.0890089,270.448 C94.1210089,270.467 94.1500089,270.489 94.1760089,270.517 C94.1770089,270.518 94.1770089,270.518 94.1780089,270.519 C94.1970089,270.538 94.2120089,270.56 94.2260089,270.583 C94.2430089,270.61 94.2550089,270.641 94.2640089,270.672 C94.2750089,270.708 94.2800089,270.744 94.2790089,270.781 L94.2790089,292.157 L112.237009,302.524 L112.237009,259.979 C112.236009,259.947 112.240009,259.915 112.248009,259.883 C112.259009,259.836 112.280009,259.792 112.308009,259.754 C112.341009,259.707 112.384009,259.67 112.433009,259.644 C112.472009,259.622 112.516009,259.608 112.563009,259.602 C112.611009,259.596 112.664009,259.6 112.712009,259.612 L112.713009,259.612 C112.747009,259.622 112.777009,259.636 112.805009,259.652 L131.319009,270.342 L149.835009,259.651 C149.836009,259.65 149.837009,259.65 149.838009,259.649 L149.839009,259.648 C149.859009,259.638 149.878009,259.629 149.899009,259.621 C149.900009,259.621 149.901009,259.62 149.901009,259.62 C149.942009,259.605 149.985009,259.599 150.027009,259.599 C150.070009,259.599 150.112009,259.605 150.153009,259.62 C150.154009,259.62 150.154009,259.621 150.154009,259.621 L150.155009,259.621 C150.175009,259.628 150.194009,259.637 150.212009,259.647 C150.214009,259.648 150.216009,259.65 150.218009,259.651 L168.735009,270.342 L224.107009,238.374 L206.150009,228.006 L187.635009,238.695 C187.629009,238.699 187.624009,238.702 187.618009,238.705 C187.601009,238.715 187.583009,238.723 187.564009,238.728 C187.524009,238.742 187.483009,238.749 187.442009,238.749 C187.400009,238.749 187.359009,238.742 187.318009,238.728 C187.318009,238.727 187.318009,238.727 187.317009,238.727 C187.298009,238.721 187.280009,238.713 187.262009,238.703 C187.262009,238.703 187.261009,238.703 187.261009,238.702 C187.257009,238.7 187.252009,238.698 187.249009,238.695 L168.554009,227.901 C168.551009,227.9 168.548009,227.898 168.545009,227.896 C168.518009,227.881 168.493009,227.862 168.470009,227.839 C168.470009,227.839 168.469009,227.839 168.469009,227.838 C168.447009,227.815 168.428009,227.791 168.413009,227.765 C168.393009,227.732 168.378009,227.697 168.370009,227.66 C168.363009,227.632 168.360009,227.602 168.360009,227.573 L168.360009,227.566 L168.360009,184.38 L168.360009,184.374 C168.360009,184.344 168.364009,184.313 168.371009,184.282 C168.380009,184.245 168.395009,184.21 168.415009,184.178 C168.427009,184.156 168.443009,184.136 168.460009,184.117 C168.485009,184.091 168.513009,184.068 168.542009,184.051 C168.546009,184.049 168.550009,184.046 168.555009,184.044 L205.959009,162.451 C205.959009,162.45 205.960009,162.45 205.961009,162.449 L205.962009,162.448 C205.983009,162.436 206.005009,162.427 206.028009,162.419 C206.028009,162.419 206.030009,162.419 206.030009,162.418 C206.069009,162.405 206.110009,162.398 206.150009,162.398 C206.193009,162.398 206.235009,162.405 206.276009,162.42 C206.277009,162.42 206.277009,162.421 206.277009,162.421 L206.278009,162.421 C206.295009,162.427 206.312009,162.435 206.328009,162.443 C206.333009,162.446 206.337009,162.449 206.342009,162.452 L225.038009,173.245 C225.041009,173.246 225.043009,173.248 225.046009,173.25 L225.047009,173.25 C225.074009,173.266 225.098009,173.285 225.121009,173.307 C225.122009,173.307 225.122009,173.308 225.122009,173.308 L225.123009,173.308 C225.145009,173.331 225.166009,173.357 225.181009,173.385 C225.199009,173.415 225.212009,173.448 225.221009,173.482 C225.228009,173.513 225.232009,173.543 225.232009,173.573 L225.232009,173.58 L225.232009,216.767 C225.232009,216.78 225.232009,216.793 225.232009,216.806 C225.226009,216.863 225.208009,216.917 225.179009,216.965 C225.155009,217.008 225.121009,217.046 225.078009,217.076 C225.065009,217.086 225.052009,217.095 225.038009,217.102 L206.900009,227.573 L225.038009,238.046 C225.043009,238.049 225.048009,238.052 225.054009,238.055 C225.074009,238.067 225.092009,238.081 225.110009,238.097 C225.110009,238.098 225.111009,238.098 225.111009,238.098 C225.138009,238.123 225.162009,238.151 225.179009,238.183 C225.200009,238.216 225.214009,238.253 225.223009,238.292 C225.229009,238.319 225.232009,238.347 225.232009,238.374 L225.232009,238.381 L225.232009,303.167 C225.232009,303.18 225.232009,303.192 225.232009,303.205 C225.226009,303.263 225.208009,303.317 225.179009,303.365 C225.154009,303.408 225.120009,303.446 225.078009,303.477 C225.065009,303.486 225.052009,303.495 225.038009,303.502 L206.525009,314.191 L206.525009,357.169 L206.525009,357.182 L206.525009,400.375 C206.525009,400.582 206.357009,400.75 206.150009,400.75 L206.150009,400.75 Z" id="Fill-13" fill="#F25300" mask="url(#mask-2)"></path>
                </g>
            </g>
        </g>
    </g>
</svg>