<?xml version="1.0" encoding="UTF-8"?>
<svg width="2114px" height="697px" viewBox="0 0 2114 697" version="1.1" xmlns="http://www.w3.org/2000/svg" xmlns:xlink="http://www.w3.org/1999/xlink">
    <title>Group 2</title>
    <g id="Page-1" stroke="none" stroke-width="1" fill="none" fill-rule="evenodd">
        <g id="assets" transform="translate(344.000000, -115.000000)" fill="#F25300">
            <g id="Group-2" transform="translate(-343.550207, 115.129467)">
                <g id="geometric-pattern" transform="translate(1769.407059, 252.870533) rotate(-270.000000) translate(-1769.407059, -252.870533) translate(1516.536526, -90.679675)">
                    <path d="M297.403464,294.752066 L228.281531,392.505801 L297.401967,490.25804 L366.525396,392.505801 L297.403464,294.752066 Z M227.898377,392.613564 L227.822046,392.505801 L297.250801,294.319521 L297.403464,294.103996 L366.907054,392.396543 L366.983385,392.505801 L297.556127,490.690586 L297.401967,490.90611 L227.898377,392.613564 Z" id="Fill-1"></path>
                    <path d="M395.122775,294.615268 L297.500749,294.615268 L228.413241,392.318116 L326.035267,392.318116 L395.122775,294.615268 Z M297.250801,294.320419 L297.306178,294.241094 L395.84568,294.241094 L326.285215,392.614462 L326.229837,392.69229 L227.690336,392.69229 L297.250801,294.320419 Z" id="Fill-2"></path>
                    <path d="M297.403464,98.5978723 L228.281531,196.351608 L297.401967,294.103847 L366.525396,196.350111 L297.403464,98.5978723 Z M227.898377,196.45937 L227.822046,196.351608 L297.250801,98.1653271 L297.403464,97.9498028 L366.907054,196.242349 L366.983385,196.350111 L297.556127,294.536392 L297.401967,294.751916 L227.898377,196.45937 Z" id="Fill-3"></path>
                    <path d="M326.035866,196.538545 L228.413839,196.538545 L297.499851,294.241393 L395.121877,294.241393 L326.035866,196.538545 Z M227.898976,196.45922 L227.690935,196.164371 L326.230436,196.164371 L395.636741,294.320718 L395.846278,294.615567 L297.30528,294.615567 L227.898976,196.45922 Z" id="Fill-4"></path>
                    <path d="M227.955401,392.692739 L130.331878,392.692739 L199.419387,490.395587 L297.041413,490.395587 L227.955401,392.692739 Z M129.818511,392.613414 L129.608974,392.318565 L228.148475,392.318565 L297.556276,490.474912 L297.764317,490.769761 L199.224816,490.769761 L129.818511,392.613414 Z" id="Fill-5"></path>
                    <path d="M228.052686,196.675194 L158.930754,294.428929 L228.05119,392.182665 L297.173122,294.428929 L228.052686,196.675194 Z M158.5476,294.536691 L158.471268,294.428929 L227.900023,196.244145 L228.052686,196.027124 L297.556276,294.31967 L297.632608,294.428929 L228.205349,392.613713 L228.05119,392.829238 L158.5476,294.536691 Z" id="Fill-6"></path>
                    <path d="M297.040964,294.615268 L199.418938,294.615268 L130.332926,392.318116 L227.954952,392.318116 L297.040964,294.615268 Z M199.168989,294.320419 L199.224367,294.241094 L297.763868,294.241094 L228.2049,392.614462 L228.149523,392.69229 L129.608525,392.69229 L199.168989,294.320419 Z" id="Fill-7"></path>
                    <path d="M129.970725,196.675194 L60.848793,294.428929 L129.970725,392.182665 L199.092658,294.428929 L129.970725,196.675194 Z M60.4671354,294.536691 L60.3908039,294.428929 L129.818062,196.244145 L129.970725,196.027124 L199.474315,294.31967 L199.550647,294.428929 L130.123388,392.613713 L129.970725,392.829238 L60.4671354,294.536691 Z" id="Fill-8"></path>
                    <path d="M237.19361,98.5860484 L168.071678,196.339784 L237.19361,294.092023 L306.315543,196.339784 L237.19361,98.5860484 Z M167.69002,196.447546 L167.613689,196.339784 L237.040947,98.1535032 L237.19361,97.9379789 L306.6972,196.230525 L306.773532,196.339784 L237.346273,294.524568 L237.19361,294.740092 L167.69002,196.447546 Z" id="Fill-9"></path>
                    <path d="M129.908612,196.459669 L32.2850896,196.459669 L101.372598,294.162517 L198.994624,294.162517 L129.908612,196.459669 Z M31.7717227,196.380344 L31.5621852,196.085495 L130.101686,196.085495 L199.507991,294.240345 L199.717529,294.536691 L101.178027,294.536691 L31.7717227,196.380344 Z" id="Fill-10"></path>
                    <path d="M198.994175,294.536392 L101.372149,294.536392 L32.2846405,392.23924 L129.908163,392.23924 L198.994175,294.536392 Z M101.122201,294.241543 L101.177578,294.162218 L199.71708,294.162218 L130.158112,392.535586 L130.102734,392.613414 L31.5617362,392.613414 L101.122201,294.241543 Z" id="Fill-11"></path>
                    <path d="M395.860198,490.946371 L326.738265,588.700107 L395.860198,686.453842 L464.98213,588.69861 L395.860198,490.946371 Z M326.355111,588.807869 L326.278779,588.700107 L395.707535,490.513826 L395.860198,490.298301 L465.363788,588.590848 L465.440119,588.69861 L396.012861,686.884891 L395.860198,687.100415 L326.355111,588.807869 Z" id="Fill-14"></path>
                    <path d="M424.492599,588.887194 L326.870573,588.887194 L395.956585,686.590041 L493.578611,686.590041 L424.492599,588.887194 Z M326.35571,588.807869 L326.147669,588.513019 L424.68717,588.513019 L494.093475,686.669366 L494.303012,686.964216 L395.762014,686.964216 L326.35571,588.807869 Z" id="Fill-15"></path>
                    <path d="M335.650344,490.934697 L266.528412,588.688432 L335.648848,686.440671 L404.772277,588.688432 L335.650344,490.934697 Z M266.145258,588.796194 L266.068926,588.688432 L335.497681,490.502152 L335.650344,490.286627 L405.153934,588.579173 L405.230266,588.688432 L335.803007,686.873216 L335.648848,687.088741 L266.145258,588.796194 Z" id="Fill-19"></path>
                    <path d="M228.364748,588.808318 L130.742721,588.808318 L199.828733,686.511166 L297.450759,686.511166 L228.364748,588.808318 Z M130.227858,588.728993 L130.019817,588.434144 L228.559318,588.434144 L297.965623,686.588994 L298.173664,686.88534 L199.634163,686.88534 L130.227858,588.728993 Z" id="Fill-20"></path>
                    <path d="M265.514699,0.374174114 L167.892673,0.374174114 L98.8051648,98.077022 L196.427191,98.077022 L265.514699,0.374174114 Z M167.642725,0.0793249121 L167.698103,-2.27373675e-13 L266.237604,-2.27373675e-13 L196.677139,98.3733679 L196.621762,98.4511961 L98.0822604,98.4511961 L167.642725,0.0793249121 Z" id="Fill-22"></path>
                    <path d="M98.3464273,98.4516451 L0.724401084,98.4516451 L69.8104127,196.154493 L167.432439,196.154493 L98.3464273,98.4516451 Z M0.209537504,98.3723202 L4.26325641e-14,98.077471 L98.5409979,98.077471 L167.947303,196.232321 L168.15684,196.528667 L69.6158422,196.528667 L0.209537504,98.3723202 Z" id="Fill-25"></path>
                    <path d="M167.432738,0.374174114 L69.8107121,0.374174114 L0.723203727,98.077022 L98.34523,98.077022 L167.432738,0.374174114 Z M69.5607638,0.0793249121 L69.6161415,0 L168.155643,0 L98.5951783,98.3733679 L98.5398005,98.4511961 L0.00029933929,98.4511961 L69.5607638,0.0793249121 Z" id="Fill-27"></path>
                    <polygon id="Fill-29" points="107.584637 196.658431 107.7373 196.442906 177.166055 98.2566255 177.088226 98.1488634 107.7373 0.0718414298 107.431973 0.288862416 176.706569 98.2566255 107.584637 196.010361 38.3863726 98.1503601 38.0810466 98.3658844"></polygon>
                    <path d="M129.921035,392.8463 L60.7991027,490.601532 L129.921035,588.353771 L199.042967,490.600035 L129.921035,392.8463 Z M60.4174451,490.709294 L60.3411136,490.601532 L129.768372,392.413755 L129.921035,392.19823 L199.424625,490.490777 L199.500957,490.600035 L130.073698,588.78482 L129.921035,589.000344 L60.4174451,490.709294 Z" id="Fill-34"></path>
                    <path d="M158.554185,490.787871 L60.932159,490.787871 L130.018171,588.489222 L227.640197,588.489222 L158.554185,490.787871 Z M60.4172954,490.708546 L60.2077579,490.413697 L158.748756,490.413697 L228.15506,588.568547 L228.364598,588.863396 L129.8236,588.863396 L60.4172954,490.708546 Z" id="Fill-35"></path>
                    <path d="M407.297653,336.023471 L338.17572,433.778703 L407.297653,531.530942 L476.419585,433.777206 L407.297653,336.023471 Z M337.794063,433.886465 L337.717731,433.778703 L407.144989,335.590925 L407.297653,335.375401 L476.801242,433.667947 L476.877574,433.777206 L407.450316,531.963487 L407.297653,532.179011 L337.794063,433.886465 Z" id="Fill-42"></path>
                    <path d="M407.297653,139.869277 L338.17572,237.624509 L407.297653,335.376748 L476.419585,237.623013 L407.297653,139.869277 Z M337.794063,237.732271 L337.717731,237.624509 L407.144989,139.438228 L407.297653,139.221208 L476.801242,237.513754 L476.877574,237.623013 L407.450316,335.807797 L407.297653,336.023321 L337.794063,237.732271 Z" id="Fill-43"></path>
                    <path d="M435.930653,237.810848 L338.308627,237.810848 L407.394638,335.512199 L505.016665,335.512199 L435.930653,237.810848 Z M337.793763,237.731523 L337.584226,237.436674 L436.125224,237.436674 L505.531528,335.591524 L505.741066,335.886373 L407.200068,335.886373 L337.793763,237.731523 Z" id="Fill-44"></path>
                    <path d="M337.946726,237.947496 L268.824793,335.701232 L337.946726,433.453471 L407.068658,335.701232 L337.946726,237.947496 Z M268.443136,335.808994 L268.365307,335.701232 L337.794063,237.514951 L337.946726,237.299427 L407.450316,335.591973 L407.526647,335.701232 L338.099389,433.886016 L337.946726,434.10154 L268.443136,335.808994 Z" id="Fill-45"></path>
                    <path d="M406.935901,335.887571 L309.312378,335.887571 L240.226366,433.590418 L337.848393,433.590418 L406.935901,335.887571 Z M309.06243,335.592721 L309.119304,335.513397 L407.658805,335.513397 L338.098341,433.886764 L338.042963,433.964593 L239.503462,433.964593 L309.06243,335.592721 Z" id="Fill-46"></path>
                    <path d="M347.088398,336.016885 L277.966466,433.772117 L347.088398,531.524356 L416.208834,433.770621 L347.088398,336.016885 Z M277.584808,433.87988 L277.50698,433.772117 L346.935735,335.58434 L347.088398,335.368816 L416.591988,433.661362 L416.668319,433.770621 L347.241061,531.956902 L347.088398,532.172426 L277.584808,433.87988 Z" id="Fill-47"></path>
                    <path d="M159.262572,238.141917 L90.1406393,335.895653 L159.262572,433.649388 L228.384504,335.895653 L159.262572,238.141917 Z M89.7574851,336.003415 L89.6826502,335.895653 L159.108412,237.709372 L159.262572,237.493848 L228.767658,335.786394 L228.84399,335.895653 L159.415235,434.080437 L159.262572,434.295961 L89.7574851,336.003415 Z" id="Fill-48"></path>
                    <path d="M239.802801,237.731972 L142.179278,237.731972 L211.266787,335.43482 L308.888813,335.43482 L239.802801,237.731972 Z M141.664415,237.652647 L141.456374,237.357798 L239.997372,237.357798 L309.403677,335.514145 L309.613214,335.808994 L211.072216,335.808994 L141.664415,237.652647 Z" id="Fill-49"></path>
                </g>
                <g id="geometric-pattern" transform="translate(343.550207, 424.870533) rotate(-270.000000) translate(-343.550207, -424.870533) translate(71.743097, 81.320325)">
                    <path d="M335.276619,294.752066 L266.154687,392.505801 L335.275122,490.25804 L404.398551,392.505801 L335.276619,294.752066 Z M265.771532,392.613564 L265.695201,392.505801 L335.123956,294.319521 L335.276619,294.103996 L404.780209,392.396543 L404.856541,392.505801 L335.429282,490.690586 L335.275122,490.90611 L265.771532,392.613564 Z" id="Fill-1"></path>
                    <path d="M432.995931,294.615268 L335.373904,294.615268 L266.286396,392.318116 L363.908422,392.318116 L432.995931,294.615268 Z M335.123956,294.320419 L335.179334,294.241094 L433.718835,294.241094 L364.158371,392.614462 L364.102993,392.69229 L265.563492,392.69229 L335.123956,294.320419 Z" id="Fill-2"></path>
                    <path d="M335.276619,98.5978723 L266.154687,196.351608 L335.275122,294.103847 L404.398551,196.350111 L335.276619,98.5978723 Z M265.771532,196.45937 L265.695201,196.351608 L335.123956,98.1653271 L335.276619,97.9498028 L404.780209,196.242349 L404.856541,196.350111 L335.429282,294.536392 L335.275122,294.751916 L265.771532,196.45937 Z" id="Fill-3"></path>
                    <path d="M363.909021,196.538545 L266.286995,196.538545 L335.373006,294.241393 L432.995033,294.241393 L363.909021,196.538545 Z M265.772131,196.45922 L265.56409,196.164371 L364.103592,196.164371 L433.509896,294.320718 L433.719434,294.615567 L335.178436,294.615567 L265.772131,196.45922 Z" id="Fill-4"></path>
                    <path d="M265.828557,392.692739 L168.205034,392.692739 L237.292542,490.395587 L334.914568,490.395587 L265.828557,392.692739 Z M167.691667,392.613414 L167.482129,392.318565 L266.02163,392.318565 L335.429432,490.474912 L335.637473,490.769761 L237.097971,490.769761 L167.691667,392.613414 Z" id="Fill-5"></path>
                    <path d="M265.925842,196.675194 L196.80391,294.428929 L265.924345,392.182665 L335.046278,294.428929 L265.925842,196.675194 Z M196.420755,294.536691 L196.344424,294.428929 L265.773179,196.244145 L265.925842,196.027124 L335.429432,294.31967 L335.505763,294.428929 L266.078505,392.613713 L265.924345,392.829238 L196.420755,294.536691 Z" id="Fill-6"></path>
                    <path d="M334.914119,294.615268 L237.292093,294.615268 L168.206081,392.318116 L265.828108,392.318116 L334.914119,294.615268 Z M237.042145,294.320419 L237.097522,294.241094 L335.637024,294.241094 L266.078056,392.614462 L266.022678,392.69229 L167.48168,392.69229 L237.042145,294.320419 Z" id="Fill-7"></path>
                    <path d="M167.843881,196.675194 L98.7219485,294.428929 L167.843881,392.182665 L236.965813,294.428929 L167.843881,196.675194 Z M98.3402909,294.536691 L98.2639594,294.428929 L167.691218,196.244145 L167.843881,196.027124 L237.347471,294.31967 L237.423802,294.428929 L167.996544,392.613713 L167.843881,392.829238 L98.3402909,294.536691 Z" id="Fill-8"></path>
                    <path d="M275.066766,98.5860484 L205.944833,196.339784 L275.066766,294.092023 L344.188698,196.339784 L275.066766,98.5860484 Z M205.563176,196.447546 L205.486844,196.339784 L274.914103,98.1535032 L275.066766,97.9379789 L344.570356,196.230525 L344.646687,196.339784 L275.219429,294.524568 L275.066766,294.740092 L205.563176,196.447546 Z" id="Fill-9"></path>
                    <path d="M167.781768,196.459669 L70.158245,196.459669 L139.245753,294.162517 L236.86778,294.162517 L167.781768,196.459669 Z M69.6448781,196.380344 L69.4353406,196.085495 L167.974842,196.085495 L237.381146,294.240345 L237.590684,294.536691 L139.051183,294.536691 L69.6448781,196.380344 Z" id="Fill-10"></path>
                    <path d="M236.867331,294.536392 L139.245304,294.536392 L70.157796,392.23924 L167.781319,392.23924 L236.867331,294.536392 Z M138.995356,294.241543 L139.050734,294.162218 L237.590235,294.162218 L168.031267,392.535586 L167.975889,392.613414 L69.4348916,392.613414 L138.995356,294.241543 Z" id="Fill-11"></path>
                    <path d="M433.733353,490.946371 L364.611421,588.700107 L433.733353,686.453842 L502.855285,588.69861 L433.733353,490.946371 Z M364.228266,588.807869 L364.151935,588.700107 L433.58069,490.513826 L433.733353,490.298301 L503.236943,588.590848 L503.313274,588.69861 L433.886016,686.884891 L433.733353,687.100415 L364.228266,588.807869 Z" id="Fill-14"></path>
                    <path d="M462.365755,588.887194 L364.743729,588.887194 L433.82974,686.590041 L531.451766,686.590041 L462.365755,588.887194 Z M364.228865,588.807869 L364.020824,588.513019 L462.560325,588.513019 L531.96663,686.669366 L532.176168,686.964216 L433.63517,686.964216 L364.228865,588.807869 Z" id="Fill-15"></path>
                    <path d="M373.5235,490.934697 L304.401567,588.688432 L373.522003,686.440671 L442.645432,588.688432 L373.5235,490.934697 Z M304.018413,588.796194 L303.942082,588.688432 L373.370837,490.502152 L373.5235,490.286627 L443.02709,588.579173 L443.103421,588.688432 L373.676163,686.873216 L373.522003,687.088741 L304.018413,588.796194 Z" id="Fill-19"></path>
                    <path d="M266.237903,588.808318 L168.615877,588.808318 L237.701889,686.511166 L335.323915,686.511166 L266.237903,588.808318 Z M168.101013,588.728993 L167.892972,588.434144 L266.432474,588.434144 L335.838778,686.588994 L336.046819,686.88534 L237.507318,686.88534 L168.101013,588.728993 Z" id="Fill-20"></path>
                    <path d="M303.387855,0.374174114 L205.765829,0.374174114 L136.67832,98.077022 L234.300346,98.077022 L303.387855,0.374174114 Z M205.51588,0.0793249121 L205.571258,-5.68434189e-14 L304.110759,-5.68434189e-14 L234.550295,98.3733679 L234.494917,98.4511961 L135.955416,98.4511961 L205.51588,0.0793249121 Z" id="Fill-22"></path>
                    <path d="M136.219583,98.4516451 L38.5975565,98.4516451 L107.683568,196.154493 L205.305594,196.154493 L136.219583,98.4516451 Z M38.0826929,98.3723202 L37.8731554,98.077471 L136.414153,98.077471 L205.820458,196.232321 L206.029995,196.528667 L107.488998,196.528667 L38.0826929,98.3723202 Z" id="Fill-25"></path>
                    <path d="M205.305894,0.374174114 L107.683868,0.374174114 L38.5963592,98.077022 L136.218385,98.077022 L205.305894,0.374174114 Z M107.433919,0.0793249121 L107.489297,1.70530257e-13 L206.028798,1.70530257e-13 L136.468334,98.3733679 L136.412956,98.4511961 L37.8734548,98.4511961 L107.433919,0.0793249121 Z" id="Fill-27"></path>
                    <polygon id="Fill-29" points="145.457792 196.658431 145.610455 196.442906 215.03921 98.2566255 214.961382 98.1488634 145.610455 0.0718414298 145.305129 0.288862416 214.579724 98.2566255 145.457792 196.010361 76.2595281 98.1503601 75.954202 98.3658844"></polygon>
                    <path d="M167.794191,392.8463 L98.6722581,490.601532 L167.794191,588.353771 L236.916123,490.600035 L167.794191,392.8463 Z M98.2906006,490.709294 L98.214269,490.601532 L167.641527,392.413755 L167.794191,392.19823 L237.29778,490.490777 L237.374112,490.600035 L167.946854,588.78482 L167.794191,589.000344 L98.2906006,490.709294 Z" id="Fill-34"></path>
                    <path d="M196.427341,490.787871 L98.8053145,490.787871 L167.891326,588.489222 L265.513352,588.489222 L196.427341,490.787871 Z M98.2904509,490.708546 L98.0809134,490.413697 L196.621911,490.413697 L266.028216,588.568547 L266.237753,588.863396 L167.696756,588.863396 L98.2904509,490.708546 Z" id="Fill-35"></path>
                    <path d="M98.4434133,490.924519 L29.3214809,588.678255 L98.4434133,686.43199 L167.565346,588.678255 L98.4434133,490.924519 Z M28.9398233,588.786017 L28.8619951,588.678255 L98.2907502,490.491974 L98.4434133,490.27645 L167.947003,588.568996 L168.023335,588.678255 L98.5960763,686.863039 L98.4434133,687.078563 L28.9398233,588.786017 Z" id="Fill-36"></path>
                    <path d="M167.432439,588.864593 L69.808916,588.864593 L0.722904388,686.567441 L98.3449306,686.567441 L167.432439,588.864593 Z M69.5589677,588.569744 L69.6158422,588.490419 L168.155343,588.490419 L98.5948789,686.863787 L98.5395012,686.941615 L0,686.941615 L69.5589677,588.569744 Z" id="Fill-37"></path>
                    <path d="M445.170808,336.023471 L376.048876,433.778703 L445.170808,531.530942 L514.29274,433.777206 L445.170808,336.023471 Z M375.667218,433.886465 L375.590886,433.778703 L445.018145,335.590925 L445.170808,335.375401 L514.674398,433.667947 L514.750729,433.777206 L445.323471,531.963487 L445.170808,532.179011 L375.667218,433.886465 Z" id="Fill-42"></path>
                    <path d="M445.170808,139.869277 L376.048876,237.624509 L445.170808,335.376748 L514.29274,237.623013 L445.170808,139.869277 Z M375.667218,237.732271 L375.590886,237.624509 L445.018145,139.438228 L445.170808,139.221208 L514.674398,237.513754 L514.750729,237.623013 L445.323471,335.807797 L445.170808,336.023321 L375.667218,237.732271 Z" id="Fill-43"></path>
                    <path d="M473.803808,237.810848 L376.181782,237.810848 L445.267794,335.512199 L542.88982,335.512199 L473.803808,237.810848 Z M375.666919,237.731523 L375.457381,237.436674 L473.998379,237.436674 L543.404684,335.591524 L543.614221,335.886373 L445.073223,335.886373 L375.666919,237.731523 Z" id="Fill-44"></path>
                    <path d="M375.819881,237.947496 L306.697949,335.701232 L375.819881,433.453471 L444.941813,335.701232 L375.819881,237.947496 Z M306.316291,335.808994 L306.238463,335.701232 L375.667218,237.514951 L375.819881,237.299427 L445.323471,335.591973 L445.399803,335.701232 L375.972544,433.886016 L375.819881,434.10154 L306.316291,335.808994 Z" id="Fill-45"></path>
                    <path d="M444.809056,335.887571 L347.185533,335.887571 L278.099522,433.590418 L375.721548,433.590418 L444.809056,335.887571 Z M346.935585,335.592721 L346.99246,335.513397 L445.531961,335.513397 L375.971496,433.886764 L375.916119,433.964593 L277.376617,433.964593 L346.935585,335.592721 Z" id="Fill-46"></path>
                    <path d="M384.961553,336.016885 L315.839621,433.772117 L384.961553,531.524356 L454.081989,433.770621 L384.961553,336.016885 Z M315.457963,433.87988 L315.380135,433.772117 L384.80889,335.58434 L384.961553,335.368816 L454.465143,433.661362 L454.541475,433.770621 L385.114216,531.956902 L384.961553,532.172426 L315.457963,433.87988 Z" id="Fill-47"></path>
                    <path d="M197.135727,238.141917 L128.013795,335.895653 L197.135727,433.649388 L266.257659,335.895653 L197.135727,238.141917 Z M127.63064,336.003415 L127.555806,335.895653 L196.981567,237.709372 L197.135727,237.493848 L266.640814,335.786394 L266.717145,335.895653 L197.28839,434.080437 L197.135727,434.295961 L127.63064,336.003415 Z" id="Fill-48"></path>
                    <path d="M277.675957,237.731972 L180.052434,237.731972 L249.139942,335.43482 L346.761968,335.43482 L277.675957,237.731972 Z M179.53757,237.652647 L179.329529,237.357798 L277.870527,237.357798 L347.276832,335.514145 L347.486369,335.808994 L248.945372,335.808994 L179.53757,237.652647 Z" id="Fill-49"></path>
                </g>
            </g>
        </g>
    </g>
</svg>