<?xml version="1.0" encoding="UTF-8"?>
<svg width="254px" height="55px" viewBox="0 0 254 55" version="1.1" xmlns="http://www.w3.org/2000/svg" xmlns:xlink="http://www.w3.org/1999/xlink">
    <title>logo</title>
    <defs>
        <path d="M5.5231625,14.9301625 C4.66909583,14.9301625 3.90233333,14.8293458 3.222875,14.6277125 C2.54341667,14.4260792 1.94028958,14.132925 1.41349375,13.74825 C0.886697917,13.363575 0.415533333,12.9023292 0,12.3645125 L1.900375,10.219475 C2.50853333,11.0357833 3.12205833,11.5866813 3.74095,11.8721688 C4.35984167,12.1576562 5.00029583,12.3004 5.6623125,12.3004 C5.9946625,12.3004 6.29462083,12.2567 6.5621875,12.1693 C6.82975417,12.0819 7.03871875,11.9552083 7.18908125,11.789225 C7.33944375,11.6232417 7.414625,11.4203625 7.414625,11.1805875 C7.414625,10.9950542 7.36900833,10.8287833 7.277775,10.681775 C7.18654167,10.5347667 7.0589875,10.4044333 6.8951125,10.290775 C6.7312375,10.1771167 6.54028958,10.075725 6.32226875,9.9866 C6.10424792,9.897475 5.87271458,9.8201375 5.62766875,9.7545875 C5.38262292,9.6890375 5.129,9.63000417 4.8668,9.5774875 C4.16223333,9.42147083 3.54703125,9.22601875 3.02119375,8.99113125 C2.49535625,8.75624375 2.05624792,8.46965417 1.70386875,8.1313625 C1.35148958,7.79307083 1.09029583,7.40705417 0.9202875,6.9733125 C0.750279167,6.53957083 0.665275,6.05197083 0.665275,5.5105125 C0.665275,4.93187083 0.796327083,4.40061875 1.05843125,3.91675625 C1.32053542,3.43289375 1.67559792,3.01611458 2.12361875,2.66641875 C2.57163958,2.31672292 3.08837292,2.04767083 3.67381875,1.8592625 C4.25926458,1.67085417 4.875425,1.57665 5.5223,1.57665 C6.36065,1.57665 7.084,1.66424167 7.69235,1.839425 C8.3007,2.01460833 8.82303958,2.26914167 9.25936875,2.603025 C9.69569792,2.93690833 10.0655667,3.33509583 10.368975,3.7975875 L8.4424375,5.6634625 C8.18292083,5.3431875 7.903375,5.07672292 7.6038,4.86406875 C7.304225,4.65141458 6.98625,4.49213958 6.649875,4.38624375 C6.3135,4.28034792 5.9685,4.2274 5.614875,4.2274 C5.249175,4.2274 4.93421875,4.2711 4.67000625,4.3585 C4.40579375,4.4459 4.19888958,4.57216042 4.04929375,4.73728125 C3.89969792,4.90240208 3.8249,5.10647917 3.8249,5.3495125 C3.8249,5.5507625 3.88628125,5.72704792 4.00904375,5.87836875 C4.13180625,6.02968958 4.29793333,6.16174792 4.507425,6.27454375 C4.71691667,6.38733958 4.95640417,6.48346042 5.2258875,6.56290625 C5.49537083,6.64235208 5.77424583,6.71005833 6.0625125,6.766025 C6.73717917,6.89904167 7.34883542,7.07551875 7.89748125,7.29545625 C8.44612708,7.51539375 8.9202625,7.78396667 9.3198875,8.101175 C9.7195125,8.41838333 10.0249812,8.79706875 10.2362938,9.23723125 C10.4476063,9.67739375 10.5532625,10.1816208 10.5532625,10.7499125 C10.5532625,11.6423125 10.3367271,12.3995875 9.90365625,13.0217375 C9.47058542,13.6438875 8.876275,14.1174958 8.120725,14.4425625 C7.365175,14.7676292 6.49932083,14.9301625 5.5231625,14.9301625 Z" id="path-1"></path>
        <path d="M17.2501774,14.9301625 C16.1720524,14.9301625 15.2337962,14.7132917 14.4354087,14.27955 C13.6370212,13.8458083 13.0183691,13.2521208 12.5794524,12.4984875 C12.1405358,11.7448542 11.9210774,10.8790958 11.9210774,9.9012125 C11.9210774,9.15467083 12.0437441,8.4686 12.2890774,7.843 C12.5344108,7.2174 12.8783087,6.6746 13.3207712,6.2146 C13.7632337,5.7546 14.2880649,5.39886667 14.8952649,5.1474 C15.5024649,4.89593333 16.1653441,4.7702 16.8839024,4.7702 C17.5658524,4.7702 18.1925066,4.89334583 18.7638649,5.1396375 C19.3352233,5.38592917 19.8290524,5.72992292 20.2453524,6.17161875 C20.6616524,6.61331458 20.9806816,7.13522292 21.2024399,7.73734375 C21.4241983,8.33946458 21.5253983,8.99539583 21.5060399,9.7051375 L21.4876399,10.49375 L13.6995524,10.49375 L13.2763524,8.847525 L19.0893149,8.847525 L18.7710524,9.19195 L18.7710524,8.8138875 C18.7555274,8.50760417 18.6646774,8.23548542 18.4985024,7.99753125 C18.3323274,7.75957708 18.1136358,7.57327708 17.8424274,7.43863125 C17.5712191,7.30398542 17.2657983,7.2366625 16.9261649,7.2366625 C16.4397149,7.2366625 16.0294524,7.33244792 15.6953774,7.52401875 C15.3613024,7.71558958 15.1076316,7.99202083 14.9343649,8.3533125 C14.7610983,8.71460417 14.6744649,9.15591667 14.6744649,9.67725 C14.6744649,10.2181333 14.7891295,10.6894417 15.0184587,11.091175 C15.2477879,11.4929083 15.5795629,11.8040792 16.0137837,12.0246875 C16.4480045,12.2452958 16.9672774,12.3556 17.5716024,12.3556 C17.9865608,12.3556 18.3572441,12.295225 18.6836524,12.174475 C19.0100608,12.053725 19.3596608,11.8446167 19.7324524,11.54715 L21.1222274,13.5030125 C20.7364024,13.8326792 20.3283441,14.1008688 19.8980524,14.3075813 C19.4677608,14.5142938 19.0305691,14.6697354 18.5864774,14.7739062 C18.1423858,14.8780771 17.6969524,14.9301625 17.2501774,14.9301625 Z" id="path-2"></path>
        <path d="M27.6700399,14.9301625 C26.7182233,14.9301625 25.868517,14.7093625 25.1209212,14.2677625 C24.3733254,13.8261625 23.7835191,13.2233229 23.3515024,12.4592438 C22.9194858,11.6951646 22.7034774,10.8267708 22.7034774,9.8540625 C22.7034774,8.88135417 22.9194858,8.01300833 23.3515024,7.249025 C23.7835191,6.48504167 24.3733254,5.88225 25.1209212,5.44065 C25.868517,4.99905 26.7182233,4.77825 27.6700399,4.77825 C28.5426983,4.77825 29.3440566,4.93014583 30.0741149,5.2339375 C30.8041733,5.53772917 31.3812816,5.96552917 31.8054399,6.5173375 L30.1968774,8.4389875 C30.0358774,8.2342875 29.8372629,8.047125 29.6010337,7.8775 C29.3648045,7.707875 29.1066295,7.57495417 28.8265087,7.4787375 C28.5463879,7.38252083 28.2504066,7.3344125 27.9385649,7.3344125 C27.4764566,7.3344125 27.0682066,7.44155417 26.7138149,7.6558375 C26.3594233,7.87012083 26.0825129,8.16710833 25.8830837,8.5468 C25.6836545,8.92649167 25.5839399,9.35879583 25.5839399,9.8437125 C25.5839399,10.3213458 25.684517,10.7487146 25.8856712,11.1258188 C26.0868254,11.5029229 26.365892,11.8034562 26.7228712,12.0274187 C27.0798504,12.2513813 27.4876691,12.3633625 27.9463274,12.3633625 C28.2635358,12.3633625 28.5556358,12.32225 28.8226274,12.240025 C29.0896191,12.1578 29.338642,12.0361875 29.5696962,11.8751875 C29.8007504,11.7141875 30.0098108,11.5200292 30.1968774,11.2927125 L31.7950899,13.225 C31.3672899,13.748825 30.7831858,14.163975 30.0427774,14.47045 C29.3023691,14.776925 28.5114566,14.9301625 27.6700399,14.9301625 Z" id="path-3"></path>
        <path d="M36.7436433,14.9408 C36.0214433,14.9408 35.404037,14.7848312 34.8914245,14.4728938 C34.378812,14.1609563 33.9862787,13.71145 33.7138245,13.124375 C33.4413703,12.5373 33.3051433,11.8310083 33.3051433,11.0055 L33.3051433,4.98065 L36.2566183,4.98065 L36.2566183,10.60645 C36.2566183,11.0016667 36.3209224,11.3396229 36.4495308,11.6203187 C36.5781391,11.9010146 36.7635766,12.1165438 37.0058433,12.2669063 C37.2481099,12.4172688 37.5415516,12.49245 37.8861683,12.49245 C38.1431933,12.49245 38.3784162,12.4517687 38.591837,12.3704062 C38.8052578,12.2890438 38.9894016,12.1722708 39.1442683,12.0200875 C39.2991349,11.8679042 39.4202683,11.6886479 39.5076683,11.4823188 C39.5950683,11.2759896 39.6387683,11.0538958 39.6387683,10.8160375 L39.6387683,4.98065 L42.5905308,4.98065 L42.5905308,14.7461625 L39.8184558,14.7461625 L39.6916683,12.74315 L40.2341808,12.52235 C40.0940724,12.9833083 39.8527162,13.3960146 39.510112,13.7604688 C39.1675078,14.1249229 38.7570058,14.4127583 38.2786058,14.623975 C37.8002058,14.8351917 37.2885516,14.9408 36.7436433,14.9408 Z" id="path-4"></path>
        <path d="M45.2189995,14.7461625 L45.2189995,4.98065 L48.0198245,4.98065 L48.146612,8.1537875 L47.592887,7.544575 C47.741812,7.02209167 47.9841266,6.55135833 48.3198308,6.132375 C48.6555349,5.71339167 49.0525724,5.38295833 49.5109433,5.141075 C49.9693141,4.89919167 50.4536078,4.77825 50.9638245,4.77825 C51.1794495,4.77825 51.3840537,4.79487708 51.577637,4.82813125 C51.7712203,4.86138542 51.9443912,4.90254583 52.0971495,4.9516125 L51.2938745,8.2061125 C51.1608578,8.13059583 50.9807391,8.06260208 50.7535183,8.00213125 C50.5262974,7.94166042 50.2881037,7.911425 50.038937,7.911425 C49.7711787,7.911425 49.5222516,7.95819167 49.2921558,8.051725 C49.0620599,8.14525833 48.8652183,8.27908958 48.7016308,8.45321875 C48.5380433,8.62734792 48.4099141,8.83123333 48.3172433,9.064875 C48.2245724,9.29851667 48.178237,9.56148333 48.178237,9.853775 L48.178237,14.7461625 L45.2189995,14.7461625 Z" id="path-5"></path>
        <path d="M53.7496411,14.7461625 L53.7496411,4.98065 L56.7011161,4.98065 L56.7011161,14.7461625 L53.7496411,14.7461625 Z M55.2190536,3.046925 C54.6662869,3.046925 54.2355161,2.91448333 53.9267411,2.6496 C53.6179661,2.38471667 53.4635786,2.0093375 53.4635786,1.5234625 C53.4635786,1.0761125 53.6210328,0.710364583 53.9359411,0.42621875 C54.2508494,0.142072917 54.6785536,0 55.2190536,0 C55.7716286,0 56.2023515,0.132441667 56.5112224,0.397325 C56.8200932,0.662208333 56.9745286,1.0375875 56.9745286,1.5234625 C56.9745286,1.97062083 56.8170265,2.33632083 56.5020224,2.6205625 C56.1870182,2.90480417 55.7593619,3.046925 55.2190536,3.046925 Z" id="path-6"></path>
        <path d="M60.2656669,14.7461625 L60.2656669,2.5044125 L63.2171419,2.5044125 L63.2171419,14.7461625 L60.2656669,14.7461625 Z M58.5346294,7.5601 L58.5346294,4.98065 L65.1028544,4.98065 L65.1028544,7.5601 L58.5346294,7.5601 Z" id="path-7"></path>
        <path d="M68.0185514,18.9781625 L70.2541514,13.74135 L70.2831889,15.25015 L65.5785389,4.98065 L68.9063514,4.98065 L70.9731889,9.8856875 C71.0837805,10.1352375 71.1872805,10.4015583 71.2836889,10.68465 C71.3800972,10.9677417 71.455518,11.2390458 71.5099514,11.4985625 L71.0948014,11.73575 C71.1647597,11.5484917 71.2475118,11.3172458 71.3430576,11.0420125 C71.4386035,10.7667792 71.5398514,10.4651917 71.6468014,10.13725 L73.4597764,4.98065 L76.8031139,4.98065 L72.6493139,14.7461625 L70.9588139,18.9781625 L68.0185514,18.9781625 Z" id="path-8"></path>
        <path d="M84.3998477,14.7461625 L84.3998477,1.8661625 L90.1998727,1.8661625 C91.0274893,1.8661625 91.7738872,2.04532292 92.4390664,2.40364375 C93.1042456,2.76196458 93.6278789,3.24913333 94.0099664,3.86515 C94.3920539,4.48116667 94.5830977,5.18257083 94.5830977,5.9693625 C94.5830977,6.7812625 94.3920539,7.50887708 94.0099664,8.15220625 C93.6278789,8.79553542 93.1055393,9.30163125 92.4429477,9.67049375 C91.780356,10.0393563 91.0326643,10.2237875 90.1998727,10.2237875 L87.3797852,10.2237875 L87.3797852,14.7461625 L84.3998477,14.7461625 Z M91.5364602,14.7461625 L88.2612602,8.9317625 L91.4657352,8.4717625 L95.1089352,14.753925 L91.5364602,14.7461625 Z M87.3797852,7.8243125 L89.9189852,7.8243125 C90.2465435,7.8243125 90.5285331,7.7530125 90.7649539,7.6104125 C91.0013747,7.4678125 91.1834581,7.2700125 91.3112039,7.0170125 C91.4389497,6.7640125 91.5028227,6.47200833 91.5028227,6.141 C91.5028227,5.80328333 91.4297977,5.51060833 91.2837477,5.262975 C91.1376977,5.01534167 90.9260018,4.82242917 90.6486602,4.6842375 C90.3713185,4.54604583 90.0408852,4.47695 89.6573602,4.47695 L87.3797852,4.47695 L87.3797852,7.8243125 Z" id="path-9"></path>
        <path d="M101.293033,14.9301625 C100.214908,14.9301625 99.276652,14.7132917 98.4782645,14.27955 C97.679877,13.8458083 97.0612249,13.2521208 96.6223082,12.4984875 C96.1833915,11.7448542 95.9639332,10.8790958 95.9639332,9.9012125 C95.9639332,9.15467083 96.0865999,8.4686 96.3319332,7.843 C96.5772665,7.2174 96.9211645,6.6746 97.363627,6.2146 C97.8060895,5.7546 98.3309207,5.39886667 98.9381207,5.1474 C99.5453207,4.89593333 100.2082,4.7702 100.926758,4.7702 C101.608708,4.7702 102.235362,4.89334583 102.806721,5.1396375 C103.378079,5.38592917 103.871908,5.72992292 104.288208,6.17161875 C104.704508,6.61331458 105.023537,7.13522292 105.245296,7.73734375 C105.467054,8.33946458 105.568254,8.99539583 105.548896,9.7051375 L105.530496,10.49375 L97.7424082,10.49375 L97.3192082,8.847525 L103.132171,8.847525 L102.813908,9.19195 L102.813908,8.8138875 C102.798383,8.50760417 102.707533,8.23548542 102.541358,7.99753125 C102.375183,7.75957708 102.156492,7.57327708 101.885283,7.43863125 C101.614075,7.30398542 101.308654,7.2366625 100.969021,7.2366625 C100.482571,7.2366625 100.072308,7.33244792 99.7382332,7.52401875 C99.4041582,7.71558958 99.1504874,7.99202083 98.9772207,8.3533125 C98.803954,8.71460417 98.7173207,9.15591667 98.7173207,9.67725 C98.7173207,10.2181333 98.8319853,10.6894417 99.0613145,11.091175 C99.2906436,11.4929083 99.6224186,11.8040792 100.056639,12.0246875 C100.49086,12.2452958 101.010133,12.3556 101.614458,12.3556 C102.029417,12.3556 102.4001,12.295225 102.726508,12.174475 C103.052917,12.053725 103.402517,11.8446167 103.775308,11.54715 L105.165083,13.5030125 C104.779258,13.8326792 104.3712,14.1008688 103.940908,14.3075813 C103.510617,14.5142938 103.073425,14.6697354 102.629333,14.7739062 C102.185242,14.8780771 101.739808,14.9301625 101.293033,14.9301625 Z" id="path-10"></path>
        <path d="M110.723896,14.9301625 C109.766521,14.9301625 108.922277,14.7767813 108.191164,14.4700188 C107.460052,14.1632562 106.876283,13.7515083 106.439858,13.234775 L108.235008,11.6975125 C108.617,12.0775875 109.04686,12.3556479 109.524589,12.5316937 C110.002319,12.7077396 110.457287,12.7957625 110.889496,12.7957625 C111.054137,12.7957625 111.20335,12.7787042 111.337133,12.7445875 C111.470917,12.7104708 111.583664,12.6576188 111.675377,12.5860313 C111.767089,12.5144437 111.837431,12.4318833 111.886402,12.33835 C111.935373,12.2448167 111.959858,12.1377708 111.959858,12.0172125 C111.959858,11.7757125 111.853867,11.58855 111.641883,11.455725 C111.526308,11.3909417 111.3402,11.3152333 111.083558,11.2286 C110.826917,11.1419667 110.493512,11.0469 110.083346,10.9434 C109.505662,10.7946667 109.005748,10.6178542 108.583602,10.4129625 C108.161456,10.2080708 107.817175,9.9725125 107.550758,9.7062875 C107.303317,9.4521375 107.113758,9.16770417 106.982083,8.8529875 C106.850408,8.53827083 106.784571,8.1871375 106.784571,7.7995875 C106.784571,7.3384375 106.889364,6.92333542 107.098952,6.55428125 C107.308539,6.18522708 107.596135,5.86792292 107.961739,5.60236875 C108.327344,5.33681458 108.74465,5.13307292 109.213658,4.99114375 C109.682667,4.84921458 110.170458,4.77825 110.677033,4.77825 C111.215425,4.77825 111.729619,4.83781042 112.219614,4.95693125 C112.70961,5.07605208 113.167598,5.246875 113.593577,5.4694 C114.019556,5.691925 114.396612,5.9555625 114.724746,6.2603125 L113.174258,7.98445 C112.955375,7.78665 112.707933,7.6040875 112.431933,7.4367625 C112.155933,7.2694375 111.871548,7.13493542 111.578777,7.03325625 C111.286006,6.93157708 111.016092,6.8807375 110.769033,6.8807375 C110.581775,6.8807375 110.417325,6.89650208 110.275683,6.92803125 C110.134042,6.95956042 110.015592,7.00853125 109.920333,7.07494375 C109.825075,7.14135625 109.75296,7.22176042 109.703989,7.31615625 C109.655019,7.41055208 109.630533,7.51802917 109.630533,7.6385875 C109.6359,7.76297917 109.670544,7.87984792 109.734464,7.98919375 C109.798385,8.09853958 109.895225,8.1917375 110.024983,8.2687875 C110.145733,8.33874583 110.339269,8.42188125 110.605589,8.51819375 C110.87191,8.61450625 111.241779,8.72581667 111.715196,8.852125 C112.293454,9.01159167 112.78896,9.1916625 113.201714,9.3923375 C113.614469,9.5930125 113.944375,9.82655833 114.191433,10.092975 C114.3946,10.3049583 114.54525,10.54665 114.643383,10.81805 C114.741517,11.08945 114.790583,11.3872042 114.790583,11.7113125 C114.790583,12.3336542 114.613052,12.8871875 114.257989,13.3719125 C113.902927,13.8566375 113.4194,14.2375271 112.807408,14.5145812 C112.195417,14.7916354 111.500912,14.9301625 110.723896,14.9301625 Z" id="path-11"></path>
        <path d="M121.184808,14.9301625 C120.106683,14.9301625 119.168427,14.7132917 118.370039,14.27955 C117.571652,13.8458083 116.952999,13.2521208 116.514083,12.4984875 C116.075166,11.7448542 115.855708,10.8790958 115.855708,9.9012125 C115.855708,9.15467083 115.978374,8.4686 116.223708,7.843 C116.469041,7.2174 116.812939,6.6746 117.255402,6.2146 C117.697864,5.7546 118.222695,5.39886667 118.829895,5.1474 C119.437095,4.89593333 120.099974,4.7702 120.818533,4.7702 C121.500483,4.7702 122.127137,4.89334583 122.698495,5.1396375 C123.269854,5.38592917 123.763683,5.72992292 124.179983,6.17161875 C124.596283,6.61331458 124.915312,7.13522292 125.13707,7.73734375 C125.358829,8.33946458 125.460029,8.99539583 125.44067,9.7051375 L125.42227,10.49375 L117.634183,10.49375 L117.210983,8.847525 L123.023945,8.847525 L122.705683,9.19195 L122.705683,8.8138875 C122.690158,8.50760417 122.599308,8.23548542 122.433133,7.99753125 C122.266958,7.75957708 122.048266,7.57327708 121.777058,7.43863125 C121.505849,7.30398542 121.200429,7.2366625 120.860795,7.2366625 C120.374345,7.2366625 119.964083,7.33244792 119.630008,7.52401875 C119.295933,7.71558958 119.042262,7.99202083 118.868995,8.3533125 C118.695729,8.71460417 118.609095,9.15591667 118.609095,9.67725 C118.609095,10.2181333 118.72376,10.6894417 118.953089,11.091175 C119.182418,11.4929083 119.514193,11.8040792 119.948414,12.0246875 C120.382635,12.2452958 120.901908,12.3556 121.506233,12.3556 C121.921191,12.3556 122.291874,12.295225 122.618283,12.174475 C122.944691,12.053725 123.294291,11.8446167 123.667083,11.54715 L125.056858,13.5030125 C124.671033,13.8326792 124.262974,14.1008688 123.832683,14.3075813 C123.402391,14.5142938 122.965199,14.6697354 122.521108,14.7739062 C122.077016,14.8780771 121.631583,14.9301625 121.184808,14.9301625 Z" id="path-12"></path>
        <path d="M130.911795,14.919525 C130.10047,14.919525 129.371945,14.7004979 128.72622,14.2624437 C128.080495,13.8243896 127.56841,13.2233229 127.189964,12.4592438 C126.811518,11.6951646 126.622295,10.8241833 126.622295,9.8463 C126.622295,8.85615 126.811087,7.98032917 127.18867,7.2188375 C127.566254,6.45734583 128.084856,5.86020833 128.744477,5.427425 C129.404097,4.99464167 130.157108,4.77825 131.003508,4.77825 C131.471174,4.77825 131.899502,4.84480625 132.288489,4.97791875 C132.677477,5.11103125 133.019554,5.29709167 133.31472,5.5361 C133.609887,5.77510833 133.860443,6.05053333 134.066389,6.362375 C134.272335,6.67421667 134.42792,7.00877083 134.533145,7.3660375 L133.919908,7.292725 L133.919908,4.98065 L136.83717,4.98065 L136.83717,14.7461625 L133.867008,14.7461625 L133.867008,12.3829125 L134.530558,12.3702625 C134.428783,12.7154542 134.267974,13.0426771 134.048133,13.3519312 C133.828291,13.6611854 133.559383,13.9314354 133.241408,14.1626813 C132.923433,14.3939271 132.568706,14.5778792 132.177227,14.7145375 C131.785747,14.8511958 131.363937,14.919525 130.911795,14.919525 Z M131.736058,12.432075 C132.185899,12.432075 132.577043,12.3262271 132.909489,12.1145313 C133.241935,11.9028354 133.498672,11.6031646 133.679702,11.2155188 C133.860731,10.8278729 133.951245,10.3714667 133.951245,9.8463 C133.951245,9.32630833 133.860731,8.87205833 133.679702,8.48355 C133.498672,8.09504167 133.241935,7.79493958 132.909489,7.58324375 C132.577043,7.37154792 132.185899,7.2657 131.736058,7.2657 C131.291583,7.2657 130.906189,7.37154792 130.579877,7.58324375 C130.253564,7.79493958 129.999893,8.09504167 129.818864,8.48355 C129.637835,8.87205833 129.54732,9.32630833 129.54732,9.8463 C129.54732,10.3714667 129.637835,10.8278729 129.818864,11.2155188 C129.999893,11.6031646 130.253564,11.9028354 130.579877,12.1145313 C130.906189,12.3262271 131.291583,12.432075 131.736058,12.432075 Z" id="path-13"></path>
        <path d="M139.444548,14.7461625 L139.444548,4.98065 L142.245373,4.98065 L142.372161,8.1537875 L141.818436,7.544575 C141.967361,7.02209167 142.209675,6.55135833 142.545379,6.132375 C142.881084,5.71339167 143.278121,5.38295833 143.736492,5.141075 C144.194863,4.89919167 144.679157,4.77825 145.189373,4.77825 C145.404998,4.77825 145.609602,4.79487708 145.803186,4.82813125 C145.996769,4.86138542 146.16994,4.90254583 146.322698,4.9516125 L145.519423,8.2061125 C145.386407,8.13059583 145.206288,8.06260208 144.979067,8.00213125 C144.751846,7.94166042 144.513652,7.911425 144.264486,7.911425 C143.996727,7.911425 143.7478,7.95819167 143.517704,8.051725 C143.287609,8.14525833 143.090767,8.27908958 142.927179,8.45321875 C142.763592,8.62734792 142.635463,8.83123333 142.542792,9.064875 C142.450121,9.29851667 142.403786,9.56148333 142.403786,9.853775 L142.403786,14.7461625 L139.444548,14.7461625 Z" id="path-14"></path>
        <path d="M151.69889,14.9301625 C150.747073,14.9301625 149.897367,14.7093625 149.149771,14.2677625 C148.402175,13.8261625 147.812369,13.2233229 147.380352,12.4592438 C146.948336,11.6951646 146.732327,10.8267708 146.732327,9.8540625 C146.732327,8.88135417 146.948336,8.01300833 147.380352,7.249025 C147.812369,6.48504167 148.402175,5.88225 149.149771,5.44065 C149.897367,4.99905 150.747073,4.77825 151.69889,4.77825 C152.571548,4.77825 153.372907,4.93014583 154.102965,5.2339375 C154.833023,5.53772917 155.410132,5.96552917 155.83429,6.5173375 L154.225727,8.4389875 C154.064727,8.2342875 153.866113,8.047125 153.629884,7.8775 C153.393654,7.707875 153.135479,7.57495417 152.855359,7.4787375 C152.575238,7.38252083 152.279257,7.3344125 151.967415,7.3344125 C151.505307,7.3344125 151.097057,7.44155417 150.742665,7.6558375 C150.388273,7.87012083 150.111363,8.16710833 149.911934,8.5468 C149.712504,8.92649167 149.61279,9.35879583 149.61279,9.8437125 C149.61279,10.3213458 149.713367,10.7487146 149.914521,11.1258188 C150.115675,11.5029229 150.394742,11.8034562 150.751721,12.0274187 C151.1087,12.2513813 151.516519,12.3633625 151.975177,12.3633625 C152.292386,12.3633625 152.584486,12.32225 152.851477,12.240025 C153.118469,12.1578 153.367492,12.0361875 153.598546,11.8751875 C153.8296,11.7141875 154.038661,11.5200292 154.225727,11.2927125 L155.82394,13.225 C155.39614,13.748825 154.812036,14.163975 154.071627,14.47045 C153.331219,14.776925 152.540307,14.9301625 151.69889,14.9301625 Z" id="path-15"></path>
        <path d="M157.439793,14.7461625 L157.439793,1.1301625 L160.338368,1.1301625 L160.338368,6.96785 L159.742956,7.18865 C159.872714,6.73804167 160.113687,6.33180417 160.465874,5.9699375 C160.818062,5.60807083 161.239489,5.31898958 161.730156,5.10269375 C162.220822,4.88639792 162.734393,4.77825 163.270868,4.77825 C164.006868,4.77825 164.627245,4.92765417 165.131999,5.2264625 C165.636754,5.52527083 166.017068,5.97084792 166.272943,6.56319375 C166.528818,7.15553958 166.656756,7.88535833 166.656756,8.75265 L166.656756,14.7461625 L163.705281,14.7461625 L163.705281,8.9869625 C163.705281,8.59692083 163.649266,8.27204583 163.537237,8.0123375 C163.425208,7.75262917 163.254576,7.55933333 163.025343,7.43245 C162.79611,7.30556667 162.518001,7.2473 162.191018,7.25765 C161.928626,7.25765 161.688085,7.29833125 161.469393,7.37969375 C161.250701,7.46105625 161.061383,7.57782917 160.901437,7.7300125 C160.741491,7.88219583 160.616476,8.05579792 160.526393,8.25081875 C160.43631,8.44583958 160.391268,8.66055417 160.391268,8.8949625 L160.391268,14.7461625 L158.924731,14.7461625 C158.589122,14.7461625 158.297597,14.7461625 158.050156,14.7461625 C157.802714,14.7461625 157.59926,14.7461625 157.439793,14.7461625 Z" id="path-16"></path>
        <polygon id="path-17" points="1.242575 35.7461625 1.242575 22.8661625 4.370575 22.8661625 4.370575 32.9876 10.1099375 32.9876 10.1099375 35.7461625"></polygon>
        <path d="M16.4221774,35.9301625 C15.3440524,35.9301625 14.4057962,35.7132917 13.6074087,35.27955 C12.8090212,34.8458083 12.1903691,34.2521208 11.7514524,33.4984875 C11.3125358,32.7448542 11.0930774,31.8790958 11.0930774,30.9012125 C11.0930774,30.1546708 11.2157441,29.4686 11.4610774,28.843 C11.7064108,28.2174 12.0503087,27.6746 12.4927712,27.2146 C12.9352337,26.7546 13.4600649,26.3988667 14.0672649,26.1474 C14.6744649,25.8959333 15.3373441,25.7702 16.0559024,25.7702 C16.7378524,25.7702 17.3645066,25.8933458 17.9358649,26.1396375 C18.5072233,26.3859292 19.0010524,26.7299229 19.4173524,27.1716187 C19.8336524,27.6133146 20.1526816,28.1352229 20.3744399,28.7373437 C20.5961983,29.3394646 20.6973983,29.9953958 20.6780399,30.7051375 L20.6596399,31.49375 L12.8715524,31.49375 L12.4483524,29.847525 L18.2613149,29.847525 L17.9430524,30.19195 L17.9430524,29.8138875 C17.9275274,29.5076042 17.8366774,29.2354854 17.6705024,28.9975312 C17.5043274,28.7595771 17.2856358,28.5732771 17.0144274,28.4386313 C16.7432191,28.3039854 16.4377983,28.2366625 16.0981649,28.2366625 C15.6117149,28.2366625 15.2014524,28.3324479 14.8673774,28.5240187 C14.5333024,28.7155896 14.2796316,28.9920208 14.1063649,29.3533125 C13.9330983,29.7146042 13.8464649,30.1559167 13.8464649,30.67725 C13.8464649,31.2181333 13.9611295,31.6894417 14.1904587,32.091175 C14.4197879,32.4929083 14.7515629,32.8040792 15.1857837,33.0246875 C15.6200045,33.2452958 16.1392774,33.3556 16.7436024,33.3556 C17.1585608,33.3556 17.5292441,33.295225 17.8556524,33.174475 C18.1820608,33.053725 18.5316608,32.8446167 18.9044524,32.54715 L20.2942274,34.5030125 C19.9084024,34.8326792 19.5003441,35.1008688 19.0700524,35.3075812 C18.6397608,35.5142938 18.2025691,35.6697354 17.7584774,35.7739062 C17.3143858,35.8780771 16.8689524,35.9301625 16.4221774,35.9301625 Z" id="path-18"></path>
        <path d="M26.9285774,39.9781625 C26.1289441,39.9781625 25.3359233,39.8620125 24.5495149,39.6297125 C23.7631066,39.3974125 23.1226524,39.0954417 22.6281524,38.7238 L23.6548149,36.6604125 C23.9141399,36.8373208 24.1988608,36.9910375 24.5089774,37.1215625 C24.8190941,37.2520875 25.1457899,37.3519458 25.4890649,37.4211375 C25.8323399,37.4903292 26.1853899,37.524925 26.5482149,37.524925 C27.1665316,37.524925 27.6744483,37.4338833 28.0719649,37.2518 C28.4694816,37.0697167 28.7654149,36.7921833 28.9597649,36.4192 C29.1541149,36.0462167 29.2512899,35.5759625 29.2512899,35.0084375 L29.2512899,33.3719875 L29.8127774,33.468875 C29.7303608,33.8704167 29.5222587,34.2371708 29.1884712,34.5691375 C28.8546837,34.9011042 28.4398212,35.1668979 27.9438837,35.3665187 C27.4479462,35.5661396 26.9292483,35.66595 26.3877899,35.66595 C25.4959649,35.66595 24.7053399,35.4605792 24.0159149,35.0498375 C23.3264899,34.6390958 22.7820608,34.0706125 22.3826274,33.3443875 C21.9831941,32.6181625 21.7834774,31.7739667 21.7834774,30.8118 C21.7834774,29.8287417 21.9801274,28.9600125 22.3734274,28.2056125 C22.7667274,27.4512125 23.3045441,26.8580521 23.9868774,26.4261313 C24.6692108,25.9942104 25.4440233,25.77825 26.3113149,25.77825 C26.6793149,25.77825 27.0315504,25.8189313 27.3680212,25.9002937 C27.704492,25.9816563 28.0164295,26.0945958 28.3038337,26.2391125 C28.5912379,26.3836292 28.8479274,26.550475 29.0739024,26.73965 C29.2998774,26.928825 29.484692,27.1338125 29.6283462,27.3546125 C29.7720004,27.5754125 29.8657733,27.8015792 29.9096649,28.0331125 L29.3041899,28.19095 L29.4203399,25.98065 L32.2134024,25.98065 L32.2134024,34.94605 C32.2134024,35.747025 32.092892,36.4590667 31.8518712,37.082175 C31.6108504,37.7052833 31.2615858,38.2328938 30.8040774,38.6650063 C30.3465691,39.0971187 29.7917899,39.4240062 29.1397399,39.6456687 C28.4876899,39.8673312 27.7506358,39.9781625 26.9285774,39.9781625 Z M27.0128149,33.3898125 C27.4869983,33.3898125 27.8990816,33.2839646 28.2490649,33.0722688 C28.5990483,32.8605729 28.8676212,32.5639688 29.0547837,32.1824563 C29.2419462,31.8009437 29.3355274,31.35115 29.3355274,30.833075 C29.3355274,30.3148083 29.2406524,29.8618521 29.0509024,29.4742062 C28.8611524,29.0865604 28.5925795,28.7868896 28.2451837,28.5751938 C27.8977879,28.3634979 27.4869983,28.25765 27.0128149,28.25765 C26.5436149,28.25765 26.1371379,28.3648396 25.7933837,28.5792187 C25.4496295,28.7935979 25.1828295,29.0946104 24.9929837,29.4822563 C24.8031379,29.8699021 24.7082149,30.320175 24.7082149,30.833075 C24.7082149,31.345975 24.8031379,31.794475 24.9929837,32.178575 C25.1828295,32.562675 25.4496295,32.8605729 25.7933837,33.0722688 C26.1371379,33.2839646 26.5436149,33.3898125 27.0128149,33.3898125 Z" id="path-19"></path>
        <path d="M38.3684832,35.919525 C37.5571582,35.919525 36.8286332,35.7004979 36.1829082,35.2624438 C35.5371832,34.8243896 35.0250978,34.2233229 34.646652,33.4592437 C34.2682061,32.6951646 34.0789832,31.8241833 34.0789832,30.8463 C34.0789832,29.85615 34.2677749,28.9803292 34.6453582,28.2188375 C35.0229415,27.4573458 35.5415436,26.8602083 36.2011645,26.427425 C36.8607853,25.9946417 37.6137957,25.77825 38.4601957,25.77825 C38.9278624,25.77825 39.3561895,25.8448063 39.745177,25.9779188 C40.1341645,26.1110313 40.4762415,26.2970917 40.7714082,26.5361 C41.0665749,26.7751083 41.3171311,27.0505333 41.523077,27.362375 C41.7290228,27.6742167 41.8846082,28.0087708 41.9898332,28.3660375 L41.3765957,28.292725 L41.3765957,25.98065 L44.2938582,25.98065 L44.2938582,35.7461625 L41.3236957,35.7461625 L41.3236957,33.3829125 L41.9872457,33.3702625 C41.8854707,33.7154542 41.7246624,34.0426771 41.5048207,34.3519313 C41.284979,34.6611854 41.0160707,34.9314354 40.6980957,35.1626813 C40.3801207,35.3939271 40.0253936,35.5778792 39.6339145,35.7145375 C39.2424353,35.8511958 38.8206249,35.919525 38.3684832,35.919525 Z M39.1927457,33.432075 C39.6425874,33.432075 40.0337311,33.3262271 40.366177,33.1145312 C40.6986228,32.9028354 40.9553603,32.6031646 41.1363895,32.2155188 C41.3174186,31.8278729 41.4079332,31.3714667 41.4079332,30.8463 C41.4079332,30.3263083 41.3174186,29.8720583 41.1363895,29.48355 C40.9553603,29.0950417 40.6986228,28.7949396 40.366177,28.5832437 C40.0337311,28.3715479 39.6425874,28.2657 39.1927457,28.2657 C38.7482707,28.2657 38.362877,28.3715479 38.0365645,28.5832437 C37.710252,28.7949396 37.4565811,29.0950417 37.275552,29.48355 C37.0945228,29.8720583 37.0040082,30.3263083 37.0040082,30.8463 C37.0040082,31.3714667 37.0945228,31.8278729 37.275552,32.2155188 C37.4565811,32.6031646 37.710252,32.9028354 38.0365645,33.1145312 C38.362877,33.3262271 38.7482707,33.432075 39.1927457,33.432075 Z" id="path-20"></path>
        <polygon id="path-21" points="46.9167611 35.7461625 46.9167611 22.1301625 49.8682361 22.1301625 49.8682361 35.7461625"></polygon>
        <path d="M58.6922535,35.7461625 L58.6922535,22.8661625 L64.092941,22.8661625 C65.041116,22.8661625 65.9056285,23.0229938 66.6864785,23.3366563 C67.4673285,23.6503187 68.1426181,24.0936917 68.7123473,24.666775 C69.2820764,25.2398583 69.7203223,25.9189333 70.0270848,26.704 C70.3338473,27.4890667 70.4872285,28.3564542 70.4872285,29.3061625 C70.4872285,30.2489708 70.3338473,31.115975 70.0270848,31.907175 C69.7203223,32.698375 69.2833702,33.379175 68.7162285,33.949575 C68.1490868,34.519975 67.4737973,34.9620063 66.6903598,35.2756687 C65.9069223,35.5893313 65.041116,35.7461625 64.092941,35.7461625 L58.6922535,35.7461625 Z M61.8202535,33.6123375 L61.405966,32.9876 L64.000941,32.9876 C64.5101993,32.9876 64.9683306,32.8991458 65.3753348,32.7222375 C65.7823389,32.5453292 66.1306931,32.2971208 66.4203973,31.9776125 C66.7101014,31.6581042 66.932866,31.2707937 67.088691,30.8156813 C67.244516,30.3605688 67.3224285,29.8573958 67.3224285,29.3061625 C67.3224285,28.7549292 67.244516,28.25305 67.088691,27.800525 C66.932866,27.348 66.7087598,26.9606896 66.4163723,26.6385938 C66.1239848,26.3164979 65.7756306,26.0669958 65.3713098,25.8900875 C64.9669889,25.7131792 64.5101993,25.624725 64.000941,25.624725 L61.350766,25.624725 L61.8202535,25.0367875 L61.8202535,33.6123375 Z" id="path-22"></path>
        <path d="M77.2455404,35.9301625 C76.1674154,35.9301625 75.2291592,35.7132917 74.4307717,35.27955 C73.6323842,34.8458083 73.0137321,34.2521208 72.5748154,33.4984875 C72.1358988,32.7448542 71.9164404,31.8790958 71.9164404,30.9012125 C71.9164404,30.1546708 72.0391071,29.4686 72.2844404,28.843 C72.5297738,28.2174 72.8736717,27.6746 73.3161342,27.2146 C73.7585967,26.7546 74.2834279,26.3988667 74.8906279,26.1474 C75.4978279,25.8959333 76.1607071,25.7702 76.8792654,25.7702 C77.5612154,25.7702 78.1878696,25.8933458 78.7592279,26.1396375 C79.3305863,26.3859292 79.8244154,26.7299229 80.2407154,27.1716187 C80.6570154,27.6133146 80.9760446,28.1352229 81.1978029,28.7373437 C81.4195613,29.3394646 81.5207613,29.9953958 81.5014029,30.7051375 L81.4830029,31.49375 L73.6949154,31.49375 L73.2717154,29.847525 L79.0846779,29.847525 L78.7664154,30.19195 L78.7664154,29.8138875 C78.7508904,29.5076042 78.6600404,29.2354854 78.4938654,28.9975312 C78.3276904,28.7595771 78.1089988,28.5732771 77.8377904,28.4386313 C77.5665821,28.3039854 77.2611613,28.2366625 76.9215279,28.2366625 C76.4350779,28.2366625 76.0248154,28.3324479 75.6907404,28.5240187 C75.3566654,28.7155896 75.1029946,28.9920208 74.9297279,29.3533125 C74.7564613,29.7146042 74.6698279,30.1559167 74.6698279,30.67725 C74.6698279,31.2181333 74.7844925,31.6894417 75.0138217,32.091175 C75.2431508,32.4929083 75.5749258,32.8040792 76.0091467,33.0246875 C76.4433675,33.2452958 76.9626404,33.3556 77.5669654,33.3556 C77.9819238,33.3556 78.3526071,33.295225 78.6790154,33.174475 C79.0054238,33.053725 79.3550238,32.8446167 79.7278154,32.54715 L81.1175904,34.5030125 C80.7317654,34.8326792 80.3237071,35.1008688 79.8934154,35.3075812 C79.4631238,35.5142938 79.0259321,35.6697354 78.5818404,35.7739062 C78.1377488,35.8780771 77.6923154,35.9301625 77.2455404,35.9301625 Z" id="path-23"></path>
        <path d="M83.9877029,35.7461625 L83.9877029,25.497075 C83.9877029,24.86055 84.12623,24.2853583 84.4032842,23.7715 C84.6803383,23.2576417 85.0669779,22.8481458 85.5632029,22.5430125 C86.0594279,22.2378792 86.6389321,22.0853125 87.3017154,22.0853125 C87.7576904,22.0853125 88.1820404,22.1553667 88.5747654,22.295475 C88.9674904,22.4355833 89.3174738,22.6247583 89.6247154,22.863 L88.7903904,25.0137875 C88.6309238,24.9300292 88.47553,24.8632812 88.3242092,24.8135437 C88.1728883,24.7638063 88.0359904,24.7389375 87.9135154,24.7389375 C87.6909904,24.7389375 87.5084279,24.7770313 87.3658279,24.8532187 C87.2232279,24.9294063 87.1178113,25.0432563 87.0495779,25.1947687 C86.9813446,25.3462812 86.9472279,25.531575 86.9472279,25.75065 L86.9472279,35.7461625 L85.4726404,35.7461625 C85.1372238,35.7461625 84.8457467,35.7461625 84.5982092,35.7461625 C84.3506717,35.7461625 84.1471696,35.7461625 83.9877029,35.7461625 Z M82.5582529,28.6863125 L82.5582529,26.2517625 L88.9539779,26.2517625 L88.9539779,28.6863125 L82.5582529,28.6863125 Z" id="path-24"></path>
        <path d="M94.8911404,35.9301625 C93.8130154,35.9301625 92.8747592,35.7132917 92.0763717,35.27955 C91.2779842,34.8458083 90.6593321,34.2521208 90.2204154,33.4984875 C89.7814988,32.7448542 89.5620404,31.8790958 89.5620404,30.9012125 C89.5620404,30.1546708 89.6847071,29.4686 89.9300404,28.843 C90.1753738,28.2174 90.5192717,27.6746 90.9617342,27.2146 C91.4041967,26.7546 91.9290279,26.3988667 92.5362279,26.1474 C93.1434279,25.8959333 93.8063071,25.7702 94.5248654,25.7702 C95.2068154,25.7702 95.8334696,25.8933458 96.4048279,26.1396375 C96.9761863,26.3859292 97.4700154,26.7299229 97.8863154,27.1716187 C98.3026154,27.6133146 98.6216446,28.1352229 98.8434029,28.7373437 C99.0651613,29.3394646 99.1663613,29.9953958 99.1470029,30.7051375 L99.1286029,31.49375 L91.3405154,31.49375 L90.9173154,29.847525 L96.7302779,29.847525 L96.4120154,30.19195 L96.4120154,29.8138875 C96.3964904,29.5076042 96.3056404,29.2354854 96.1394654,28.9975312 C95.9732904,28.7595771 95.7545988,28.5732771 95.4833904,28.4386313 C95.2121821,28.3039854 94.9067613,28.2366625 94.5671279,28.2366625 C94.0806779,28.2366625 93.6704154,28.3324479 93.3363404,28.5240187 C93.0022654,28.7155896 92.7485946,28.9920208 92.5753279,29.3533125 C92.4020613,29.7146042 92.3154279,30.1559167 92.3154279,30.67725 C92.3154279,31.2181333 92.4300925,31.6894417 92.6594217,32.091175 C92.8887508,32.4929083 93.2205258,32.8040792 93.6547467,33.0246875 C94.0889675,33.2452958 94.6082404,33.3556 95.2125654,33.3556 C95.6275238,33.3556 95.9982071,33.295225 96.3246154,33.174475 C96.6510238,33.053725 97.0006238,32.8446167 97.3734154,32.54715 L98.7631904,34.5030125 C98.3773654,34.8326792 97.9693071,35.1008688 97.5390154,35.3075812 C97.1087238,35.5142938 96.6715321,35.6697354 96.2274404,35.7739062 C95.7833488,35.8780771 95.3379154,35.9301625 94.8911404,35.9301625 Z" id="path-25"></path>
        <path d="M101.017765,35.7461625 L101.017765,25.98065 L103.810828,25.98065 L103.91634,27.96785 L103.320928,28.18865 C103.450686,27.7380417 103.691659,27.3318042 104.043847,26.9699375 C104.396034,26.6080708 104.817461,26.3189896 105.308128,26.1026938 C105.798795,25.8863979 106.312365,25.77825 106.84884,25.77825 C107.58484,25.77825 108.205218,25.9276542 108.709972,26.2264625 C109.214726,26.5252708 109.59504,26.9708479 109.850915,27.5631937 C110.10679,28.1555396 110.234728,28.8853583 110.234728,29.75265 L110.234728,35.7461625 L107.283253,35.7461625 L107.283253,29.9869625 C107.283253,29.5969208 107.227238,29.2720458 107.115209,29.0123375 C107.00318,28.7526292 106.832549,28.5593333 106.603315,28.43245 C106.374082,28.3055667 106.095974,28.2473 105.76899,28.25765 C105.506599,28.25765 105.266057,28.2983313 105.047365,28.3796938 C104.828674,28.4610563 104.639355,28.5778292 104.479409,28.7300125 C104.319463,28.8821958 104.194449,29.0557979 104.104365,29.2508187 C104.014282,29.4458396 103.96924,29.6605542 103.96924,29.8949625 L103.96924,35.7461625 L102.502703,35.7461625 C102.167095,35.7461625 101.87557,35.7461625 101.628128,35.7461625 C101.380686,35.7461625 101.177232,35.7461625 101.017765,35.7461625 Z" id="path-26"></path>
        <path d="M116.009439,35.9301625 C115.052064,35.9301625 114.207821,35.7767812 113.476708,35.4700187 C112.745596,35.1632563 112.161827,34.7515083 111.725402,34.234775 L113.520552,32.6975125 C113.902544,33.0775875 114.332404,33.3556479 114.810133,33.5316938 C115.287862,33.7077396 115.742831,33.7957625 116.175039,33.7957625 C116.339681,33.7957625 116.488894,33.7787042 116.622677,33.7445875 C116.75646,33.7104708 116.869208,33.6576187 116.960921,33.5860313 C117.052633,33.5144437 117.122975,33.4318833 117.171946,33.33835 C117.220917,33.2448167 117.245402,33.1377708 117.245402,33.0172125 C117.245402,32.7757125 117.13941,32.58855 116.927427,32.455725 C116.811852,32.3909417 116.625744,32.3152333 116.369102,32.2286 C116.11246,32.1419667 115.779056,32.0469 115.368889,31.9434 C114.791206,31.7946667 114.291292,31.6178542 113.869146,31.4129625 C113.447,31.2080708 113.102719,30.9725125 112.836302,30.7062875 C112.58886,30.4521375 112.399302,30.1677042 112.267627,29.8529875 C112.135952,29.5382708 112.070114,29.1871375 112.070114,28.7995875 C112.070114,28.3384375 112.174908,27.9233354 112.384496,27.5542812 C112.594083,27.1852271 112.881679,26.8679229 113.247283,26.6023688 C113.612887,26.3368146 114.030194,26.1330729 114.499202,25.9911438 C114.96821,25.8492146 115.456002,25.77825 115.962577,25.77825 C116.500969,25.77825 117.015162,25.8378104 117.505158,25.9569313 C117.995154,26.0760521 118.453142,26.246875 118.879121,26.4694 C119.3051,26.691925 119.682156,26.9555625 120.010289,27.2603125 L118.459802,28.98445 C118.240919,28.78665 117.993477,28.6040875 117.717477,28.4367625 C117.441477,28.2694375 117.157092,28.1349354 116.864321,28.0332562 C116.57155,27.9315771 116.301635,27.8807375 116.054577,27.8807375 C115.867319,27.8807375 115.702869,27.8965021 115.561227,27.9280313 C115.419585,27.9595604 115.301135,28.0085313 115.205877,28.0749437 C115.110619,28.1413562 115.038504,28.2217604 114.989533,28.3161563 C114.940562,28.4105521 114.916077,28.5180292 114.916077,28.6385875 C114.921444,28.7629792 114.956087,28.8798479 115.020008,28.9891938 C115.083929,29.0985396 115.180769,29.1917375 115.310527,29.2687875 C115.431277,29.3387458 115.624812,29.4218812 115.891133,29.5181937 C116.157454,29.6145063 116.527323,29.7258167 117.000739,29.852125 C117.578998,30.0115917 118.074504,30.1916625 118.487258,30.3923375 C118.900012,30.5930125 119.229919,30.8265583 119.476977,31.092975 C119.680144,31.3049583 119.830794,31.54665 119.928927,31.81805 C120.02706,32.08945 120.076127,32.3872042 120.076127,32.7113125 C120.076127,33.3336542 119.898596,33.8871875 119.543533,34.3719125 C119.188471,34.8566375 118.704944,35.2375271 118.092952,35.5145813 C117.48096,35.7916354 116.786456,35.9301625 116.009439,35.9301625 Z" id="path-27"></path>
        <path d="M126.470352,35.9301625 C125.392227,35.9301625 124.45397,35.7132917 123.655583,35.27955 C122.857195,34.8458083 122.238543,34.2521208 121.799627,33.4984875 C121.36071,32.7448542 121.141252,31.8790958 121.141252,30.9012125 C121.141252,30.1546708 121.263918,29.4686 121.509252,28.843 C121.754585,28.2174 122.098483,27.6746 122.540945,27.2146 C122.983408,26.7546 123.508239,26.3988667 124.115439,26.1474 C124.722639,25.8959333 125.385518,25.7702 126.104077,25.7702 C126.786027,25.7702 127.412681,25.8933458 127.984039,26.1396375 C128.555397,26.3859292 129.049227,26.7299229 129.465527,27.1716187 C129.881827,27.6133146 130.200856,28.1352229 130.422614,28.7373437 C130.644372,29.3394646 130.745572,29.9953958 130.726214,30.7051375 L130.707814,31.49375 L122.919727,31.49375 L122.496527,29.847525 L128.309489,29.847525 L127.991227,30.19195 L127.991227,29.8138875 C127.975702,29.5076042 127.884852,29.2354854 127.718677,28.9975312 C127.552502,28.7595771 127.33381,28.5732771 127.062602,28.4386313 C126.791393,28.3039854 126.485972,28.2366625 126.146339,28.2366625 C125.659889,28.2366625 125.249627,28.3324479 124.915552,28.5240187 C124.581477,28.7155896 124.327806,28.9920208 124.154539,29.3533125 C123.981272,29.7146042 123.894639,30.1559167 123.894639,30.67725 C123.894639,31.2181333 124.009304,31.6894417 124.238633,32.091175 C124.467962,32.4929083 124.799737,32.8040792 125.233958,33.0246875 C125.668179,33.2452958 126.187452,33.3556 126.791777,33.3556 C127.206735,33.3556 127.577418,33.295225 127.903827,33.174475 C128.230235,33.053725 128.579835,32.8446167 128.952627,32.54715 L130.342402,34.5030125 C129.956577,34.8326792 129.548518,35.1008688 129.118227,35.3075812 C128.687935,35.5142938 128.250743,35.6697354 127.806652,35.7739062 C127.36256,35.8780771 126.917127,35.9301625 126.470352,35.9301625 Z" id="path-28"></path>
        <path d="M138.797763,35.7461625 L138.797763,22.8661625 L141.925763,22.8661625 L141.925763,35.7461625 L138.797763,35.7461625 Z M140.261713,30.812375 L140.261713,28.2015875 L146.925388,28.2015875 L146.925388,30.812375 L140.261713,30.812375 Z M140.261713,25.624725 L140.261713,22.8661625 L147.668863,22.8661625 L147.668863,25.624725 L140.261713,25.624725 Z" id="path-29"></path>
        <path d="M152.917688,35.9408 C152.195488,35.9408 151.578081,35.7848312 151.065469,35.4728937 C150.552856,35.1609562 150.160323,34.71145 149.887869,34.124375 C149.615415,33.5373 149.479188,32.8310083 149.479188,32.0055 L149.479188,25.98065 L152.430663,25.98065 L152.430663,31.60645 C152.430663,32.0016667 152.494967,32.3396229 152.623575,32.6203187 C152.752184,32.9010146 152.937621,33.1165438 153.179888,33.2669063 C153.422154,33.4172688 153.715596,33.49245 154.060213,33.49245 C154.317238,33.49245 154.552461,33.4517687 154.765881,33.3704063 C154.979302,33.2890438 155.163446,33.1722708 155.318313,33.0200875 C155.473179,32.8679042 155.594313,32.6886479 155.681713,32.4823188 C155.769113,32.2759896 155.812813,32.0538958 155.812813,31.8160375 L155.812813,25.98065 L158.764575,25.98065 L158.764575,35.7461625 L155.9925,35.7461625 L155.865713,33.74315 L156.408225,33.52235 C156.268117,33.9833083 156.026761,34.3960146 155.684156,34.7604688 C155.341552,35.1249229 154.93105,35.4127583 154.45265,35.623975 C153.97425,35.8351917 153.462596,35.9408 152.917688,35.9408 Z" id="path-30"></path>
        <path d="M161.393044,35.7461625 L161.393044,25.98065 L164.186106,25.98065 L164.291619,27.96785 L163.696206,28.18865 C163.825965,27.7380417 164.066938,27.3318042 164.419125,26.9699375 C164.771313,26.6080708 165.19274,26.3189896 165.683406,26.1026938 C166.174073,25.8863979 166.687644,25.77825 167.224119,25.77825 C167.960119,25.77825 168.580496,25.9276542 169.08525,26.2264625 C169.590004,26.5252708 169.970319,26.9708479 170.226194,27.5631937 C170.482069,28.1555396 170.610006,28.8853583 170.610006,29.75265 L170.610006,35.7461625 L167.658531,35.7461625 L167.658531,29.9869625 C167.658531,29.5969208 167.602517,29.2720458 167.490488,29.0123375 C167.378459,28.7526292 167.207827,28.5593333 166.978594,28.43245 C166.749361,28.3055667 166.471252,28.2473 166.144269,28.25765 C165.881877,28.25765 165.641336,28.2983313 165.422644,28.3796938 C165.203952,28.4610563 165.014634,28.5778292 164.854688,28.7300125 C164.694742,28.8821958 164.569727,29.0557979 164.479644,29.2508187 C164.389561,29.4458396 164.344519,29.6605542 164.344519,29.8949625 L164.344519,35.7461625 L162.877981,35.7461625 C162.542373,35.7461625 162.250848,35.7461625 162.003406,35.7461625 C161.755965,35.7461625 161.552511,35.7461625 161.393044,35.7461625 Z" id="path-31"></path>
        <path d="M176.782618,35.9408 C175.941585,35.9408 175.19212,35.7230667 174.534224,35.2876 C173.876328,34.8521333 173.357343,34.2536542 172.977268,33.4921625 C172.597193,32.7306708 172.407155,31.85485 172.407155,30.8647 C172.407155,29.8816417 172.597672,29.0075938 172.978705,28.2425562 C173.359739,27.4775188 173.881408,26.8755417 174.543712,26.436625 C175.206016,25.9977083 175.961997,25.77825 176.811655,25.77825 C177.25498,25.77825 177.681151,25.8443271 178.090168,25.9764813 C178.499185,26.1086354 178.867472,26.2924917 179.19503,26.52805 C179.522589,26.7636083 179.791066,27.0307437 180.000462,27.3294562 C180.209858,27.6281688 180.335735,27.9405375 180.378093,28.2665625 L179.667393,28.43015 L179.667393,22.1301625 L182.629505,22.1301625 L182.629505,35.7461625 L179.889343,35.7461625 L179.720293,33.52005 L180.310243,33.6152125 C180.274976,33.9236042 180.155712,34.2166625 179.952449,34.4943875 C179.749187,34.7721125 179.48852,35.0195542 179.170449,35.2367125 C178.852378,35.4538708 178.487014,35.6255083 178.074355,35.751625 C177.661697,35.8777417 177.231118,35.9408 176.782618,35.9408 Z M177.536443,33.5002125 C177.986285,33.5002125 178.377428,33.3900042 178.709874,33.1695875 C179.04232,32.9491708 179.299058,32.6425042 179.480087,32.2495875 C179.661116,31.8566708 179.75163,31.3950417 179.75163,30.8647 C179.75163,30.3343583 179.661116,29.8709562 179.480087,29.4744937 C179.299058,29.0780312 179.04232,28.7713646 178.709874,28.5544938 C178.377428,28.3376229 177.986285,28.2291875 177.536443,28.2291875 C177.086793,28.2291875 176.697518,28.3376229 176.368618,28.5544938 C176.039718,28.7713646 175.784705,29.0780312 175.60358,29.4744937 C175.422455,29.8709562 175.331893,30.3343583 175.331893,30.8647 C175.331893,31.3950417 175.422455,31.8566708 175.60358,32.2495875 C175.784705,32.6425042 176.039718,32.9491708 176.368618,33.1695875 C176.697518,33.3900042 177.086793,33.5002125 177.536443,33.5002125 Z" id="path-32"></path>
        <polygon id="path-33" points="0 0 53.992659 0 53.992659 55 0 55"></polygon>
        <linearGradient x1="50%" y1="0%" x2="50%" y2="100%" id="linearGradient-35">
            <stop stop-color="#F77A00" offset="0%"></stop>
            <stop stop-color="#EC2400" offset="100%"></stop>
        </linearGradient>
    </defs>
    <g id="Page-1" stroke="none" stroke-width="1" fill="none" fill-rule="evenodd">
        <g id="assets" transform="translate(-62.000000, -45.000000)">
            <g id="logo" transform="translate(62.444368, 45.000000)">
                <g id="Security-Research-Le" transform="translate(70.426219, 8.753837)" fill-rule="nonzero">
                    <g id="Path" fill="#000000">
                        <use xlink:href="#path-1"></use>
                        <use xlink:href="#path-1"></use>
                    </g>
                    <g id="Path" fill="#000000">
                        <use xlink:href="#path-2"></use>
                        <use xlink:href="#path-2"></use>
                    </g>
                    <g id="Path" fill="#000000">
                        <use xlink:href="#path-3"></use>
                        <use xlink:href="#path-3"></use>
                    </g>
                    <g id="Path" fill="#000000">
                        <use xlink:href="#path-4"></use>
                        <use xlink:href="#path-4"></use>
                    </g>
                    <g id="Path" fill="#000000">
                        <use xlink:href="#path-5"></use>
                        <use xlink:href="#path-5"></use>
                    </g>
                    <g id="Shape" fill="#000000">
                        <use xlink:href="#path-6"></use>
                        <use xlink:href="#path-6"></use>
                    </g>
                    <g id="Shape" fill="#000000">
                        <use xlink:href="#path-7"></use>
                        <use xlink:href="#path-7"></use>
                    </g>
                    <g id="Path" fill="#000000">
                        <use xlink:href="#path-8"></use>
                        <use xlink:href="#path-8"></use>
                    </g>
                    <g id="Shape" fill="#000000">
                        <use xlink:href="#path-9"></use>
                        <use xlink:href="#path-9"></use>
                    </g>
                    <g id="Path" fill="#000000">
                        <use xlink:href="#path-10"></use>
                        <use xlink:href="#path-10"></use>
                    </g>
                    <g id="Path" fill="#000000">
                        <use xlink:href="#path-11"></use>
                        <use xlink:href="#path-11"></use>
                    </g>
                    <g id="Path" fill="#000000">
                        <use xlink:href="#path-12"></use>
                        <use xlink:href="#path-12"></use>
                    </g>
                    <g id="Shape" fill="#000000">
                        <use xlink:href="#path-13"></use>
                        <use xlink:href="#path-13"></use>
                    </g>
                    <g id="Path" fill="#000000">
                        <use xlink:href="#path-14"></use>
                        <use xlink:href="#path-14"></use>
                    </g>
                    <g id="Path" fill="#000000">
                        <use xlink:href="#path-15"></use>
                        <use xlink:href="#path-15"></use>
                    </g>
                    <g id="Path" fill="#000000">
                        <use xlink:href="#path-16"></use>
                        <use xlink:href="#path-16"></use>
                    </g>
                    <g id="Path">
                        <use fill="#ED2A00" xlink:href="#path-17"></use>
                        <use fill="#000000" xlink:href="#path-17"></use>
                    </g>
                    <g id="Path">
                        <use fill="#ED2A00" xlink:href="#path-18"></use>
                        <use fill="#000000" xlink:href="#path-18"></use>
                    </g>
                    <g id="Shape">
                        <use fill="#ED2A00" xlink:href="#path-19"></use>
                        <use fill="#000000" xlink:href="#path-19"></use>
                    </g>
                    <g id="Shape">
                        <use fill="#ED2A00" xlink:href="#path-20"></use>
                        <use fill="#000000" xlink:href="#path-20"></use>
                    </g>
                    <g id="Path">
                        <use fill="#ED2A00" xlink:href="#path-21"></use>
                        <use fill="#000000" xlink:href="#path-21"></use>
                    </g>
                    <g id="Shape">
                        <use fill="#ED2A00" xlink:href="#path-22"></use>
                        <use fill="#000000" xlink:href="#path-22"></use>
                    </g>
                    <g id="Path">
                        <use fill="#ED2A00" xlink:href="#path-23"></use>
                        <use fill="#000000" xlink:href="#path-23"></use>
                    </g>
                    <g id="Shape">
                        <use fill="#ED2A00" xlink:href="#path-24"></use>
                        <use fill="#000000" xlink:href="#path-24"></use>
                    </g>
                    <g id="Path">
                        <use fill="#ED2A00" xlink:href="#path-25"></use>
                        <use fill="#000000" xlink:href="#path-25"></use>
                    </g>
                    <g id="Path">
                        <use fill="#ED2A00" xlink:href="#path-26"></use>
                        <use fill="#000000" xlink:href="#path-26"></use>
                    </g>
                    <g id="Path">
                        <use fill="#ED2A00" xlink:href="#path-27"></use>
                        <use fill="#000000" xlink:href="#path-27"></use>
                    </g>
                    <g id="Path">
                        <use fill="#ED2A00" xlink:href="#path-28"></use>
                        <use fill="#000000" xlink:href="#path-28"></use>
                    </g>
                    <g id="Shape">
                        <use fill="#ED2A00" xlink:href="#path-29"></use>
                        <use fill="#000000" xlink:href="#path-29"></use>
                    </g>
                    <g id="Path">
                        <use fill="#ED2A00" xlink:href="#path-30"></use>
                        <use fill="#000000" xlink:href="#path-30"></use>
                    </g>
                    <g id="Path">
                        <use fill="#ED2A00" xlink:href="#path-31"></use>
                        <use fill="#000000" xlink:href="#path-31"></use>
                    </g>
                    <g id="Shape">
                        <use fill="#ED2A00" xlink:href="#path-32"></use>
                        <use fill="#000000" xlink:href="#path-32"></use>
                    </g>
                </g>
                <g id="Group-3" transform="translate(-0.000000, 0.000000)">
                    <mask id="mask-34" fill="white">
                        <use xlink:href="#path-33"></use>
                    </mask>
                    <g id="Clip-2"></g>
                    <path d="M39.7023907,21.392185 L47.4627871,34.7927841 C47.2177263,35.2068742 46.8764235,35.7159758 46.6747667,36.1339813 C44.4232796,39.8886101 41.7048643,43.3326992 38.6065153,46.3805594 C35.5079053,49.4307688 32.0253716,52.0906036 28.2408373,54.2800424 L26.9971871,55.0000112 L25.7533878,54.2800424 C21.8347264,52.0133043 18.2476354,49.2533496 15.0855228,46.091237 C12.6409925,43.6473779 10.4367874,40.9489121 8.51664703,38.0390198 L16.3261153,40.1336336 C17.0569351,40.973187 17.8148636,41.7879061 18.6009824,42.57533 C21.1353782,45.1089801 23.9537643,47.3485721 26.9965532,49.2392545 C29.9439579,47.4105458 32.6720682,45.2620126 35.1284563,42.8434725 C37.6094175,40.4023727 39.8175752,37.684927 41.7008372,34.7467699 L35.406704,23.8771362 C32.7945613,23.8311593 30.6915202,21.6994805 30.6915202,19.0760394 C30.6915202,16.422842 32.8406501,14.2725935 35.4925424,14.2725935 C38.1468585,14.2725935 40.2971442,16.422842 40.2971442,19.0760394 C40.2971442,19.9155928 40.0814295,20.705254 39.7023907,21.392185 L39.7023907,21.392185 Z M26.9965532,30.4382932 C29.6497134,30.4382932 31.8005212,32.5885417 31.8005212,35.2415527 C31.8005212,37.8935568 29.6497134,40.0443274 26.9965532,40.0443274 C24.8131925,40.0443274 22.9719175,38.5882066 22.3875302,36.594906 C16.6126411,35.0818455 10.8309282,33.5804191 5.07427318,32.0157884 L4.57538868,30.9011196 C4.35840618,30.43091 4.14880683,29.948358 3.94386855,29.4583109 C3.72558095,28.9309379 3.53115807,28.4474163 3.36362028,28.0076716 C2.27359924,25.1456205 1.42684918,22.1357574 0.854356942,19.0093674 C0.29528861,15.9509172 0,12.8278831 0,9.67367573 L0.0113357415,9.6636078 L0.0260647478,7.60188252 L1.24853498,6.89451733 C4.53176099,4.99637724 8.05050195,3.44677391 11.7506893,2.30130469 C14.2662172,1.52137584 16.8625867,0.930052847 19.5211537,0.542027431 L16.2314768,6.21739322 C15.2075685,6.45943367 14.2005146,6.73481016 13.2073321,7.04232944 C10.3405455,7.93088004 7.58819759,9.0903325 4.98217028,10.4928695 C5.02553694,13.1182496 5.28290302,15.6649507 5.73100041,18.1152235 C6.24133251,20.897887 7.00921714,23.6163022 8.00791834,26.2397806 L8.64600127,27.8318557 L23.6537773,31.7925787 C24.5179039,30.9539949 25.696821,30.4382932 26.9965532,30.4382932 L26.9965532,30.4382932 Z M21.5938792,16.7620939 C21.9715383,17.4483537 22.186731,18.2368217 22.186731,19.0760394 C22.186731,21.7273351 20.0364452,23.8776582 17.3851868,23.8776582 C14.7326606,23.8776582 12.5828968,21.7273351 12.5828968,19.0760394 C12.5828968,16.4518898 14.6872057,14.3198009 17.3000942,14.2737868 L25.5706363,0 L26.9965532,0 C31.5994982,0 36.0749907,0.607655409 40.337938,1.74872458 C44.7271819,2.92242129 48.8926567,4.66641021 52.7439376,6.89451733 L53.9693536,7.60188252 L53.9829267,9.6636078 L53.992659,9.67367573 C53.992659,13.7455188 53.5165952,17.7148555 52.6177156,21.5285122 C51.9821683,24.2305204 51.1246045,26.8608599 50.0710518,29.3952558 L46.8378298,23.8107624 C47.1933395,22.694341 47.507086,21.5575973 47.7797404,20.4018737 C48.5289808,17.2205202 48.9533626,13.9061582 49.011421,10.4941 C45.8929734,8.81592552 42.5563501,7.48252164 39.0569619,6.54676363 C35.6562394,5.63736868 32.0908504,5.10395492 28.4122904,4.99462468 L21.5938792,16.7620939 Z" id="Fill-1" fill="url(#linearGradient-35)" mask="url(#mask-34)"></path>
                </g>
            </g>
        </g>
    </g>
</svg>