<?xml version="1.0" encoding="UTF-8"?>
<svg width="834px" height="182px" viewBox="0 0 834 182" version="1.1" xmlns="http://www.w3.org/2000/svg" xmlns:xlink="http://www.w3.org/1999/xlink">
    <title>logo</title>
    <defs>
        <path d="M18.1762257,49.1338075 C15.3655699,49.1338075 12.8422242,48.802029 10.6061886,48.138472 C8.37015303,47.4749151 6.38531663,46.5101714 4.65167943,45.2442409 C2.91804223,43.9783105 1.36748242,42.4603923 0,40.6904866 L6.25396136,33.6313632 C8.25535515,36.3177597 10.2744102,38.1307147 12.3111264,39.0702281 C14.3478426,40.0097415 16.455519,40.4794982 18.6341557,40.4794982 C19.7278893,40.4794982 20.7150249,40.3356855 21.5955625,40.04806 C22.4761001,39.7604345 23.1637835,39.3435038 23.6586128,38.7972677 C24.1534422,38.2510317 24.4008568,37.5833748 24.4008568,36.794297 C24.4008568,36.1837237 24.2507365,35.6365415 23.9504959,35.1527505 C23.6502553,34.6689594 23.2304861,34.2400442 22.6911884,33.866005 C22.1518907,33.4919658 21.5234984,33.158295 20.8060117,32.8649927 C20.088525,32.5716905 19.3265698,32.3171798 18.5201462,32.1014607 C17.7137227,31.8857416 16.8790727,31.6914683 16.0161964,31.5186407 C13.6975315,31.005204 11.6729574,30.361989 9.94247398,29.5889956 C8.21199057,28.8160022 6.76692496,27.8728619 5.60727716,26.7595748 C4.44762936,25.6462877 3.58806447,24.3759419 3.0285825,22.9485375 C2.46910053,21.5211331 2.18935955,19.9164858 2.18935955,18.1345957 C2.18935955,16.2303386 2.62064004,14.4820362 3.48320102,12.8896887 C4.34576201,11.2973412 5.51424042,9.9257589 6.98863625,8.7749417 C8.46303208,7.62412451 10.1635545,6.73869856 12.0902035,6.11866386 C14.0168525,5.49862917 16.0445805,5.18861182 18.1733873,5.18861182 C20.9323209,5.18861182 23.3128,5.47686803 25.3148245,6.05338045 C27.3168491,6.62989288 29.0358212,7.46753894 30.4717408,8.56631864 C31.9076604,9.66509833 33.1248648,10.9754972 34.1233541,12.4975152 L27.7832943,18.6379402 C26.9292486,17.5839443 26.0092886,16.7070336 25.0234145,16.0072081 C24.0375405,15.3073825 22.9911136,14.783223 21.8841341,14.4347294 C20.7771545,14.0862359 19.6417909,13.9119891 18.4780432,13.9119891 C17.2745577,13.9119891 16.2380653,14.0558018 15.368566,14.3434273 C14.4990667,14.6310527 13.8181639,15.0465643 13.3258576,15.5899619 C12.8335513,16.1333596 12.5873982,16.8049587 12.5873982,17.6047593 C12.5873982,18.2670548 12.7893983,18.8471941 13.1933985,19.3451772 C13.5973987,19.8431603 14.1441079,20.2777522 14.8335259,20.6489531 C15.5229439,21.0201539 16.3110755,21.3364788 17.1979207,21.5979278 C18.0847658,21.8593769 19.0025181,22.082192 19.9511775,22.2663732 C22.1714442,22.7041189 24.1843493,23.284889 25.9898928,24.0086833 C27.7954364,24.7324776 29.355773,25.6163267 30.6709025,26.6602305 C31.986032,27.7041342 32.9913019,28.9503535 33.6867122,30.3988883 C34.3821224,31.8474231 34.7298275,33.5067886 34.7298275,35.3769848 C34.7298275,38.313792 34.0172291,40.8059152 32.5920324,42.8533543 C31.1668356,44.9007934 29.2110141,46.4593954 26.7245677,47.5291602 C24.2381214,48.5989251 21.388674,49.1338075 18.1762257,49.1338075 Z" id="path-1"></path>
        <path d="M56.7687658,49.1338075 C53.2207544,49.1338075 50.1330384,48.4201053 47.5056177,46.9927009 C44.878197,45.5652965 42.8422692,43.6115249 41.3978344,41.1313861 C39.9533995,38.6512473 39.2311821,35.8021154 39.2311821,32.5839902 C39.2311821,30.1271895 39.634867,27.8693927 40.4422367,25.8106 C41.2496064,23.7518073 42.3813431,21.9655018 43.837447,20.4516836 C45.2935509,18.9378655 47.0207228,17.7671794 49.0189628,16.9396255 C51.0172028,16.1120715 53.1986779,15.6982945 55.563388,15.6982945 C57.8076235,15.6982945 59.8698854,16.1035563 61.7501737,16.9140798 C63.630462,17.7246033 65.2556089,18.8566554 66.6256144,20.3102362 C67.9956199,21.7638171 69.0455158,23.48137 69.7753024,25.4628949 C70.5050889,27.4444198 70.8381289,29.6030299 70.7744224,31.9387252 L70.7138696,34.5339773 L45.0839817,34.5339773 L43.6912689,29.1164005 L62.8212001,29.1164005 L61.7738271,30.2498718 L61.7738271,29.0057025 C61.7227358,27.9977519 61.4237567,27.1022338 60.8768899,26.3191483 C60.330023,25.5360628 59.6103286,24.9229664 58.7178067,24.4798592 C57.8252847,24.036752 56.8201725,23.8151984 55.7024701,23.8151984 C54.1016074,23.8151984 52.7514708,24.1304195 51.6520603,24.7608617 C50.5526499,25.3913039 49.7178422,26.301014 49.1476374,27.489992 C48.5774325,28.6789701 48.2923301,30.1312894 48.2923301,31.84695 C48.2923301,33.6269479 48.6696808,35.1779808 49.4243822,36.5000486 C50.1790837,37.8221165 51.270925,38.8461514 52.6999063,39.5721534 C54.1288876,40.2981554 55.8377676,40.6611564 57.8265462,40.6611564 C59.1921364,40.6611564 60.4120215,40.4624677 61.4862017,40.0650905 C62.5603818,39.6677132 63.7108836,38.9795567 64.9377071,38.0006209 L69.5113303,44.4371866 C68.2416153,45.5220896 66.8987324,46.4046772 65.4826817,47.0849492 C64.0666309,47.7652212 62.6278729,48.2767656 61.1664076,48.6195824 C59.7049423,48.9623991 58.2390617,49.1338075 56.7687658,49.1338075 Z" id="path-2"></path>
        <path d="M91.059586,49.1338075 C87.9272439,49.1338075 85.1309378,48.4071748 82.6706679,46.9539093 C80.210398,45.5006439 78.2693992,43.5167536 76.8476717,41.0022385 C75.4259441,38.4877234 74.7150803,35.6299186 74.7150803,32.4288239 C74.7150803,29.2277292 75.4259441,26.370082 76.8476717,23.8558823 C78.2693992,21.3416826 80.210398,19.35795 82.6706679,17.9046845 C85.1309378,16.4514191 87.9272439,15.7247864 91.059586,15.7247864 C93.9314252,15.7247864 96.5686227,16.2246617 98.9711783,17.2244125 C101.373734,18.2241633 103.272945,19.6320142 104.668811,21.4479652 L99.3751785,27.7719407 C98.8453421,27.0982916 98.1917196,26.4823568 97.4143109,25.9241364 C96.6369022,25.3659159 95.7872717,24.9284855 94.8654195,24.6118452 C93.9435673,24.2952049 92.9695199,24.1368848 91.9432774,24.1368848 C90.4225208,24.1368848 89.0790072,24.4894783 87.9127364,25.1946652 C86.7464657,25.8998522 85.8351787,26.8772111 85.1788754,28.1267418 C84.5225722,29.3762726 84.1944205,30.7989463 84.1944205,32.394763 C84.1944205,33.9666108 84.5254106,35.3730425 85.1873906,36.6140581 C85.8493707,37.8550736 86.7677538,38.8441015 87.9425397,39.5811417 C89.1173257,40.3181819 90.4594202,40.686702 91.968823,40.686702 C93.0127268,40.686702 93.9740014,40.5514045 94.8526467,40.2808095 C95.731292,40.0102145 96.5508038,39.6099989 97.311182,39.0801625 C98.0715603,38.5503261 98.7595591,37.9113687 99.3751785,37.1632902 L104.634751,43.5222727 C103.2269,45.2461332 101.304666,46.6123541 98.8680494,47.6209355 C96.4314329,48.6295168 93.8286117,49.1338075 91.059586,49.1338075 Z" id="path-3"></path>
        <path d="M120.91999,49.1688145 C118.543295,49.1688145 116.511467,48.6555356 114.824506,47.6289776 C113.137545,46.6024197 111.845753,45.1231355 110.949132,43.191125 C110.05251,41.2591145 109.604199,38.9347729 109.604199,36.2181 L109.604199,16.3908664 L119.317235,16.3908664 L119.317235,34.9048627 C119.317235,36.2054848 119.528854,37.3176681 119.952092,38.2414126 C120.37533,39.1651571 120.985588,39.874444 121.782866,40.3692733 C122.580144,40.8641026 123.545833,41.1115173 124.679936,41.1115173 C125.525781,41.1115173 126.299879,40.977639 127.002227,40.7098824 C127.704576,40.4421258 128.310576,40.0578367 128.820228,39.5570152 C129.32988,39.0561937 129.728519,38.4662777 130.016145,37.7872672 C130.30377,37.1082566 130.447583,36.3773663 130.447583,35.5945961 L130.447583,16.3908664 L140.161565,16.3908664 L140.161565,48.5282802 L131.038918,48.5282802 L130.621672,41.9365482 L132.407031,41.2099155 C131.945947,42.7268874 131.151666,44.0850662 130.024187,45.2844517 C128.896708,46.4838372 127.545783,47.4310774 125.971412,48.1261723 C124.397041,48.8212671 122.713233,49.1688145 120.91999,49.1688145 Z" id="path-4"></path>
        <path d="M148.811617,48.5282802 L148.811617,16.3908664 L158.028877,16.3908664 L158.446123,26.8333734 L156.623865,24.8285105 C157.113963,23.1090653 157.911398,21.5599247 159.01617,20.1810886 C160.120942,18.8022526 161.427557,17.7148265 162.936013,16.9188105 C164.44447,16.1227944 166.038237,15.7247864 167.717313,15.7247864 C168.426916,15.7247864 169.100249,15.7795046 169.737315,15.888941 C170.37438,15.9983775 170.944269,16.1338327 171.446983,16.2953066 L168.803478,27.0055702 C168.365732,26.7570517 167.772978,26.5332905 167.025215,26.3342865 C166.277452,26.1352825 165.493578,26.0357805 164.673593,26.0357805 C163.792424,26.0357805 162.973228,26.1896853 162.216004,26.497495 C161.458779,26.8053047 160.810991,27.2457312 160.272639,27.8187744 C159.734288,28.3918177 159.312626,29.0627861 159.007655,29.8316795 C158.702684,30.600573 158.550198,31.4659724 158.550198,32.4278777 L158.550198,48.5282802 L148.811617,48.5282802 Z" id="path-5"></path>
        <path d="M176.885183,48.5282802 L176.885183,16.3908664 L186.598218,16.3908664 L186.598218,48.5282802 L176.885183,48.5282802 Z M181.720886,10.0271532 C179.901781,10.0271532 178.484153,9.5912997 177.468003,8.71959273 C176.451852,7.84788576 175.943777,6.61254705 175.943777,5.01357659 C175.943777,3.54138841 176.461944,2.33774527 177.498279,1.40264716 C178.534614,0.467549053 179.942149,0 181.720886,0 C183.53936,0 184.95683,0.435853485 185.973295,1.30756045 C186.989761,2.17926742 187.497994,3.41460614 187.497994,5.01357659 C187.497994,6.48513402 186.979669,7.68861947 185.943019,8.62403295 C184.906369,9.55944644 183.498991,10.0271532 181.720886,10.0271532 Z" id="path-6"></path>
        <path d="M198.328831,48.5282802 L198.328831,8.24179386 L208.041867,8.24179386 L208.041867,48.5282802 L198.328831,48.5282802 Z M192.632144,24.8796018 L192.632144,16.3908664 L214.247575,16.3908664 L214.247575,24.8796018 L192.632144,24.8796018 Z" id="path-7"></path>
        <path d="M223.842869,62.4554075 L231.200025,45.2215336 L231.295585,50.1868573 L215.81301,16.3908664 L226.764538,16.3908664 L233.566312,32.5328989 C233.93026,33.3541452 234.270869,34.2305829 234.58814,35.1622118 C234.905411,36.0938408 235.153614,36.9866781 235.332749,37.8407239 L233.966528,38.6212864 C234.196755,38.0050362 234.469084,37.2440272 234.783517,36.3382593 C235.09795,35.4324914 235.431147,34.4399944 235.78311,33.3607682 L241.749446,16.3908664 L252.752066,16.3908664 L239.082287,48.5282802 L233.519006,62.4554075 L223.842869,62.4554075 Z" id="path-8"></path>
        <path d="M277.752226,48.5282802 L277.752226,6.14137114 L296.839581,6.14137114 C299.563192,6.14137114 302.01952,6.73097178 304.208564,7.91017307 C306.397608,9.08937436 308.120838,10.6926024 309.378253,12.7198573 C310.635668,14.7471121 311.264376,17.0553695 311.264376,19.6446293 C311.264376,22.3165184 310.635668,24.7110319 309.378253,26.8281697 C308.120838,28.9453075 306.401866,30.6108228 304.221337,31.8247158 C302.040808,33.0386087 299.580223,33.6455552 296.839581,33.6455552 L287.558929,33.6455552 L287.558929,48.5282802 L277.752226,48.5282802 Z M301.238169,48.5282802 L290.459783,29.3936184 L301.005419,27.8798002 L312.994859,48.5538259 L301.238169,48.5282802 Z M287.558929,25.7491011 L295.915206,25.7491011 C296.99317,25.7491011 297.921172,25.5144593 298.699212,25.0451757 C299.477251,24.575892 300.076471,23.9249502 300.496871,23.0923502 C300.917271,22.2597502 301.127471,21.2987911 301.127471,20.2094727 C301.127471,19.0980779 300.887152,18.1349111 300.406515,17.3199723 C299.925878,16.5050335 299.229206,15.870176 298.3165,15.4153998 C297.403794,14.9606236 296.316368,14.7332355 295.054222,14.7332355 L287.558929,14.7332355 L287.558929,25.7491011 Z" id="path-9"></path>
        <path d="M333.346164,49.1338075 C329.798152,49.1338075 326.710436,48.4201053 324.083016,46.9927009 C321.455595,45.5652965 319.419667,43.6115249 317.975232,41.1313861 C316.530798,38.6512473 315.80858,35.8021154 315.80858,32.5839902 C315.80858,30.1271895 316.212265,27.8693927 317.019635,25.8106 C317.827004,23.7518073 318.958741,21.9655018 320.414845,20.4516836 C321.870949,18.9378655 323.598121,17.7671794 325.596361,16.9396255 C327.594601,16.1120715 329.776076,15.6982945 332.140786,15.6982945 C334.385022,15.6982945 336.447283,16.1035563 338.327572,16.9140798 C340.20786,17.7246033 341.833007,18.8566554 343.203012,20.3102362 C344.573018,21.7638171 345.622914,23.48137 346.3527,25.4628949 C347.082487,27.4444198 347.415527,29.6030299 347.35182,31.9387252 L347.291268,34.5339773 L321.66138,34.5339773 L320.268667,29.1164005 L339.398598,29.1164005 L338.351225,30.2498718 L338.351225,29.0057025 C338.300134,27.9977519 338.001155,27.1022338 337.454288,26.3191483 C336.907421,25.5360628 336.187727,24.9229664 335.295205,24.4798592 C334.402683,24.036752 333.397571,23.8151984 332.279868,23.8151984 C330.679005,23.8151984 329.328869,24.1304195 328.229458,24.7608617 C327.130048,25.3913039 326.29524,26.301014 325.725035,27.489992 C325.154831,28.6789701 324.869728,30.1312894 324.869728,31.84695 C324.869728,33.6269479 325.247079,35.1779808 326.00178,36.5000486 C326.756482,37.8221165 327.848323,38.8461514 329.277304,39.5721534 C330.706286,40.2981554 332.415166,40.6611564 334.403944,40.6611564 C335.769534,40.6611564 336.98942,40.4624677 338.0636,40.0650905 C339.13778,39.6677132 340.288282,38.9795567 341.515105,38.0006209 L346.088728,44.4371866 C344.819013,45.5220896 343.47613,46.4046772 342.06008,47.0849492 C340.644029,47.7652212 339.205271,48.2767656 337.743806,48.6195824 C336.28234,48.9623991 334.81646,49.1338075 333.346164,49.1338075 Z" id="path-10"></path>
        <path d="M364.382275,49.1338075 C361.231641,49.1338075 358.453311,48.6290437 356.047287,47.6195162 C353.641262,46.6099887 351.720132,45.2549638 350.283897,43.5544414 L356.191572,38.4954502 C357.448672,39.7462425 358.863304,40.6613141 360.435467,41.2406649 C362.00763,41.8200157 363.504891,42.1096911 364.927249,42.1096911 C365.46907,42.1096911 365.960115,42.0535537 366.400384,41.9412789 C366.840653,41.829004 367.211696,41.6550726 367.513513,41.4194847 C367.815331,41.1838967 368.046819,40.9121979 368.207977,40.6043882 C368.369136,40.2965785 368.449715,39.9443004 368.449715,39.5475539 C368.449715,38.7527993 368.100906,38.1368645 367.403288,37.6997495 C367.022942,37.4865535 366.410476,37.2374042 365.565892,36.9523018 C364.721307,36.6671994 363.624104,36.3543436 362.274283,36.0137345 C360.37318,35.5242667 358.728006,34.9423928 357.338763,34.268113 C355.949519,33.5938331 354.816521,32.818632 353.939768,31.9425098 C353.12546,31.1061252 352.501641,30.170081 352.06831,29.134377 C351.63498,28.0986731 351.418314,26.9431252 351.418314,25.6677334 C351.418314,24.1501307 351.763181,22.7840675 352.452915,21.5695437 C353.142648,20.35502 354.0891,19.3108009 355.29227,18.4368862 C356.49544,17.5629716 357.868757,16.8924763 359.412221,16.4254003 C360.955684,15.9583244 362.560962,15.7247864 364.228055,15.7247864 C365.999853,15.7247864 367.692018,15.9207943 369.304549,16.3128101 C370.917081,16.7048259 372.424276,17.2669886 373.826135,17.9992982 C375.227994,18.7316077 376.468852,19.5992148 377.548709,20.6021193 L372.446195,26.2760991 C371.72587,25.6251573 370.911562,25.0243607 370.003271,24.4737093 C369.09498,23.923058 368.159094,23.4804238 367.195611,23.1458069 C366.232129,22.81119 365.343865,22.6438816 364.530818,22.6438816 C363.914568,22.6438816 363.373378,22.6957614 362.907248,22.799521 C362.441119,22.9032806 362.05131,23.0644392 361.737824,23.2829967 C361.424337,23.5015542 361.187015,23.766157 361.025856,24.0768051 C360.864698,24.3874532 360.784118,24.7411505 360.784118,25.137897 C360.80178,25.5472587 360.915789,25.9318631 361.126147,26.2917103 C361.336504,26.6515575 361.655195,26.9582634 362.082217,27.211828 C362.479595,27.4420545 363.116502,27.7156456 363.99294,28.0326012 C364.869377,28.3495569 366.086582,28.7158694 367.644553,29.1315386 C369.547549,29.6563289 371.178215,30.2489257 372.536551,30.9093289 C373.894888,31.569732 374.980579,32.3383102 375.793626,33.2150632 C376.462229,33.9126811 376.958004,34.7080664 377.280952,35.6012191 C377.6039,36.4943718 377.765374,37.4742537 377.765374,38.5408648 C377.765374,40.5889346 377.181135,42.4105625 376.012656,44.0057484 C374.844178,45.6009343 373.252934,46.8544073 371.238925,47.7661674 C369.224916,48.6779275 366.939366,49.1338075 364.382275,49.1338075 Z" id="path-11"></path>
        <path d="M398.808186,49.1338075 C395.260174,49.1338075 392.172458,48.4201053 389.545038,46.9927009 C386.917617,45.5652965 384.881689,43.6115249 383.437254,41.1313861 C381.992819,38.6512473 381.270602,35.8021154 381.270602,32.5839902 C381.270602,30.1271895 381.674287,27.8693927 382.481657,25.8106 C383.289026,23.7518073 384.420763,21.9655018 385.876867,20.4516836 C387.332971,18.9378655 389.060143,17.7671794 391.058383,16.9396255 C393.056623,16.1120715 395.238098,15.6982945 397.602808,15.6982945 C399.847043,15.6982945 401.909305,16.1035563 403.789594,16.9140798 C405.669882,17.7246033 407.295029,18.8566554 408.665034,20.3102362 C410.03504,21.7638171 411.084936,23.48137 411.814722,25.4628949 C412.544509,27.4444198 412.877549,29.6030299 412.813842,31.9387252 L412.75329,34.5339773 L387.123402,34.5339773 L385.730689,29.1164005 L404.86062,29.1164005 L403.813247,30.2498718 L403.813247,29.0057025 C403.762156,27.9977519 403.463177,27.1022338 402.91631,26.3191483 C402.369443,25.5360628 401.649749,24.9229664 400.757227,24.4798592 C399.864705,24.036752 398.859592,23.8151984 397.74189,23.8151984 C396.141027,23.8151984 394.790891,24.1304195 393.69148,24.7608617 C392.59207,25.3913039 391.757262,26.301014 391.187057,27.489992 C390.616852,28.6789701 390.33175,30.1312894 390.33175,31.84695 C390.33175,33.6269479 390.709101,35.1779808 391.463802,36.5000486 C392.218504,37.8221165 393.310345,38.8461514 394.739326,39.5721534 C396.168308,40.2981554 397.877188,40.6611564 399.865966,40.6611564 C401.231556,40.6611564 402.451441,40.4624677 403.525622,40.0650905 C404.599802,39.6677132 405.750304,38.9795567 406.977127,38.0006209 L411.55075,44.4371866 C410.281035,45.5220896 408.938152,46.4046772 407.522102,47.0849492 C406.106051,47.7652212 404.667293,48.2767656 403.205828,48.6195824 C401.744362,48.9623991 400.278482,49.1338075 398.808186,49.1338075 Z" id="path-12"></path>
        <path d="M430.818817,49.0988005 C428.14882,49.0988005 425.751311,48.3780022 423.626289,46.9364058 C421.501266,45.4948094 419.81604,43.5167536 418.570609,41.0022385 C417.325178,38.4877234 416.702463,35.6214033 416.702463,32.4032782 C416.702463,29.1447845 417.323759,26.2625378 418.566351,23.756538 C419.808944,21.2505381 421.515616,19.2854129 423.686368,17.8611623 C425.857121,16.4369117 428.335209,15.7247864 431.120635,15.7247864 C432.659683,15.7247864 434.069269,15.9438169 435.349391,16.3818781 C436.629514,16.8199392 437.755258,17.4322471 438.726625,18.2188018 C439.697992,19.0053565 440.52255,19.9117552 441.200299,20.9379977 C441.878048,21.9642403 442.390065,23.0652277 442.736351,24.2409598 L440.718242,23.999695 L440.718242,16.3908664 L450.318688,16.3908664 L450.318688,48.5282802 L440.544153,48.5282802 L440.544153,40.7510393 L442.727836,40.7094093 C442.392903,41.8454037 441.863698,42.9222646 441.140219,43.9399919 C440.41674,44.9577193 439.531787,45.8470875 438.48536,46.6080965 C437.438933,47.3691055 436.271559,47.9744751 434.983237,48.4242052 C433.694914,48.8739354 432.306774,49.0988005 430.818817,49.0988005 Z M433.53139,40.9128286 C435.011778,40.9128286 436.298997,40.5644928 437.393046,39.867821 C438.487095,39.1711493 439.331995,38.1849598 439.927745,36.9092526 C440.523496,35.6335454 440.821371,34.1315539 440.821371,32.4032782 C440.821371,30.6920329 440.523496,29.1971374 439.927745,27.9185918 C439.331995,26.6400462 438.487095,25.6524375 437.393046,24.9557658 C436.298997,24.2590941 435.011778,23.9107582 433.53139,23.9107582 C432.068663,23.9107582 430.800368,24.2590941 429.726503,24.9557658 C428.652638,25.6524375 427.81783,26.6400462 427.22208,27.9185918 C426.626329,29.1971374 426.328454,30.6920329 426.328454,32.4032782 C426.328454,34.1315539 426.626329,35.6335454 427.22208,36.9092526 C427.81783,38.1849598 428.652638,39.1711493 429.726503,39.867821 C430.800368,40.5644928 432.068663,40.9128286 433.53139,40.9128286 Z" id="path-13"></path>
        <path d="M458.899331,48.5282802 L458.899331,16.3908664 L468.116592,16.3908664 L468.533838,26.8333734 L466.711579,24.8285105 C467.201678,23.1090653 467.999113,21.5599247 469.103885,20.1810886 C470.208657,18.8022526 471.515271,17.7148265 473.023728,16.9188105 C474.532185,16.1227944 476.125952,15.7247864 477.805028,15.7247864 C478.514631,15.7247864 479.187964,15.7795046 479.825029,15.888941 C480.462095,15.9983775 481.031984,16.1338327 481.534698,16.2953066 L478.891193,27.0055702 C478.453447,26.7570517 477.860693,26.5332905 477.11293,26.3342865 C476.365166,26.1352825 475.581292,26.0357805 474.761308,26.0357805 C473.880139,26.0357805 473.060943,26.1896853 472.303718,26.497495 C471.546494,26.8053047 470.898706,27.2457312 470.360354,27.8187744 C469.822003,28.3918177 469.400341,29.0627861 469.09537,29.8316795 C468.790399,30.600573 468.637913,31.4659724 468.637913,32.4278777 L468.637913,48.5282802 L458.899331,48.5282802 Z" id="path-14"></path>
        <path d="M499.227256,49.1338075 C496.094914,49.1338075 493.298608,48.4071748 490.838338,46.9539093 C488.378068,45.5006439 486.437069,43.5167536 485.015341,41.0022385 C483.593614,38.4877234 482.88275,35.6299186 482.88275,32.4288239 C482.88275,29.2277292 483.593614,26.370082 485.015341,23.8558823 C486.437069,21.3416826 488.378068,19.35795 490.838338,17.9046845 C493.298608,16.4514191 496.094914,15.7247864 499.227256,15.7247864 C502.099095,15.7247864 504.736292,16.2246617 507.138848,17.2244125 C509.541404,18.2241633 511.440615,19.6320142 512.836481,21.4479652 L507.542848,27.7719407 C507.013012,27.0982916 506.359389,26.4823568 505.581981,25.9241364 C504.804572,25.3659159 503.954941,24.9284855 503.033089,24.6118452 C502.111237,24.2952049 501.13719,24.1368848 500.110947,24.1368848 C498.590191,24.1368848 497.246677,24.4894783 496.080406,25.1946652 C494.914135,25.8998522 494.002848,26.8772111 493.346545,28.1267418 C492.690242,29.3762726 492.36209,30.7989463 492.36209,32.394763 C492.36209,33.9666108 492.69308,35.3730425 493.35506,36.6140581 C494.01704,37.8550736 494.935423,38.8441015 496.110209,39.5811417 C497.284995,40.3181819 498.62709,40.686702 500.136493,40.686702 C501.180397,40.686702 502.141671,40.5514045 503.020316,40.2808095 C503.898962,40.0102145 504.718473,39.6099989 505.478852,39.0801625 C506.23923,38.5503261 506.927229,37.9113687 507.542848,37.1632902 L512.80242,43.5222727 C511.394569,45.2461332 509.472336,46.6123541 507.035719,47.6209355 C504.599103,48.6295168 501.996281,49.1338075 499.227256,49.1338075 Z" id="path-15"></path>
        <path d="M518.120047,48.5282802 L518.120047,3.71926205 L527.658993,3.71926205 L527.658993,22.9305609 L525.699545,23.6571936 C526.126568,22.1742826 526.919588,20.8373919 528.078605,19.6465216 C529.237622,18.4556513 530.6245,17.5043112 532.23924,16.7925012 C533.853979,16.0806913 535.544094,15.7247864 537.309584,15.7247864 C539.731693,15.7247864 541.773298,16.2164619 543.434398,17.199813 C545.095498,18.183164 546.347079,19.6495177 547.18914,21.598874 C548.031202,23.5482303 548.452232,25.9499974 548.452232,28.8041755 L548.452232,48.5282802 L538.739196,48.5282802 L538.739196,29.5752766 C538.739196,28.2916849 538.554857,27.2225508 538.18618,26.3678743 C537.817502,25.5131978 537.25597,24.8770788 536.501584,24.4595173 C535.747198,24.0419558 534.831969,23.8502055 533.755896,23.8842664 C532.892389,23.8842664 532.100788,24.0181447 531.381094,24.2859012 C530.661399,24.5536578 530.038369,24.9379469 529.512001,25.4387684 C528.985634,25.9395899 528.574223,26.5108986 528.277767,27.1526944 C527.981311,27.7944903 527.833083,28.5010964 527.833083,29.272513 L527.833083,48.5282802 L523.006841,48.5282802 C521.902384,48.5282802 520.943002,48.5282802 520.128694,48.5282802 C519.314386,48.5282802 518.644837,48.5282802 518.120047,48.5282802 Z" id="path-16"></path>
        <polygon id="path-17" points="4.08920136 117.637371 4.08920136 75.250462 14.383165 75.250462 14.383165 108.559193 33.2708852 108.559193 33.2708852 117.637371"></polygon>
        <path d="M54.043893,118.242898 C50.4958817,118.242898 47.4081656,117.529196 44.780745,116.101792 C42.1533243,114.674387 40.1173965,112.720616 38.6729617,110.240477 C37.2285268,107.760338 36.5063094,104.911206 36.5063094,101.693081 C36.5063094,99.2362804 36.9099942,96.9784836 37.7173639,94.9196909 C38.5247336,92.8608982 39.6564704,91.0745927 41.1125743,89.5607745 C42.5686781,88.0469564 44.2958501,86.8762703 46.2940901,86.0487164 C48.2923301,85.2211624 50.4738052,84.8073855 52.8385153,84.8073855 C55.0827508,84.8073855 57.1450127,85.2126472 59.025301,86.0231707 C60.9055893,86.8336942 62.5307362,87.9657463 63.9007417,89.4193272 C65.2707471,90.872908 66.3206431,92.5904609 67.0504296,94.5719858 C67.7802161,96.5535107 68.1132561,98.7121208 68.0495496,101.047816 L67.9889969,103.643068 L42.3591089,103.643068 L40.9663962,98.2254914 L60.0963274,98.2254914 L59.0489544,99.3589627 L59.0489544,98.1147934 C58.997863,97.1068428 58.6988839,96.2113247 58.1520171,95.4282392 C57.6051503,94.6451537 56.8854559,94.0320573 55.9929339,93.5889501 C55.100412,93.1458429 54.0952998,92.9242893 52.9775974,92.9242893 C51.3767346,92.9242893 50.026598,93.2395104 48.9271876,93.8699526 C47.8277771,94.5003948 46.9929695,95.4101049 46.4227646,96.599083 C45.8525598,97.788061 45.5674574,99.2403803 45.5674574,100.956041 C45.5674574,102.736039 45.9448081,104.287072 46.6995095,105.60914 C47.454211,106.931207 48.5460523,107.955242 49.9750336,108.681244 C51.4040149,109.407246 53.1128949,109.770247 55.1016735,109.770247 C56.4672636,109.770247 57.6871488,109.571559 58.7613289,109.174181 C59.8355091,108.776804 60.9860109,108.088648 62.2128344,107.109712 L66.7864576,113.546277 C65.5167426,114.631181 64.1738597,115.513768 62.7578089,116.19404 C61.3417582,116.874312 59.9030002,117.385857 58.4415349,117.728673 C56.9800695,118.07149 55.5141889,118.242898 54.043893,118.242898 Z" id="path-18"></path>
        <path d="M88.6195003,131.564498 C85.9879797,131.564498 83.3782202,131.182259 80.7902219,130.417781 C78.2022236,129.653303 76.0945471,128.659544 74.4671926,127.436505 L77.8458455,120.646085 C78.6992605,121.228274 79.6362509,121.734142 80.6568167,122.163687 C81.6773824,122.593233 82.7525087,122.921858 83.8821955,123.149562 C85.0118824,123.377265 86.1737378,123.491117 87.3677619,123.491117 C89.4025858,123.491117 91.0740934,123.191507 92.3822846,122.592287 C93.6904758,121.993068 94.6643655,121.079731 95.3039537,119.852276 C95.9435419,118.624822 96.263336,117.077258 96.263336,115.209585 L96.263336,109.824177 L98.1111403,110.143025 C97.8399145,111.464462 97.1550695,112.671417 96.0566052,113.763889 C94.9581409,114.856361 93.5928661,115.731064 91.9607809,116.387998 C90.3286956,117.044932 88.621708,117.373399 86.8398178,117.373399 C83.9049028,117.373399 81.3030278,116.697542 79.0341928,115.345829 C76.7653578,113.994115 74.9736909,112.123288 73.6591921,109.733348 C72.3446933,107.343407 71.6874439,104.565236 71.6874439,101.398833 C71.6874439,98.1636771 72.3346012,95.3047684 73.6289158,92.8221066 C74.9232303,90.3394448 76.6931361,88.3874078 78.938633,86.9659956 C81.18413,85.5445834 83.7339675,84.8338773 86.5881455,84.8338773 C87.7992001,84.8338773 88.9583748,84.9677556 90.0656697,85.2355122 C91.1729647,85.5032687 92.1995226,85.8749427 93.1453436,86.3505339 C94.0911646,86.8261251 94.9359067,87.3751995 95.6795699,87.9977573 C96.423233,88.620315 97.031441,89.2949102 97.5041938,90.021543 C97.9769466,90.7481757 98.2855448,91.4924696 98.4299883,92.2544248 L96.4374251,92.7738536 L96.8196642,85.4999573 L106.011379,85.4999573 L106.011379,115.004274 C106.011379,117.64021 105.61479,119.983474 104.821612,122.034067 C104.028435,124.08466 102.879037,125.820978 101.373418,127.243021 C99.8678002,128.665064 98.0420724,129.740821 95.8962351,130.470292 C93.7503978,131.199763 91.3248195,131.564498 88.6195003,131.564498 Z M88.8967183,109.882837 C90.4572125,109.882837 91.8133413,109.534502 92.9651046,108.83783 C94.116868,108.141158 95.000717,107.165061 95.6166518,105.909538 C96.2325866,104.654015 96.5405539,103.173785 96.5405539,101.468847 C96.5405539,99.7632783 96.2283289,98.2726405 95.6038789,96.9969333 C94.9794289,95.7212261 94.0955799,94.7350366 92.9523318,94.0383649 C91.8090837,93.3416931 90.4572125,92.9933573 88.8967183,92.9933573 C87.3526237,92.9933573 86.0149446,93.3461084 84.8836809,94.0516108 C83.7524172,94.7571131 82.8744026,95.7477179 82.2496372,97.0234251 C81.6248719,98.2991323 81.3124892,99.7809395 81.3124892,101.468847 C81.3124892,103.156754 81.6248719,104.632727 82.2496372,105.896765 C82.8744026,107.160803 83.7524172,108.141158 84.8836809,108.83783 C86.0149446,109.534502 87.3526237,109.882837 88.8967183,109.882837 Z" id="path-19"></path>
        <path d="M126.26719,118.207891 C123.597193,118.207891 121.199684,117.487093 119.074662,116.045497 C116.949639,114.6039 115.264413,112.625845 114.018982,110.111329 C112.773551,107.596814 112.150836,104.730494 112.150836,101.512369 C112.150836,98.2538755 112.772132,95.3716287 114.014724,92.8656289 C115.257317,90.359629 116.963989,88.3945038 119.134741,86.9702532 C121.305493,85.5460026 123.783582,84.8338773 126.569008,84.8338773 C128.108056,84.8338773 129.517642,85.0529078 130.797764,85.490969 C132.077887,85.9290301 133.203631,86.541338 134.174998,87.3278927 C135.146365,88.1144474 135.970922,89.0208461 136.648671,90.0470886 C137.32642,91.0733312 137.838438,92.1743186 138.184724,93.3500507 L136.166615,93.1087859 L136.166615,85.4999573 L145.767061,85.4999573 L145.767061,117.637371 L135.992526,117.637371 L135.992526,109.86013 L138.176209,109.8185 C137.841276,110.954495 137.312071,112.031355 136.588592,113.049083 C135.865113,114.06681 134.98016,114.956178 133.933733,115.717187 C132.887306,116.478196 131.719932,117.083566 130.431609,117.533296 C129.143287,117.983026 127.755147,118.207891 126.26719,118.207891 Z M128.979763,110.02192 C130.460151,110.02192 131.74737,109.673584 132.841419,108.976912 C133.935468,108.28024 134.780367,107.294051 135.376118,106.018344 C135.971869,104.742636 136.269744,103.240645 136.269744,101.512369 C136.269744,99.8011238 135.971869,98.3062283 135.376118,97.0276827 C134.780367,95.7491371 133.935468,94.7615284 132.841419,94.0648567 C131.74737,93.368185 130.460151,93.0198491 128.979763,93.0198491 C127.517036,93.0198491 126.248741,93.368185 125.174876,94.0648567 C124.101011,94.7615284 123.266203,95.7491371 122.670453,97.0276827 C122.074702,98.3062283 121.776827,99.8011238 121.776827,101.512369 C121.776827,103.240645 122.074702,104.742636 122.670453,106.018344 C123.266203,107.294051 124.101011,108.28024 125.174876,108.976912 C126.248741,109.673584 127.517036,110.02192 128.979763,110.02192 Z" id="path-20"></path>
        <polygon id="path-21" points="154.398796 117.637371 154.398796 72.828353 164.111832 72.828353 164.111832 117.637371"></polygon>
        <path d="M193.150871,117.637371 L193.150871,75.250462 L210.924042,75.250462 C214.0444,75.250462 216.889432,75.7665794 219.459138,76.7988142 C222.028845,77.831049 224.251161,79.2901489 226.126088,81.1761141 C228.001015,83.0620792 229.443242,85.2968533 230.45277,87.8804364 C231.462297,90.4640194 231.967061,93.3185128 231.967061,96.4439166 C231.967061,99.5466131 231.462297,102.399845 230.45277,105.003612 C229.443242,107.60738 228.005273,109.84783 226.138861,111.724965 C224.272449,113.6021 222.050133,115.056784 219.471911,116.089019 C216.89369,117.121254 214.0444,117.637371 210.924042,117.637371 L193.150871,117.637371 Z M203.444834,110.615147 L202.081452,108.559193 L210.621279,108.559193 C212.297201,108.559193 213.80487,108.268098 215.144284,107.685909 C216.483697,107.10372 217.630099,106.286889 218.583489,105.235416 C219.536879,104.183943 220.269977,102.909339 220.782783,101.411606 C221.295589,99.9138717 221.551992,98.2579754 221.551992,96.4439166 C221.551992,94.6298578 221.295589,92.9782191 220.782783,91.4890005 C220.269977,89.9997818 219.532464,88.7251784 218.570243,87.6651903 C217.608023,86.6052022 216.461621,85.7841136 215.131038,85.2019243 C213.800454,84.6197351 212.297201,84.3286405 210.621279,84.3286405 L201.899794,84.3286405 L203.444834,82.3937916 L203.444834,110.615147 Z" id="path-22"></path>
        <path d="M254.208051,118.242898 C250.66004,118.242898 247.572324,117.529196 244.944903,116.101792 C242.317482,114.674387 240.281555,112.720616 238.83712,110.240477 C237.392685,107.760338 236.670468,104.911206 236.670468,101.693081 C236.670468,99.2362804 237.074152,96.9784836 237.881522,94.9196909 C238.688892,92.8608982 239.820629,91.0745927 241.276732,89.5607745 C242.732836,88.0469564 244.460008,86.8762703 246.458248,86.0487164 C248.456488,85.2211624 250.637963,84.8073855 253.002674,84.8073855 C255.246909,84.8073855 257.309171,85.2126472 259.189459,86.0231707 C261.069748,86.8336942 262.694894,87.9657463 264.0649,89.4193272 C265.434905,90.872908 266.484801,92.5904609 267.214588,94.5719858 C267.944374,96.5535107 268.277414,98.7121208 268.213708,101.047816 L268.153155,103.643068 L242.523267,103.643068 L241.130554,98.2254914 L260.260486,98.2254914 L259.213113,99.3589627 L259.213113,98.1147934 C259.162021,97.1068428 258.863042,96.2113247 258.316175,95.4282392 C257.769309,94.6451537 257.049614,94.0320573 256.157092,93.5889501 C255.26457,93.1458429 254.259458,92.9242893 253.141756,92.9242893 C251.540893,92.9242893 250.190756,93.2395104 249.091346,93.8699526 C247.991935,94.5003948 247.157128,95.4101049 246.586923,96.599083 C246.016718,97.788061 245.731616,99.2403803 245.731616,100.956041 C245.731616,102.736039 246.108966,104.287072 246.863668,105.60914 C247.618369,106.931207 248.710211,107.955242 250.139192,108.681244 C251.568173,109.407246 253.277053,109.770247 255.265832,109.770247 C256.631422,109.770247 257.851307,109.571559 258.925487,109.174181 C259.999667,108.776804 261.150169,108.088648 262.376993,107.109712 L266.950616,113.546277 C265.680901,114.631181 264.338018,115.513768 262.921967,116.19404 C261.505916,116.874312 260.067158,117.385857 258.605693,117.728673 C257.144228,118.07149 255.678347,118.242898 254.208051,118.242898 Z" id="path-23"></path>
        <path d="M276.395895,117.637371 L276.395895,83.9085559 C276.395895,81.81381 276.851775,79.9209065 277.763535,78.2298455 C278.675295,76.5387844 279.947691,75.1911708 281.580722,74.1870048 C283.213754,73.1828387 285.120849,72.6807557 287.302009,72.6807557 C288.802581,72.6807557 290.199079,72.9112976 291.491501,73.3723814 C292.783923,73.8334652 293.935686,74.4560229 294.946791,75.2400545 L292.201103,82.3181007 C291.676313,82.0424596 291.164926,81.8227983 290.666943,81.6591167 C290.16896,81.4954351 289.718441,81.4135943 289.315387,81.4135943 C288.583078,81.4135943 287.982281,81.5389574 287.512997,81.7896835 C287.043714,82.0404097 286.696797,82.4150797 286.472247,82.9136935 C286.247698,83.4123074 286.135423,84.0220923 286.135423,84.7430482 L286.135423,117.637371 L281.282689,117.637371 C280.178864,117.637371 279.219639,117.637371 278.405016,117.637371 C277.590392,117.637371 276.920685,117.637371 276.395895,117.637371 Z M271.691705,94.4040466 L271.691705,86.3921639 L292.739455,86.3921639 L292.739455,94.4040466 L271.691705,94.4040466 Z" id="path-24"></path>
        <path d="M312.278117,118.242898 C308.730105,118.242898 305.642389,117.529196 303.014969,116.101792 C300.387548,114.674387 298.35162,112.720616 296.907185,110.240477 C295.46275,107.760338 294.740533,104.911206 294.740533,101.693081 C294.740533,99.2362804 295.144218,96.9784836 295.951588,94.9196909 C296.758957,92.8608982 297.890694,91.0745927 299.346798,89.5607745 C300.802902,88.0469564 302.530074,86.8762703 304.528314,86.0487164 C306.526554,85.2211624 308.708029,84.8073855 311.072739,84.8073855 C313.316974,84.8073855 315.379236,85.2126472 317.259525,86.0231707 C319.139813,86.8336942 320.76496,87.9657463 322.134965,89.4193272 C323.504971,90.872908 324.554867,92.5904609 325.284653,94.5719858 C326.01444,96.5535107 326.34748,98.7121208 326.283773,101.047816 L326.223221,103.643068 L300.593333,103.643068 L299.20062,98.2254914 L318.330551,98.2254914 L317.283178,99.3589627 L317.283178,98.1147934 C317.232087,97.1068428 316.933108,96.2113247 316.386241,95.4282392 C315.839374,94.6451537 315.11968,94.0320573 314.227158,93.5889501 C313.334636,93.1458429 312.329523,92.9242893 311.211821,92.9242893 C309.610958,92.9242893 308.260822,93.2395104 307.161411,93.8699526 C306.062001,94.5003948 305.227193,95.4101049 304.656988,96.599083 C304.086783,97.788061 303.801681,99.2403803 303.801681,100.956041 C303.801681,102.736039 304.179032,104.287072 304.933733,105.60914 C305.688435,106.931207 306.780276,107.955242 308.209257,108.681244 C309.638239,109.407246 311.347119,109.770247 313.335897,109.770247 C314.701487,109.770247 315.921372,109.571559 316.995553,109.174181 C318.069733,108.776804 319.220235,108.088648 320.447058,107.109712 L325.020681,113.546277 C323.750966,114.631181 322.408083,115.513768 320.992033,116.19404 C319.575982,116.874312 318.137224,117.385857 316.675759,117.728673 C315.214293,118.07149 313.748413,118.242898 312.278117,118.242898 Z" id="path-25"></path>
        <path d="M332.440283,117.637371 L332.440283,85.4999573 L341.631997,85.4999573 L341.979229,92.0396518 L340.019781,92.7662845 C340.446804,91.2833735 341.239824,89.9464828 342.398841,88.7556125 C343.557858,87.5647422 344.944736,86.6134021 346.559476,85.9015922 C348.174215,85.1897822 349.86433,84.8338773 351.62982,84.8338773 C354.051929,84.8338773 356.093534,85.3255528 357.754634,86.3089039 C359.415734,87.2922549 360.667315,88.7586086 361.509376,90.7079649 C362.351438,92.6573212 362.772468,95.0590883 362.772468,97.9132664 L362.772468,117.637371 L353.059432,117.637371 L353.059432,98.6843675 C353.059432,97.4007758 352.875093,96.3316417 352.506416,95.4769652 C352.137738,94.6222887 351.576206,93.9861697 350.82182,93.5686082 C350.067434,93.1510467 349.152205,92.9592964 348.076132,92.9933573 C347.212625,92.9933573 346.421024,93.1272356 345.70133,93.3949922 C344.981635,93.6627487 344.358605,94.0470378 343.832237,94.5478593 C343.30587,95.0486808 342.894459,95.6199895 342.598003,96.2617853 C342.301547,96.9035812 342.153319,97.6101873 342.153319,98.3816039 L342.153319,117.637371 L337.327077,117.637371 C336.22262,117.637371 335.263238,117.637371 334.44893,117.637371 C333.634622,117.637371 332.965073,117.637371 332.440283,117.637371 Z" id="path-26"></path>
        <path d="M381.776519,118.242898 C378.625885,118.242898 375.847555,117.738135 373.441531,116.728607 C371.035506,115.71908 369.114376,114.364055 367.678141,112.663532 L373.585816,107.604541 C374.842916,108.855333 376.257548,109.770405 377.829711,110.349756 C379.401874,110.929107 380.899135,111.218782 382.321493,111.218782 C382.863314,111.218782 383.354359,111.162645 383.794628,111.05037 C384.234897,110.938095 384.60594,110.764164 384.907757,110.528576 C385.209575,110.292988 385.441063,110.021289 385.602221,109.713479 C385.76338,109.405669 385.843959,109.053391 385.843959,108.656645 C385.843959,107.86189 385.49515,107.245955 384.797532,106.80884 C384.417186,106.595644 383.80472,106.346495 382.960136,106.061393 C382.115551,105.77629 381.018348,105.463435 379.668527,105.122825 C377.767424,104.633358 376.12225,104.051484 374.733007,103.377204 C373.343763,102.702924 372.210765,101.927723 371.334012,101.051601 C370.519704,100.215216 369.895885,99.2791719 369.462554,98.243468 C369.029224,97.207764 368.812558,96.0522161 368.812558,94.7768243 C368.812558,93.2592216 369.157425,91.8931584 369.847159,90.6786347 C370.536892,89.4641109 371.483344,88.4198918 372.686514,87.5459772 C373.889684,86.6720625 375.263001,86.0015672 376.806465,85.5344912 C378.349928,85.0674153 379.955206,84.8338773 381.622299,84.8338773 C383.394097,84.8338773 385.086262,85.0298852 386.698793,85.421901 C388.311325,85.8139169 389.81852,86.3760795 391.220379,87.1083891 C392.622238,87.8406986 393.863096,88.7083057 394.942953,89.7112102 L389.840439,95.38519 C389.120114,94.7342482 388.305806,94.1334516 387.397515,93.5828002 C386.489224,93.0321489 385.553338,92.5895147 384.589855,92.2548978 C383.626373,91.9202809 382.738109,91.7529725 381.925062,91.7529725 C381.308812,91.7529725 380.767622,91.8048523 380.301492,91.9086119 C379.835362,92.0123716 379.445554,92.1735301 379.132068,92.3920876 C378.818581,92.6106451 378.581259,92.8752479 378.4201,93.185896 C378.258942,93.4965441 378.178362,93.8502414 378.178362,94.246988 C378.196024,94.6563496 378.310033,95.0409541 378.520391,95.4008012 C378.730748,95.7606484 379.049439,96.0673543 379.476461,96.3209189 C379.873839,96.5511454 380.510746,96.8247365 381.387184,97.1416922 C382.263621,97.4586478 383.480826,97.8249603 385.038797,98.2406295 C386.941793,98.7654198 388.572459,99.3580166 389.930795,100.01842 C391.289132,100.678823 392.374823,101.447401 393.18787,102.324154 C393.856473,103.021772 394.352248,103.817157 394.675196,104.71031 C394.998144,105.603463 395.159618,106.583345 395.159618,107.649956 C395.159618,109.698026 394.575379,111.519653 393.4069,113.114839 C392.238422,114.710025 390.647178,115.963498 388.633169,116.875258 C386.61916,117.787018 384.33361,118.242898 381.776519,118.242898 Z" id="path-27"></path>
        <path d="M416.20243,118.242898 C412.654418,118.242898 409.566702,117.529196 406.939282,116.101792 C404.311861,114.674387 402.275933,112.720616 400.831498,110.240477 C399.387063,107.760338 398.664846,104.911206 398.664846,101.693081 C398.664846,99.2362804 399.068531,96.9784836 399.875901,94.9196909 C400.68327,92.8608982 401.815007,91.0745927 403.271111,89.5607745 C404.727215,88.0469564 406.454387,86.8762703 408.452627,86.0487164 C410.450867,85.2211624 412.632342,84.8073855 414.997052,84.8073855 C417.241287,84.8073855 419.303549,85.2126472 421.183838,86.0231707 C423.064126,86.8336942 424.689273,87.9657463 426.059278,89.4193272 C427.429284,90.872908 428.47918,92.5904609 429.208966,94.5719858 C429.938753,96.5535107 430.271793,98.7121208 430.208086,101.047816 L430.147534,103.643068 L404.517646,103.643068 L403.124933,98.2254914 L422.254864,98.2254914 L421.207491,99.3589627 L421.207491,98.1147934 C421.1564,97.1068428 420.857421,96.2113247 420.310554,95.4282392 C419.763687,94.6451537 419.043993,94.0320573 418.151471,93.5889501 C417.258949,93.1458429 416.253836,92.9242893 415.136134,92.9242893 C413.535271,92.9242893 412.185135,93.2395104 411.085724,93.8699526 C409.986314,94.5003948 409.151506,95.4101049 408.581301,96.599083 C408.011096,97.788061 407.725994,99.2403803 407.725994,100.956041 C407.725994,102.736039 408.103345,104.287072 408.858046,105.60914 C409.612748,106.931207 410.704589,107.955242 412.13357,108.681244 C413.562552,109.407246 415.271432,109.770247 417.26021,109.770247 C418.6258,109.770247 419.845685,109.571559 420.919866,109.174181 C421.994046,108.776804 423.144548,108.088648 424.371371,107.109712 L428.944994,113.546277 C427.675279,114.631181 426.332396,115.513768 424.916346,116.19404 C423.500295,116.874312 422.061537,117.385857 420.600072,117.728673 C419.138606,118.07149 417.672726,118.242898 416.20243,118.242898 Z" id="path-28"></path>
        <path d="M456.77082,117.637371 L456.77082,75.250462 L467.064784,75.250462 L467.064784,117.637371 L456.77082,117.637371 Z M461.588547,101.400725 L461.588547,92.8088607 L483.518095,92.8088607 L483.518095,101.400725 L461.588547,101.400725 Z M461.588547,84.3286405 L461.588547,75.250462 L485.964804,75.250462 L485.964804,84.3286405 L461.588547,84.3286405 Z" id="path-29"></path>
        <path d="M503.238209,118.277905 C500.861514,118.277905 498.829686,117.764626 497.142725,116.738069 C495.455764,115.711511 494.163972,114.232226 493.267351,112.300216 C492.370729,110.368205 491.922418,108.043864 491.922418,105.327191 L491.922418,85.4999573 L501.635454,85.4999573 L501.635454,104.013954 C501.635454,105.314576 501.847073,106.426759 502.270311,107.350504 C502.693549,108.274248 503.303807,108.983535 504.101085,109.478364 C504.898363,109.973194 505.864052,110.220608 506.998155,110.220608 C507.844,110.220608 508.618098,110.08673 509.320446,109.818973 C510.022795,109.551217 510.628795,109.166928 511.138447,108.666106 C511.648099,108.165285 512.046738,107.575369 512.334364,106.896358 C512.621989,106.217348 512.765802,105.486457 512.765802,104.703687 L512.765802,85.4999573 L522.479784,85.4999573 L522.479784,117.637371 L513.357137,117.637371 L512.939891,111.045639 L514.72525,110.319006 C514.264166,111.835978 513.469885,113.194157 512.342406,114.393543 C511.214927,115.592928 509.864002,116.540168 508.289631,117.235263 C506.71526,117.930358 505.031452,118.277905 503.238209,118.277905 Z" id="path-30"></path>
        <path d="M531.129836,117.637371 L531.129836,85.4999573 L540.32155,85.4999573 L540.668782,92.0396518 L538.709334,92.7662845 C539.136357,91.2833735 539.929377,89.9464828 541.088394,88.7556125 C542.247411,87.5647422 543.634289,86.6134021 545.249028,85.9015922 C546.863768,85.1897822 548.553883,84.8338773 550.319373,84.8338773 C552.741482,84.8338773 554.783087,85.3255528 556.444187,86.3089039 C558.105287,87.2922549 559.356868,88.7586086 560.198929,90.7079649 C561.040991,92.6573212 561.462021,95.0590883 561.462021,97.9132664 L561.462021,117.637371 L551.748985,117.637371 L551.748985,98.6843675 C551.748985,97.4007758 551.564646,96.3316417 551.195969,95.4769652 C550.827291,94.6222887 550.265759,93.9861697 549.511373,93.5686082 C548.756987,93.1510467 547.841757,92.9592964 546.765685,92.9933573 C545.902178,92.9933573 545.110577,93.1272356 544.390883,93.3949922 C543.671188,93.6627487 543.048158,94.0470378 542.52179,94.5478593 C541.995423,95.0486808 541.584012,95.6199895 541.287556,96.2617853 C540.991099,96.9035812 540.842871,97.6101873 540.842871,98.3816039 L540.842871,117.637371 L536.01663,117.637371 C534.912173,117.637371 533.952791,117.637371 533.138483,117.637371 C532.324175,117.637371 531.654626,117.637371 531.129836,117.637371 Z" id="path-31"></path>
        <path d="M581.775525,118.277905 C579.00776,118.277905 576.541341,117.561365 574.376265,116.128284 C572.21119,114.695202 570.503256,112.725662 569.252464,110.219662 C568.001671,107.713662 567.376275,104.831415 567.376275,101.572922 C567.376275,98.3377662 568.003248,95.461354 569.257194,92.9436851 C570.51114,90.4260162 572.227905,88.4449644 574.407488,87.0005295 C576.58707,85.5560947 579.074936,84.8338773 581.871084,84.8338773 C583.330027,84.8338773 584.732516,85.0513309 586.078553,85.4862383 C587.424589,85.9211456 588.63659,86.5261998 589.714555,87.3014009 C590.79252,88.076602 591.676053,88.9557203 592.365156,89.938756 C593.054258,90.9217917 593.468509,91.9497689 593.607906,93.0226875 L591.269057,93.5610391 L591.269057,72.828353 L601.0171,72.828353 L601.0171,117.637371 L591.999474,117.637371 L591.443146,110.311437 L593.384618,110.624608 C593.268558,111.639497 592.876069,112.603926 592.207151,113.517893 C591.538233,114.431861 590.680402,115.246169 589.63366,115.960817 C588.586918,116.675466 587.384536,117.240309 586.026515,117.655348 C584.668494,118.070386 583.251497,118.277905 581.775525,118.277905 Z M584.256294,110.246154 C585.736682,110.246154 587.023901,109.883468 588.11795,109.158097 C589.211999,108.432726 590.056898,107.423514 590.652649,106.130461 C591.2484,104.837408 591.546275,103.318228 591.546275,101.572922 C591.546275,99.8276156 591.2484,98.3026015 590.652649,96.9978794 C590.056898,95.6931574 589.211999,94.6839453 588.11795,93.9702431 C587.023901,93.2565409 585.736682,92.8996898 584.256294,92.8996898 C582.776537,92.8996898 581.495468,93.2565409 580.413088,93.9702431 C579.330708,94.6839453 578.491485,95.6931574 577.895419,96.9978794 C577.299353,98.3026015 577.00132,99.8276156 577.00132,101.572922 C577.00132,103.318228 577.299353,104.837408 577.895419,106.130461 C578.491485,107.423514 579.330708,108.432726 580.413088,109.158097 C581.495468,109.883468 582.776537,110.246154 584.256294,110.246154 Z" id="path-32"></path>
        <polygon id="path-33" points="0 0 177.684932 0 177.684932 181 0 181"></polygon>
    </defs>
    <g id="Page-1" stroke="none" stroke-width="1" fill="none" fill-rule="evenodd">
        <g id="logo" transform="translate(0.608307, 0.500000)">
            <g id="Security-Research-Le" transform="translate(231.766286, 28.808083)" fill-rule="nonzero">
                <g id="Path">
                    <use fill="#000000" xlink:href="#path-1"></use>
                    <use fill="#FFFFFF" xlink:href="#path-1"></use>
                </g>
                <g id="Path">
                    <use fill="#000000" xlink:href="#path-2"></use>
                    <use fill="#FFFFFF" xlink:href="#path-2"></use>
                </g>
                <g id="Path">
                    <use fill="#000000" xlink:href="#path-3"></use>
                    <use fill="#FFFFFF" xlink:href="#path-3"></use>
                </g>
                <g id="Path">
                    <use fill="#000000" xlink:href="#path-4"></use>
                    <use fill="#FFFFFF" xlink:href="#path-4"></use>
                </g>
                <g id="Path">
                    <use fill="#000000" xlink:href="#path-5"></use>
                    <use fill="#FFFFFF" xlink:href="#path-5"></use>
                </g>
                <g id="Shape">
                    <use fill="#000000" xlink:href="#path-6"></use>
                    <use fill="#FFFFFF" xlink:href="#path-6"></use>
                </g>
                <g id="Shape">
                    <use fill="#000000" xlink:href="#path-7"></use>
                    <use fill="#FFFFFF" xlink:href="#path-7"></use>
                </g>
                <g id="Path">
                    <use fill="#000000" xlink:href="#path-8"></use>
                    <use fill="#FFFFFF" xlink:href="#path-8"></use>
                </g>
                <g id="Shape">
                    <use fill="#000000" xlink:href="#path-9"></use>
                    <use fill="#FFFFFF" xlink:href="#path-9"></use>
                </g>
                <g id="Path">
                    <use fill="#000000" xlink:href="#path-10"></use>
                    <use fill="#FFFFFF" xlink:href="#path-10"></use>
                </g>
                <g id="Path">
                    <use fill="#000000" xlink:href="#path-11"></use>
                    <use fill="#FFFFFF" xlink:href="#path-11"></use>
                </g>
                <g id="Path">
                    <use fill="#000000" xlink:href="#path-12"></use>
                    <use fill="#FFFFFF" xlink:href="#path-12"></use>
                </g>
                <g id="Shape">
                    <use fill="#000000" xlink:href="#path-13"></use>
                    <use fill="#FFFFFF" xlink:href="#path-13"></use>
                </g>
                <g id="Path">
                    <use fill="#000000" xlink:href="#path-14"></use>
                    <use fill="#FFFFFF" xlink:href="#path-14"></use>
                </g>
                <g id="Path">
                    <use fill="#000000" xlink:href="#path-15"></use>
                    <use fill="#FFFFFF" xlink:href="#path-15"></use>
                </g>
                <g id="Path">
                    <use fill="#000000" xlink:href="#path-16"></use>
                    <use fill="#FFFFFF" xlink:href="#path-16"></use>
                </g>
                <g id="Path">
                    <use fill="#ED2A00" xlink:href="#path-17"></use>
                    <use fill="#FFFFFF" xlink:href="#path-17"></use>
                </g>
                <g id="Path">
                    <use fill="#ED2A00" xlink:href="#path-18"></use>
                    <use fill="#FFFFFF" xlink:href="#path-18"></use>
                </g>
                <g id="Shape">
                    <use fill="#ED2A00" xlink:href="#path-19"></use>
                    <use fill="#FFFFFF" xlink:href="#path-19"></use>
                </g>
                <g id="Shape">
                    <use fill="#ED2A00" xlink:href="#path-20"></use>
                    <use fill="#FFFFFF" xlink:href="#path-20"></use>
                </g>
                <g id="Path">
                    <use fill="#ED2A00" xlink:href="#path-21"></use>
                    <use fill="#FFFFFF" xlink:href="#path-21"></use>
                </g>
                <g id="Shape">
                    <use fill="#ED2A00" xlink:href="#path-22"></use>
                    <use fill="#FFFFFF" xlink:href="#path-22"></use>
                </g>
                <g id="Path">
                    <use fill="#ED2A00" xlink:href="#path-23"></use>
                    <use fill="#FFFFFF" xlink:href="#path-23"></use>
                </g>
                <g id="Shape">
                    <use fill="#ED2A00" xlink:href="#path-24"></use>
                    <use fill="#FFFFFF" xlink:href="#path-24"></use>
                </g>
                <g id="Path">
                    <use fill="#ED2A00" xlink:href="#path-25"></use>
                    <use fill="#FFFFFF" xlink:href="#path-25"></use>
                </g>
                <g id="Path">
                    <use fill="#ED2A00" xlink:href="#path-26"></use>
                    <use fill="#FFFFFF" xlink:href="#path-26"></use>
                </g>
                <g id="Path">
                    <use fill="#ED2A00" xlink:href="#path-27"></use>
                    <use fill="#FFFFFF" xlink:href="#path-27"></use>
                </g>
                <g id="Path">
                    <use fill="#ED2A00" xlink:href="#path-28"></use>
                    <use fill="#FFFFFF" xlink:href="#path-28"></use>
                </g>
                <g id="Shape">
                    <use fill="#ED2A00" xlink:href="#path-29"></use>
                    <use fill="#FFFFFF" xlink:href="#path-29"></use>
                </g>
                <g id="Path">
                    <use fill="#ED2A00" xlink:href="#path-30"></use>
                    <use fill="#FFFFFF" xlink:href="#path-30"></use>
                </g>
                <g id="Path">
                    <use fill="#ED2A00" xlink:href="#path-31"></use>
                    <use fill="#FFFFFF" xlink:href="#path-31"></use>
                </g>
                <g id="Shape">
                    <use fill="#ED2A00" xlink:href="#path-32"></use>
                    <use fill="#FFFFFF" xlink:href="#path-32"></use>
                </g>
            </g>
            <g id="Group-3">
                <mask id="mask-34" fill="white">
                    <use xlink:href="#path-33"></use>
                </mask>
                <g id="Clip-2"></g>
                <path d="M130.656958,70.3997361 L156.195718,114.499889 C155.389245,115.862622 154.266048,117.538029 153.602414,118.913647 C146.192975,131.269789 137.246917,142.603974 127.050532,152.634205 C116.853288,162.672166 105.392586,171.425441 92.9380283,178.630685 L88.8452886,181.000037 L84.7520581,178.630685 C71.8560995,171.171056 60.0513091,162.088296 49.6450842,151.682071 C41.6003572,143.639553 34.3465186,134.759147 28.0275111,125.182956 L53.7277613,132.07614 C56.1328226,134.839033 58.6270966,137.5202 61.214142,140.11154 C69.5546084,148.449553 78.8296606,155.819846 88.8432025,162.04191 C98.5428433,156.023796 107.520806,148.953169 115.604556,140.993973 C123.769174,132.960536 131.03602,124.017669 137.233664,114.348461 L116.520244,78.5774844 C107.92392,78.4261787 101.003003,71.4110178 101.003003,62.7775116 C101.003003,54.0460801 108.075594,46.9698078 116.80273,46.9698078 C125.537843,46.9698078 132.614238,54.0460801 132.614238,62.7775116 C132.614238,65.5404054 131.904341,68.1391085 130.656958,70.3997361 L130.656958,70.3997361 Z M88.8432025,100.169656 C97.5745113,100.169656 104.652624,107.245928 104.652624,115.976746 C104.652624,124.704251 97.5745113,131.782241 88.8432025,131.782241 C81.6579607,131.782241 75.5984922,126.99028 73.6753267,120.430509 C54.6706916,115.451164 35.6435999,110.510106 16.6989717,105.361049 L15.0571882,101.692775 C14.3431185,100.145359 13.6533461,98.5573235 12.9789129,96.9446231 C12.2605482,95.2090865 11.6207202,93.6178609 11.0693686,92.1707009 C7.48220841,82.7519513 4.69563093,72.8467654 2.81161103,62.5580999 C0.97176797,52.4930184 0,42.2153971 0,31.8351874 L0.0373048949,31.8020548 L0.0857767156,25.0171043 L4.10881512,22.6892298 C14.9136134,16.4426233 26.4934701,11.3430196 38.6704504,7.57338452 C46.9488238,5.00670958 55.49324,3.06071937 64.2423423,1.783763 L53.4163145,20.4608759 C50.0467254,21.257409 46.7326027,22.163648 43.4641294,23.175666 C34.0297951,26.0998052 24.9720684,29.9154579 16.3958695,34.5310796 C16.5385852,43.1709669 17.3855536,51.5519288 18.8602014,59.6155536 C20.5396579,68.7730463 23.0666964,77.7191037 26.3533313,86.3527326 L28.4532042,91.5921069 L77.8424308,104.626486 C80.6861927,101.866783 84.5659018,100.169656 88.8432025,100.169656 L88.8432025,100.169656 Z M71.0634932,55.1625272 C72.3063353,57.4209459 73.0145147,60.0157222 73.0145147,62.7775116 C73.0145147,71.5026847 65.9381197,78.5792024 57.2130693,78.5792024 C48.4838466,78.5792024 41.4091696,71.5026847 41.4091696,62.7775116 C41.4091696,54.1416739 48.3342589,47.1251631 56.9330372,46.9737346 L84.1506394,0 L88.8432025,0 C103.991076,0 118.719515,1.99973871 132.748487,5.75489361 C147.193089,9.61742279 160.901288,15.3567318 173.575504,22.6892298 L177.608237,25.0171043 L177.652904,31.8020548 L177.684932,31.8351874 C177.684932,45.2352529 176.11825,58.2979791 173.160119,70.8483765 C171.06859,79.74044 168.246426,88.3966482 164.779279,96.7371146 L154.13904,78.3590545 C155.30899,74.6850132 156.341501,70.944093 157.238782,67.1407117 C159.704464,56.6711666 161.101066,45.7639025 161.292131,34.5351292 C151.029603,29.0124095 140.049079,24.6242985 128.532911,21.5448039 C117.341443,18.5520678 105.608071,16.7966516 93.5022648,16.4368558 L71.0634932,55.1625272 Z" id="Fill-1" fill="#FFFFFF" mask="url(#mask-34)"></path>
            </g>
        </g>
    </g>
</svg>